        <svg xmlns="http://www.w3.org/2000/svg" width="394" height="604" fill="none" viewBox="0 0 394 604">
          <rect width="394" height="604" fill="#fff" rx="30"/>
          <rect width="394" height="604" fill="#fff" rx="30"/>
          <path fill="#000" d="M24.896 68V46.182h8.736c1.605 0 2.944.238 4.016.714 1.073.475 1.879 1.136 2.419 1.981.54.838.81 1.804.81 2.898 0 .852-.171 1.601-.512 2.248a4.414 4.414 0 0 1-1.406 1.576 5.764 5.764 0 0 1-2.024.863v.213a4.89 4.89 0 0 1 2.333.704c.731.433 1.324 1.04 1.779 1.821.454.774.682 1.698.682 2.77 0 1.158-.288 2.191-.863 3.1-.568.902-1.41 1.616-2.525 2.142-1.115.525-2.49.788-4.123.788h-9.322Zm4.613-3.771h3.76c1.286 0 2.224-.245 2.813-.735.59-.498.885-1.158.885-1.982 0-.604-.146-1.136-.437-1.598-.291-.462-.707-.824-1.247-1.087-.532-.262-1.168-.394-1.907-.394H29.51v5.796Zm0-8.917h3.42c.632 0 1.193-.11 1.683-.33a2.8 2.8 0 0 0 1.172-.96c.291-.411.437-.905.437-1.48 0-.788-.28-1.424-.842-1.907-.554-.483-1.342-.724-2.365-.724H29.51v5.4ZM52.102 68.32c-1.683 0-3.132-.341-4.346-1.023a7.004 7.004 0 0 1-2.791-2.92c-.654-1.263-.98-2.758-.98-4.484 0-1.684.326-3.16.98-4.432.653-1.271 1.573-2.262 2.759-2.972 1.193-.71 2.592-1.066 4.197-1.066 1.08 0 2.085.174 3.015.522a6.675 6.675 0 0 1 2.45 1.545c.704.689 1.25 1.555 1.641 2.6.39 1.036.586 2.25.586 3.643v1.246H45.796v-2.812h9.545c0-.654-.142-1.232-.426-1.737a3.052 3.052 0 0 0-1.183-1.182c-.497-.291-1.076-.437-1.736-.437-.689 0-1.3.16-1.833.48a3.362 3.362 0 0 0-1.235 1.267 3.58 3.58 0 0 0-.458 1.758v2.674c0 .81.149 1.51.447 2.099a3.26 3.26 0 0 0 1.29 1.363c.553.32 1.21.48 1.97.48.504 0 .966-.071 1.385-.213a2.875 2.875 0 0 0 1.076-.64 2.78 2.78 0 0 0 .682-1.043l4.197.276a5.73 5.73 0 0 1-1.31 2.642c-.654.746-1.499 1.329-2.536 1.748-1.03.412-2.22.618-3.569.618Zm17.845 6.157c-1.47 0-2.73-.202-3.782-.607-1.044-.398-1.875-.941-2.493-1.63a5.013 5.013 0 0 1-1.204-2.322l4.198-.565c.127.327.33.632.607.916.277.284.643.511 1.097.682.462.178 1.023.266 1.683.266.988 0 1.8-.241 2.44-.724.646-.476.97-1.275.97-2.397v-2.994h-.192a4.314 4.314 0 0 1-.895 1.29c-.398.404-.91.734-1.534.99-.625.256-1.37.384-2.237.384-1.23 0-2.348-.285-3.356-.853-1.002-.575-1.8-1.452-2.397-2.631-.59-1.186-.884-2.685-.884-4.496 0-1.854.301-3.402.905-4.645.604-1.243 1.406-2.173 2.408-2.79a6.222 6.222 0 0 1 3.313-.928c.916 0 1.683.157 2.301.469.618.305 1.115.689 1.492 1.15.383.455.678.903.884 1.343h.17v-2.749h4.507V68.16c0 1.392-.341 2.557-1.023 3.494-.682.938-1.626 1.64-2.834 2.11-1.2.475-2.582.713-4.144.713Zm.096-10.12c.731 0 1.35-.182 1.853-.544.512-.37.903-.895 1.172-1.577.277-.688.416-1.512.416-2.471 0-.959-.135-1.79-.405-2.493-.27-.71-.66-1.26-1.172-1.651-.511-.39-1.133-.586-1.864-.586-.746 0-1.375.202-1.886.607-.511.398-.898.952-1.161 1.662s-.394 1.53-.394 2.46c0 .945.131 1.762.394 2.451.27.682.657 1.211 1.161 1.588.511.369 1.14.553 1.886.553ZM81.559 68V51.636h4.538V68H81.56Zm2.28-18.473a2.465 2.465 0 0 1-1.736-.671c-.476-.455-.714-.998-.714-1.63 0-.625.238-1.161.714-1.609a2.444 2.444 0 0 1 1.736-.682c.675 0 1.25.228 1.726.682.483.448.724.984.724 1.609 0 .632-.241 1.175-.724 1.63-.476.447-1.051.671-1.726.671Zm10.432 9.013V68h-4.538V51.636h4.325v2.887h.192a4.565 4.565 0 0 1 1.822-2.258c.852-.561 1.885-.842 3.1-.842 1.136 0 2.127.249 2.972.746.845.497 1.502 1.207 1.971 2.13.469.917.703 2.01.703 3.282V68h-4.538v-9.61c.007-1-.249-1.782-.767-2.343-.519-.568-1.233-.852-2.142-.852-.61 0-1.15.131-1.619.394a2.748 2.748 0 0 0-1.087 1.15c-.255.498-.387 1.098-.394 1.8Zm18.662 0V68h-4.538V51.636h4.325v2.887h.192a4.566 4.566 0 0 1 1.822-2.258c.852-.561 1.885-.842 3.1-.842 1.136 0 2.127.249 2.972.746.845.497 1.502 1.207 1.971 2.13.469.917.703 2.01.703 3.282V68h-4.538v-9.61c.007-1-.249-1.782-.767-2.343-.519-.568-1.232-.852-2.141-.852-.611 0-1.151.131-1.62.394a2.745 2.745 0 0 0-1.086 1.15c-.256.498-.387 1.098-.395 1.8Zm21.582 9.78c-1.684 0-3.133-.341-4.347-1.023a7.004 7.004 0 0 1-2.791-2.92c-.654-1.263-.98-2.758-.98-4.484 0-1.684.326-3.16.98-4.432.653-1.271 1.573-2.262 2.759-2.972 1.193-.71 2.592-1.066 4.197-1.066 1.08 0 2.085.174 3.015.522a6.687 6.687 0 0 1 2.451 1.545c.703.689 1.25 1.555 1.64 2.6.391 1.036.586 2.25.586 3.643v1.246h-13.817v-2.812h9.545c0-.654-.142-1.232-.426-1.737a3.052 3.052 0 0 0-1.182-1.182c-.498-.291-1.076-.437-1.737-.437-.689 0-1.3.16-1.832.48a3.357 3.357 0 0 0-1.236 1.267 3.582 3.582 0 0 0-.458 1.758v2.674c0 .81.149 1.51.447 2.099a3.27 3.27 0 0 0 1.289 1.363c.554.32 1.211.48 1.971.48.504 0 .966-.071 1.385-.213a2.873 2.873 0 0 0 1.076-.64 2.78 2.78 0 0 0 .682-1.043l4.197.276a5.735 5.735 0 0 1-1.31 2.642c-.653.746-1.499 1.329-2.536 1.748-1.029.412-2.219.618-3.568.618Zm10.472-.32V51.636h4.4v2.855h.17c.298-1.015.799-1.782 1.502-2.3.703-.526 1.513-.789 2.429-.789a6.697 6.697 0 0 1 1.428.16v4.027a5.934 5.934 0 0 0-.884-.17 7.955 7.955 0 0 0-1.034-.075c-.667 0-1.264.145-1.79.437-.518.284-.93.681-1.235 1.193-.299.511-.448 1.1-.448 1.768V68h-4.538Z"/>
          <path fill="#2E2E2E" d="M21.616 91.14v-1.322h7.88v1.323H26.32V100h-1.532v-8.86h-3.172Zm10.989 4.326V100h-1.487V89.818h1.467v3.788h.094c.18-.41.453-.737.82-.979.369-.242.85-.363 1.443-.363.523 0 .98.108 1.372.323.394.216.7.537.914.965.22.424.329.954.329 1.59V100H36.07v-4.678c0-.56-.144-.995-.432-1.303-.289-.311-.69-.467-1.203-.467-.352 0-.667.074-.945.224a1.613 1.613 0 0 0-.651.656c-.156.285-.234.63-.234 1.034Zm10.227 4.688c-.753 0-1.4-.16-1.944-.482a3.271 3.271 0 0 1-1.253-1.367c-.292-.59-.438-1.281-.438-2.074 0-.782.146-1.471.438-2.068a3.397 3.397 0 0 1 1.233-1.397c.53-.334 1.15-.502 1.86-.502.43 0 .848.072 1.252.214.404.143.767.366 1.089.671.321.305.575.701.76 1.188.186.484.279 1.073.279 1.765v.527h-6.07v-1.113h4.613c0-.392-.08-.738-.239-1.04a1.803 1.803 0 0 0-.67-.72 1.875 1.875 0 0 0-1.005-.264 1.94 1.94 0 0 0-1.094.308 2.068 2.068 0 0 0-.716.796 2.296 2.296 0 0 0-.248 1.059v.87c0 .51.09.944.268 1.302.183.358.436.632.76.82.326.186.705.28 1.14.28.281 0 .538-.04.77-.12a1.599 1.599 0 0 0 .99-.97l1.406.254a2.549 2.549 0 0 1-.606 1.089 2.941 2.941 0 0 1-1.089.72c-.434.17-.93.254-1.486.254Zm8.75-.154V89.818h1.486v3.784h.09c.086-.16.21-.344.372-.552.163-.21.388-.391.676-.547.289-.16.67-.239 1.144-.239.616 0 1.167.156 1.65.468.484.311.864.76 1.139 1.347.278.587.418 1.292.418 2.118 0 .825-.138 1.533-.413 2.123-.275.586-.653 1.039-1.133 1.357a2.937 2.937 0 0 1-1.646.472c-.464 0-.844-.078-1.139-.234a2.155 2.155 0 0 1-.686-.546 4.142 4.142 0 0 1-.383-.557h-.124V100h-1.452Zm1.456-3.818c0 .537.078 1.007.234 1.412.156.404.381.72.676.95.295.225.656.337 1.084.337.444 0 .815-.117 1.113-.353a2.19 2.19 0 0 0 .677-.97c.155-.407.233-.866.233-1.376 0-.504-.076-.956-.228-1.357a2.077 2.077 0 0 0-.677-.95c-.298-.232-.67-.348-1.118-.348-.431 0-.796.111-1.094.333-.295.222-.519.532-.671.93-.153.397-.229.861-.229 1.392Zm9.41 3.987c-.484 0-.921-.089-1.312-.268a2.211 2.211 0 0 1-.93-.79c-.225-.346-.338-.768-.338-1.269 0-.43.083-.785.248-1.064.166-.278.39-.498.672-.66.281-.163.596-.286.944-.369a9.389 9.389 0 0 1 1.064-.189l1.114-.129c.285-.036.492-.094.621-.174.13-.08.194-.209.194-.388v-.034c0-.435-.122-.771-.368-1.01-.242-.238-.603-.358-1.084-.358-.5 0-.894.111-1.183.333-.285.22-.482.463-.591.731l-1.397-.318c.165-.464.407-.838.725-1.123a2.943 2.943 0 0 1 1.11-.627 4.328 4.328 0 0 1 1.317-.199c.305 0 .628.037.969.11.345.07.666.198.965.387.301.19.548.46.74.81.193.349.289.801.289 1.358V100h-1.452v-1.044h-.06c-.096.192-.24.381-.432.567-.192.185-.44.34-.741.462-.302.123-.663.184-1.084.184Zm.323-1.193c.411 0 .763-.081 1.054-.244.295-.162.519-.374.671-.636a1.65 1.65 0 0 0 .234-.85v-.985c-.053.053-.156.103-.308.15a4.81 4.81 0 0 1-.512.114c-.192.03-.38.058-.562.084l-.457.06a3.688 3.688 0 0 0-.79.184c-.236.086-.425.21-.568.373-.139.159-.208.371-.208.636 0 .368.136.647.407.835.272.186.618.279 1.04.279Zm11.148-4.748-1.347.239a1.599 1.599 0 0 0-.269-.493 1.33 1.33 0 0 0-.487-.382c-.206-.1-.463-.15-.77-.15-.422 0-.773.095-1.055.284-.281.186-.422.426-.422.72a.76.76 0 0 0 .283.617c.189.156.494.284.915.383l1.213.278c.703.163 1.226.413 1.571.751s.517.777.517 1.318c0 .457-.133.865-.398 1.223-.262.354-.628.633-1.098.835-.468.202-1.01.303-1.626.303-.855 0-1.553-.182-2.093-.547-.54-.368-.872-.89-.994-1.566l1.436-.219c.09.375.274.658.552.85.279.19.642.284 1.089.284.487 0 .877-.101 1.168-.303.292-.206.438-.456.438-.751a.78.78 0 0 0-.269-.602c-.175-.162-.445-.285-.81-.367l-1.293-.284c-.712-.162-1.24-.42-1.58-.775-.339-.355-.508-.804-.508-1.348 0-.45.126-.845.378-1.183.252-.338.6-.602 1.044-.79.444-.193.953-.289 1.526-.289.826 0 1.475.18 1.95.537.473.355.786.83.939 1.427ZM75.702 100v-7.636h1.487V100h-1.487Zm.751-8.815a.945.945 0 0 1-.666-.258.84.84 0 0 1-.274-.627.83.83 0 0 1 .274-.626.935.935 0 0 1 .666-.264c.259 0 .48.088.661.264a.823.823 0 0 1 .279.626.835.835 0 0 1-.279.627.927.927 0 0 1-.66.258Zm5.952 8.969c-.739 0-1.375-.167-1.909-.502a3.325 3.325 0 0 1-1.223-1.397c-.285-.593-.427-1.273-.427-2.038 0-.776.145-1.46.437-2.054a3.352 3.352 0 0 1 1.233-1.397c.53-.334 1.155-.502 1.874-.502.58 0 1.097.108 1.552.323.454.212.82.51 1.098.895.282.385.45.834.502 1.347h-1.446a1.733 1.733 0 0 0-.547-.924c-.282-.259-.66-.388-1.134-.388-.414 0-.777.11-1.089.328-.308.216-.548.524-.72.925-.173.398-.259.868-.259 1.412 0 .557.085 1.037.254 1.442.169.404.407.717.716.94.311.221.677.332 1.098.332.282 0 .537-.051.766-.154a1.57 1.57 0 0 0 .582-.452c.159-.196.27-.431.333-.706h1.446a2.81 2.81 0 0 1-.482 1.322 2.775 2.775 0 0 1-1.079.915c-.447.222-.972.333-1.576.333Zm14.154-5.926-1.347.239a1.599 1.599 0 0 0-.268-.493 1.33 1.33 0 0 0-.487-.382c-.206-.1-.463-.15-.771-.15-.421 0-.772.095-1.054.284-.282.186-.423.426-.423.72a.76.76 0 0 0 .284.617c.189.156.494.284.915.383l1.213.278c.702.163 1.226.413 1.57.751.345.338.518.777.518 1.318 0 .457-.133.865-.398 1.223-.262.354-.628.633-1.099.835-.467.202-1.01.303-1.626.303-.855 0-1.552-.182-2.093-.547-.54-.368-.871-.89-.994-1.566l1.437-.219c.09.375.273.658.552.85.278.19.641.284 1.088.284.488 0 .877-.101 1.169-.303.291-.206.437-.456.437-.751a.78.78 0 0 0-.268-.602c-.176-.162-.446-.285-.81-.367l-1.293-.284c-.713-.162-1.24-.42-1.581-.775-.338-.355-.507-.804-.507-1.348 0-.45.126-.845.378-1.183.252-.338.6-.602 1.044-.79.444-.193.953-.289 1.526-.289.825 0 1.475.18 1.949.537.474.355.787.83.94 1.427Zm5.001 5.926c-.716 0-1.341-.164-1.875-.492a3.319 3.319 0 0 1-1.243-1.377c-.294-.59-.442-1.28-.442-2.068 0-.793.147-1.485.442-2.079a3.312 3.312 0 0 1 1.243-1.382c.534-.328 1.159-.492 1.875-.492s1.34.164 1.874.492a3.31 3.31 0 0 1 1.243 1.382c.295.594.442 1.286.442 2.079 0 .788-.147 1.478-.442 2.068a3.316 3.316 0 0 1-1.243 1.377c-.534.328-1.158.492-1.874.492Zm.005-1.248c.464 0 .848-.122 1.153-.368a2.15 2.15 0 0 0 .676-.98 3.89 3.89 0 0 0 .224-1.346c0-.488-.075-.935-.224-1.343a2.187 2.187 0 0 0-.676-.989c-.305-.249-.689-.373-1.153-.373-.468 0-.855.124-1.164.373a2.22 2.22 0 0 0-.68.99 3.958 3.958 0 0 0-.22 1.342c0 .49.073.94.22 1.347.148.408.375.734.68.98.309.245.696.367 1.164.367Zm6.7-9.088V100h-1.486V89.818h1.486Zm6.837 7.015v-4.47h1.492V100h-1.462v-1.322h-.079a2.386 2.386 0 0 1-.846 1.019c-.384.268-.863.402-1.436.402-.491 0-.925-.107-1.303-.323a2.278 2.278 0 0 1-.885-.97c-.212-.427-.318-.955-.318-1.585v-4.857h1.486v4.678c0 .52.145.935.433 1.243.288.308.663.462 1.124.462.278 0 .555-.07.83-.209.278-.139.509-.35.691-.631.185-.282.277-.64.273-1.074Zm7.054-4.47v1.194h-4.171v-1.193h4.171Zm-3.053-1.829h1.487v7.224c0 .288.043.505.129.651a.67.67 0 0 0 .333.293c.139.05.29.075.452.075.12 0 .224-.008.314-.025.089-.016.159-.03.208-.04l.269 1.228a2.928 2.928 0 0 1-.965.159 2.615 2.615 0 0 1-1.093-.208 1.88 1.88 0 0 1-.821-.677c-.208-.304-.313-.687-.313-1.148v-7.532ZM123.8 100v-7.636h1.487V100H123.8Zm.751-8.815a.943.943 0 0 1-.666-.258.838.838 0 0 1-.274-.627c0-.245.091-.454.274-.626a.933.933 0 0 1 .666-.264c.258 0 .479.088.661.264a.822.822 0 0 1 .278.626.834.834 0 0 1-.278.627.927.927 0 0 1-.661.258Zm5.952 8.969c-.716 0-1.341-.164-1.874-.492a3.316 3.316 0 0 1-1.243-1.377c-.295-.59-.443-1.28-.443-2.068 0-.793.148-1.485.443-2.079a3.31 3.31 0 0 1 1.243-1.382c.533-.328 1.158-.492 1.874-.492.716 0 1.341.164 1.874.492a3.31 3.31 0 0 1 1.243 1.382c.295.594.443 1.286.443 2.079 0 .788-.148 1.478-.443 2.068a3.316 3.316 0 0 1-1.243 1.377c-.533.328-1.158.492-1.874.492Zm.005-1.248c.464 0 .848-.122 1.153-.368.305-.245.531-.571.677-.98a3.89 3.89 0 0 0 .223-1.346c0-.488-.074-.935-.223-1.343a2.189 2.189 0 0 0-.677-.989c-.305-.249-.689-.373-1.153-.373-.467 0-.855.124-1.163.373a2.22 2.22 0 0 0-.681.99 3.956 3.956 0 0 0-.219 1.342c0 .49.073.94.219 1.347.149.408.376.734.681.98.308.245.696.367 1.163.367Zm6.7-3.44V100h-1.486v-7.636h1.427v1.242h.094c.176-.404.451-.729.826-.974.377-.245.853-.368 1.426-.368.521 0 .976.11 1.368.328.391.216.694.537.909.965.216.427.324.956.324 1.586V100h-1.487v-4.678c0-.554-.144-.986-.433-1.298-.288-.315-.684-.472-1.188-.472a1.86 1.86 0 0 0-.919.224 1.607 1.607 0 0 0-.632.656c-.152.285-.229.63-.229 1.034Zm14.22-3.102v1.193h-4.315v-1.193h4.315ZM148.296 100v-8.521c0-.478.105-.874.314-1.189.208-.318.485-.555.83-.71a2.65 2.65 0 0 1 1.123-.24 3.4 3.4 0 0 1 .766.075c.212.047.37.09.472.13l-.348 1.203a6.888 6.888 0 0 0-.268-.07 1.53 1.53 0 0 0-.398-.044c-.361 0-.62.089-.775.268-.153.179-.229.438-.229.776V100h-1.487Zm7.582.154c-.716 0-1.341-.164-1.874-.492a3.316 3.316 0 0 1-1.243-1.377c-.295-.59-.443-1.28-.443-2.068 0-.793.148-1.485.443-2.079a3.31 3.31 0 0 1 1.243-1.382c.533-.328 1.158-.492 1.874-.492.716 0 1.341.164 1.874.492a3.31 3.31 0 0 1 1.243 1.382c.295.594.443 1.286.443 2.079 0 .788-.148 1.478-.443 2.068a3.316 3.316 0 0 1-1.243 1.377c-.533.328-1.158.492-1.874.492Zm.005-1.248c.464 0 .848-.122 1.153-.368.305-.245.531-.571.677-.98a3.89 3.89 0 0 0 .223-1.346c0-.488-.074-.935-.223-1.343a2.189 2.189 0 0 0-.677-.989c-.305-.249-.689-.373-1.153-.373-.467 0-.855.124-1.163.373a2.22 2.22 0 0 0-.681.99 3.956 3.956 0 0 0-.219 1.342c0 .49.073.94.219 1.347.149.408.376.734.681.98.308.245.696.367 1.163.367Zm5.214 1.094v-7.636h1.437v1.213h.079a1.85 1.85 0 0 1 .736-.97 2.107 2.107 0 0 1 1.203-.358 6.372 6.372 0 0 1 .632.035v1.422a2.676 2.676 0 0 0-.319-.055 3.031 3.031 0 0 0-.457-.034c-.351 0-.665.074-.94.223a1.666 1.666 0 0 0-.885 1.497V100h-1.486Zm14.8-5.772-1.347.239a1.601 1.601 0 0 0-.268-.493 1.334 1.334 0 0 0-.488-.382c-.205-.1-.462-.15-.77-.15-.421 0-.772.095-1.054.284-.282.186-.423.426-.423.72a.76.76 0 0 0 .284.617c.189.156.493.284.914.383l1.213.278c.703.163 1.227.413 1.571.751.345.338.518.777.518 1.318 0 .457-.133.865-.398 1.223-.262.354-.628.633-1.099.835-.467.202-1.009.303-1.626.303-.855 0-1.552-.182-2.093-.547-.54-.368-.871-.89-.994-1.566l1.437-.219c.089.375.273.658.552.85.278.19.641.284 1.088.284.488 0 .877-.101 1.169-.303.291-.206.437-.456.437-.751a.78.78 0 0 0-.268-.602c-.176-.162-.446-.285-.811-.367l-1.292-.284c-.713-.162-1.24-.42-1.581-.775-.338-.355-.507-.804-.507-1.348 0-.45.126-.845.378-1.183.251-.338.599-.602 1.044-.79.444-.193.952-.289 1.526-.289.825 0 1.475.18 1.949.537.474.355.787.83.939 1.427Zm1.784 5.772v-7.636h1.427v1.242h.094c.159-.42.42-.748.781-.984.361-.239.794-.358 1.297-.358.511 0 .938.12 1.283.358.348.239.605.567.771.984h.079c.182-.407.472-.732.87-.974.398-.245.872-.368 1.422-.368.693 0 1.258.217 1.695.651.441.435.662 1.09.662 1.964V100h-1.487v-4.981c0-.518-.141-.892-.422-1.124a1.54 1.54 0 0 0-1.01-.348c-.484 0-.86.149-1.128.447-.269.295-.403.675-.403 1.139V100h-1.481v-5.076c0-.414-.13-.747-.388-1-.259-.251-.595-.377-1.01-.377-.281 0-.541.074-.78.224-.235.145-.426.35-.572.611a1.879 1.879 0 0 0-.214.91V100h-1.486Zm14.595.169c-.484 0-.921-.089-1.312-.268a2.214 2.214 0 0 1-.93-.79c-.225-.346-.338-.768-.338-1.269 0-.43.083-.785.249-1.064.165-.278.389-.498.671-.66a3.49 3.49 0 0 1 .944-.369 9.396 9.396 0 0 1 1.064-.189l1.114-.129c.285-.036.492-.094.621-.174.13-.08.194-.209.194-.388v-.034c0-.435-.122-.771-.368-1.01-.242-.238-.603-.358-1.083-.358-.501 0-.895.111-1.184.333-.285.22-.482.463-.591.731l-1.397-.318c.165-.464.407-.838.726-1.123a2.94 2.94 0 0 1 1.108-.627 4.331 4.331 0 0 1 1.318-.199c.305 0 .628.037.969.11.345.07.666.198.965.387.301.19.548.46.74.81.193.349.289.801.289 1.358V100h-1.452v-1.044h-.06c-.096.192-.24.381-.432.567-.192.185-.439.34-.741.462-.302.123-.663.184-1.084.184Zm.323-1.193c.411 0 .763-.081 1.054-.244.295-.162.519-.374.672-.636.155-.265.233-.549.233-.85v-.985c-.053.053-.156.103-.308.15-.149.043-.32.08-.512.114-.192.03-.38.058-.562.084l-.457.06a3.687 3.687 0 0 0-.791.184c-.235.086-.424.21-.566.373-.14.159-.209.371-.209.636 0 .368.136.647.407.835.272.186.619.279 1.039.279Zm6.912-9.158V100h-1.486V89.818h1.486Zm3.487 0V100h-1.487V89.818h1.487ZM208.822 100V89.818h1.486v3.784h.09c.086-.16.21-.344.373-.552.162-.21.387-.391.676-.547.288-.16.669-.239 1.143-.239a2.98 2.98 0 0 1 1.651.468c.484.311.863.76 1.138 1.347.279.587.418 1.292.418 2.118 0 .825-.138 1.533-.413 2.123-.275.586-.653 1.039-1.133 1.357a2.936 2.936 0 0 1-1.646.472c-.464 0-.843-.078-1.138-.234a2.143 2.143 0 0 1-.686-.546 4.072 4.072 0 0 1-.383-.557h-.125V100h-1.451Zm1.456-3.818c0 .537.078 1.007.234 1.412.156.404.381.72.676.95.295.225.656.337 1.084.337.444 0 .815-.117 1.114-.353.298-.238.523-.561.676-.97a3.83 3.83 0 0 0 .233-1.376c0-.504-.076-.956-.228-1.357a2.08 2.08 0 0 0-.676-.95c-.299-.232-.672-.348-1.119-.348-.431 0-.795.111-1.094.333-.295.222-.518.532-.671.93-.152.397-.229.861-.229 1.392Zm12.025.651v-4.47h1.492V100h-1.462v-1.322h-.079a2.39 2.39 0 0 1-.845 1.019c-.385.268-.864.402-1.437.402-.491 0-.925-.107-1.303-.323a2.278 2.278 0 0 1-.885-.97c-.212-.427-.318-.955-.318-1.585v-4.857h1.487v4.678c0 .52.144.935.432 1.243.288.308.663.462 1.124.462.278 0 .555-.07.83-.209.278-.139.509-.35.691-.631.186-.282.277-.64.273-1.074Zm9.212-2.605-1.348.239a1.601 1.601 0 0 0-.268-.493 1.339 1.339 0 0 0-.487-.382c-.206-.1-.463-.15-.771-.15-.421 0-.772.095-1.054.284-.282.186-.423.426-.423.72a.76.76 0 0 0 .284.617c.189.156.494.284.915.383l1.213.278c.702.163 1.226.413 1.571.751.344.338.517.777.517 1.318 0 .457-.133.865-.398 1.223-.262.354-.628.633-1.099.835-.467.202-1.009.303-1.625.303-.856 0-1.553-.182-2.093-.547-.541-.368-.872-.89-.995-1.566l1.437-.219c.089.375.273.658.552.85.278.19.641.284 1.089.284.487 0 .876-.101 1.168-.303.292-.206.437-.456.437-.751a.78.78 0 0 0-.268-.602c-.176-.162-.446-.285-.81-.367l-1.293-.284c-.713-.162-1.24-.42-1.581-.775-.338-.355-.507-.804-.507-1.348 0-.45.126-.845.378-1.183.252-.338.6-.602 1.044-.79.444-.193.953-.289 1.526-.289.825 0 1.475.18 1.949.537.474.355.787.83.94 1.427Zm1.783 5.772v-7.636h1.487V100h-1.487Zm.751-8.815a.943.943 0 0 1-.666-.258.838.838 0 0 1-.274-.627c0-.245.091-.454.274-.626a.933.933 0 0 1 .666-.264c.258 0 .479.088.661.264a.822.822 0 0 1 .278.626.834.834 0 0 1-.278.627.927.927 0 0 1-.661.258Zm4.222 4.28V100h-1.487v-7.636h1.427v1.242h.095a2.18 2.18 0 0 1 .825-.974c.378-.245.853-.368 1.427-.368.52 0 .976.11 1.367.328a2.2 2.2 0 0 1 .91.965c.215.427.323.956.323 1.586V100h-1.486v-4.678c0-.554-.145-.986-.433-1.298-.288-.315-.684-.472-1.188-.472-.345 0-.651.074-.92.224a1.605 1.605 0 0 0-.631.656c-.153.285-.229.63-.229 1.034Zm10.172 4.689c-.753 0-1.401-.16-1.944-.482a3.273 3.273 0 0 1-1.253-1.367c-.292-.59-.437-1.281-.437-2.074 0-.782.145-1.471.437-2.068a3.398 3.398 0 0 1 1.233-1.397c.53-.334 1.15-.502 1.859-.502.431 0 .849.072 1.253.214a3.03 3.03 0 0 1 1.089.671c.322.305.575.701.761 1.188.185.484.278 1.073.278 1.765v.527h-6.07v-1.113h4.613c0-.392-.079-.738-.238-1.04a1.805 1.805 0 0 0-.671-.72 1.876 1.876 0 0 0-1.005-.264c-.417 0-.782.103-1.093.308a2.063 2.063 0 0 0-.716.796 2.293 2.293 0 0 0-.249 1.059v.87c0 .51.09.944.269 1.302.182.358.435.632.76.82.325.186.705.28 1.139.28.281 0 .538-.04.77-.12.232-.083.433-.206.602-.368a1.6 1.6 0 0 0 .388-.602l1.407.254a2.549 2.549 0 0 1-.607 1.089 2.935 2.935 0 0 1-1.089.72c-.434.17-.929.254-1.486.254Zm10.648-5.926-1.348.239a1.58 1.58 0 0 0-.268-.493 1.33 1.33 0 0 0-.487-.382c-.206-.1-.463-.15-.771-.15-.421 0-.772.095-1.054.284-.282.186-.422.426-.422.72a.76.76 0 0 0 .283.617c.189.156.494.284.915.383l1.213.278c.702.163 1.226.413 1.571.751s.517.777.517 1.318c0 .457-.133.865-.398 1.223-.262.354-.628.633-1.099.835-.467.202-1.009.303-1.625.303-.855 0-1.553-.182-2.093-.547-.541-.368-.872-.89-.995-1.566l1.437-.219c.09.375.274.658.552.85.278.19.641.284 1.089.284.487 0 .876-.101 1.168-.303.292-.206.438-.456.438-.751a.78.78 0 0 0-.269-.602c-.176-.162-.446-.285-.81-.367l-1.293-.284c-.712-.162-1.239-.42-1.581-.775-.338-.355-.507-.804-.507-1.348 0-.45.126-.845.378-1.183.252-.338.6-.602 1.044-.79.444-.193.953-.289 1.526-.289.826 0 1.475.18 1.949.537.474.355.787.83.94 1.427Zm7.506 0-1.348.239a1.601 1.601 0 0 0-.268-.493 1.33 1.33 0 0 0-.487-.382c-.206-.1-.463-.15-.771-.15-.421 0-.772.095-1.054.284-.282.186-.423.426-.423.72a.76.76 0 0 0 .284.617c.189.156.494.284.915.383l1.213.278c.702.163 1.226.413 1.571.751.344.338.517.777.517 1.318 0 .457-.133.865-.398 1.223-.262.354-.628.633-1.099.835-.467.202-1.009.303-1.625.303-.856 0-1.553-.182-2.093-.547-.541-.368-.872-.89-.995-1.566l1.437-.219c.09.375.273.658.552.85.278.19.641.284 1.089.284.487 0 .876-.101 1.168-.303.292-.206.437-.456.437-.751a.78.78 0 0 0-.268-.602c-.176-.162-.446-.285-.81-.367l-1.293-.284c-.713-.162-1.24-.42-1.581-.775-.338-.355-.507-.804-.507-1.348 0-.45.126-.845.378-1.183.252-.338.6-.602 1.044-.79.444-.193.953-.289 1.526-.289.825 0 1.475.18 1.949.537.474.355.787.83.94 1.427Zm5.074 5.926c-.752 0-1.4-.16-1.944-.482a3.271 3.271 0 0 1-1.252-1.367c-.292-.59-.438-1.281-.438-2.074 0-.782.146-1.471.438-2.068a3.398 3.398 0 0 1 1.233-1.397c.53-.334 1.15-.502 1.859-.502.431 0 .848.072 1.253.214.404.143.767.366 1.089.671.321.305.575.701.76 1.188.186.484.279 1.073.279 1.765v.527h-6.071v-1.113h4.614c0-.392-.08-.738-.239-1.04a1.805 1.805 0 0 0-.671-.72 1.875 1.875 0 0 0-1.004-.264c-.418 0-.782.103-1.094.308a2.071 2.071 0 0 0-.716.796 2.305 2.305 0 0 0-.248 1.059v.87c0 .51.089.944.268 1.302.182.358.436.632.761.82.325.186.704.28 1.138.28.282 0 .539-.04.771-.12a1.593 1.593 0 0 0 .989-.97l1.407.254a2.557 2.557 0 0 1-.606 1.089 2.951 2.951 0 0 1-1.089.72c-.434.17-.93.254-1.487.254Zm10.648-5.926-1.347.239a1.584 1.584 0 0 0-.269-.493 1.322 1.322 0 0 0-.487-.382c-.205-.1-.462-.15-.77-.15-.421 0-.773.095-1.054.284-.282.186-.423.426-.423.72 0 .256.095.461.283.617.189.156.494.284.915.383l1.213.278c.703.163 1.227.413 1.571.751.345.338.517.777.517 1.318 0 .457-.132.865-.397 1.223-.262.354-.628.633-1.099.835-.467.202-1.009.303-1.626.303-.855 0-1.553-.182-2.093-.547-.54-.368-.871-.89-.994-1.566l1.437-.219c.089.375.273.658.552.85.278.19.641.284 1.088.284.488 0 .877-.101 1.169-.303.291-.206.437-.456.437-.751a.78.78 0 0 0-.268-.602c-.176-.162-.446-.285-.811-.367l-1.292-.284c-.713-.162-1.24-.42-1.581-.775-.338-.355-.507-.804-.507-1.348 0-.45.126-.845.377-1.183.252-.338.6-.602 1.044-.79.445-.193.953-.289 1.527-.289.825 0 1.475.18 1.949.537.474.355.787.83.939 1.427Zm7.144 5.772-2.247-7.636h1.536l1.497 5.608h.075l1.501-5.608h1.536l1.492 5.583h.074l1.487-5.583h1.536L295.708 100h-1.517l-1.551-5.513h-.114L290.975 100h-1.512Zm9.898 0v-7.636h1.486V100h-1.486Zm.75-8.815a.946.946 0 0 1-.666-.258.841.841 0 0 1-.273-.627.83.83 0 0 1 .273-.626.936.936 0 0 1 .666-.264.92.92 0 0 1 .662.264.825.825 0 0 1 .278.626.837.837 0 0 1-.278.627.93.93 0 0 1-.662.258Zm6.301 1.179v1.193h-4.172v-1.193h4.172Zm-3.053-1.83h1.487v7.224c0 .288.043.505.129.651a.67.67 0 0 0 .333.293c.139.05.29.075.452.075.12 0 .224-.008.314-.025.089-.016.159-.03.208-.04l.269 1.228a2.928 2.928 0 0 1-.965.159 2.615 2.615 0 0 1-1.093-.208 1.874 1.874 0 0 1-.821-.677c-.209-.304-.313-.687-.313-1.148v-7.532Zm6.347 4.932V100h-1.486V89.818h1.467v3.788h.094c.179-.41.452-.737.82-.979.368-.242.849-.363 1.442-.363.524 0 .981.108 1.372.323.395.216.7.537.915.965.219.424.328.954.328 1.59V100h-1.486v-4.678c0-.56-.144-.995-.433-1.303-.288-.311-.689-.467-1.203-.467-.351 0-.666.074-.945.224a1.613 1.613 0 0 0-.651.656c-.156.285-.234.63-.234 1.034Zm15.478 1.367v-4.47h1.492V100h-1.462v-1.322h-.079a2.386 2.386 0 0 1-.846 1.019c-.384.268-.863.402-1.436.402-.491 0-.925-.107-1.303-.323a2.278 2.278 0 0 1-.885-.97c-.212-.427-.318-.955-.318-1.585v-4.857h1.486v4.678c0 .52.145.935.433 1.243.288.308.663.462 1.124.462.278 0 .555-.07.83-.209.278-.139.509-.35.691-.631.185-.282.277-.64.273-1.074Zm3.489 6.031v-10.5h1.452v1.238h.124a4.07 4.07 0 0 1 .373-.552c.162-.21.388-.391.676-.547.288-.16.67-.239 1.144-.239.616 0 1.166.156 1.65.468.484.311.864.76 1.139 1.347.278.587.417 1.292.417 2.118 0 .825-.137 1.533-.412 2.123-.275.586-.653 1.039-1.134 1.357a2.934 2.934 0 0 1-1.646.472c-.464 0-.843-.078-1.138-.234a2.154 2.154 0 0 1-.686-.546 4.164 4.164 0 0 1-.383-.557h-.089v4.052h-1.487Zm1.457-6.682c0 .537.078 1.007.233 1.412.156.404.382.72.677.95.295.225.656.337 1.083.337.445 0 .816-.117 1.114-.353a2.18 2.18 0 0 0 .676-.97c.156-.407.234-.866.234-1.376 0-.504-.076-.956-.229-1.357a2.073 2.073 0 0 0-.676-.95c-.298-.232-.671-.348-1.119-.348-.43 0-.795.111-1.093.333-.295.222-.519.532-.672.93-.152.397-.228.861-.228 1.392Zm14.732-6.364V100h-1.541v-8.64h-.06l-2.436 1.59v-1.47l2.54-1.66h1.497Zm6.299 10.351c-.786-.003-1.457-.21-2.014-.621-.556-.411-.982-1.01-1.277-1.795-.295-.786-.443-1.732-.443-2.839 0-1.104.148-2.047.443-2.829.298-.782.726-1.379 1.282-1.79.56-.41 1.23-.616 2.009-.616.779 0 1.447.207 2.003.621.557.411.983 1.008 1.278 1.79.298.78.448 1.72.448 2.824 0 1.11-.148 2.058-.443 2.844-.295.782-.721 1.38-1.278 1.795-.556.41-1.226.616-2.008.616Zm0-1.327c.689 0 1.228-.337 1.616-1.01.391-.672.586-1.645.586-2.918 0-.845-.089-1.56-.268-2.143-.176-.586-.429-1.03-.761-1.332a1.664 1.664 0 0 0-1.173-.457c-.686 0-1.225.338-1.616 1.014-.391.676-.588 1.649-.592 2.918 0 .849.088 1.566.264 2.153.179.583.433 1.026.761 1.327.328.298.722.448 1.183.448Zm-323.44 12.386-1.347.239a1.595 1.595 0 0 0-.268-.493 1.33 1.33 0 0 0-.487-.382c-.206-.1-.463-.15-.771-.15-.42 0-.772.095-1.054.284-.282.185-.423.426-.423.721 0 .255.095.46.284.616.189.156.494.284.915.383l1.213.278c.702.163 1.226.413 1.57.751.345.338.518.777.518 1.318 0 .457-.133.865-.398 1.223-.262.354-.628.633-1.099.835-.467.202-1.009.303-1.625.303-.855 0-1.553-.182-2.093-.547-.54-.368-.872-.89-.995-1.566l1.437-.219c.09.375.273.658.552.851.278.189.641.283 1.089.283.487 0 .876-.101 1.168-.303.292-.206.438-.456.438-.751a.781.781 0 0 0-.269-.602c-.176-.162-.446-.285-.81-.367l-1.293-.284c-.713-.162-1.24-.421-1.581-.775-.338-.355-.507-.804-.507-1.348 0-.45.126-.845.378-1.183.252-.338.6-.602 1.044-.79.444-.193.953-.289 1.526-.289.825 0 1.475.179 1.949.537.474.355.787.83.94 1.427Zm4.006 5.941c-.483 0-.921-.089-1.312-.268a2.215 2.215 0 0 1-.93-.791c-.225-.345-.338-.767-.338-1.268 0-.431.083-.785.249-1.064.165-.278.39-.498.67-.661a3.55 3.55 0 0 1 .946-.368 9.344 9.344 0 0 1 1.063-.189l1.114-.129c.285-.036.492-.094.621-.174.13-.079.194-.209.194-.388v-.034c0-.435-.122-.771-.367-1.01-.242-.238-.604-.358-1.084-.358-.5 0-.895.111-1.183.333-.286.219-.483.463-.592.731l-1.397-.318c.166-.464.407-.838.726-1.124a2.945 2.945 0 0 1 1.108-.626 4.315 4.315 0 0 1 1.318-.199c.305 0 .628.037.97.11.344.069.666.198.964.387.301.189.548.459.74.811.193.348.289.8.289 1.357V117h-1.452v-1.044h-.06c-.096.192-.24.381-.432.567-.192.185-.44.339-.74.462-.302.123-.664.184-1.084.184Zm.324-1.193c.41 0 .762-.081 1.054-.244a1.7 1.7 0 0 0 .67-.636 1.64 1.64 0 0 0 .234-.85v-.985c-.053.053-.155.103-.308.15a4.79 4.79 0 0 1-.512.114c-.192.03-.38.058-.562.084l-.457.06a3.67 3.67 0 0 0-.79.184 1.35 1.35 0 0 0-.567.373c-.14.159-.21.371-.21.636 0 .368.137.647.409.835.271.186.618.279 1.039.279Zm6.911-9.158V117h-1.486v-10.182h1.486Zm5.291 10.336c-.752 0-1.4-.161-1.944-.482a3.275 3.275 0 0 1-1.252-1.367c-.292-.59-.438-1.281-.438-2.073 0-.783.146-1.472.438-2.069a3.403 3.403 0 0 1 1.233-1.397c.53-.334 1.15-.502 1.859-.502.43 0 .849.071 1.253.214a3.04 3.04 0 0 1 1.089.671c.321.305.575.701.76 1.188.186.484.279 1.073.279 1.765v.527h-6.07v-1.113h4.613c0-.391-.08-.738-.239-1.039a1.8 1.8 0 0 0-.67-.721 1.873 1.873 0 0 0-1.005-.264c-.418 0-.782.103-1.094.308a2.076 2.076 0 0 0-.716.796 2.296 2.296 0 0 0-.248 1.059v.87c0 .51.09.944.268 1.302.182.358.436.632.76.821.326.185.705.278 1.14.278.281 0 .538-.04.77-.119a1.593 1.593 0 0 0 .99-.97l1.406.254a2.554 2.554 0 0 1-.606 1.089 2.951 2.951 0 0 1-1.09.721c-.433.169-.929.253-1.486.253Zm10.648-5.926-1.347.239a1.597 1.597 0 0 0-.269-.493 1.33 1.33 0 0 0-.487-.382c-.205-.1-.462-.15-.77-.15-.421 0-.773.095-1.054.284-.282.185-.423.426-.423.721 0 .255.095.46.283.616.19.156.494.284.915.383l1.213.278c.703.163 1.227.413 1.571.751.345.338.517.777.517 1.318 0 .457-.132.865-.397 1.223-.262.354-.628.633-1.099.835-.467.202-1.01.303-1.626.303-.855 0-1.552-.182-2.093-.547-.54-.368-.871-.89-.994-1.566l1.437-.219c.09.375.273.658.552.851.278.189.64.283 1.088.283.488 0 .877-.101 1.169-.303.291-.206.437-.456.437-.751a.781.781 0 0 0-.268-.602c-.176-.162-.446-.285-.81-.367l-1.293-.284c-.713-.162-1.24-.421-1.581-.775-.338-.355-.507-.804-.507-1.348 0-.45.126-.845.378-1.183.251-.338.6-.602 1.044-.79.444-.193.952-.289 1.526-.289.825 0 1.475.179 1.949.537.474.355.787.83.94 1.427Zm8.705 5.926c-.715 0-1.34-.164-1.874-.492a3.318 3.318 0 0 1-1.243-1.377c-.295-.59-.442-1.28-.442-2.068 0-.793.147-1.485.442-2.079a3.32 3.32 0 0 1 1.243-1.382c.534-.328 1.159-.492 1.874-.492.716 0 1.341.164 1.875.492a3.32 3.32 0 0 1 1.243 1.382c.295.594.442 1.286.442 2.079 0 .788-.147 1.478-.442 2.068a3.318 3.318 0 0 1-1.243 1.377c-.534.328-1.159.492-1.874.492Zm.005-1.248c.465 0 .849-.122 1.154-.368.305-.245.53-.571.676-.979.15-.408.224-.857.224-1.347 0-.488-.075-.935-.224-1.343a2.189 2.189 0 0 0-.676-.989c-.305-.249-.69-.373-1.154-.373-.467 0-.855.124-1.163.373a2.223 2.223 0 0 0-.681.989 3.963 3.963 0 0 0-.219 1.343c0 .49.073.939.219 1.347.15.408.376.734.681.979.308.246.696.368 1.163.368ZM68.826 117v-7.636h1.436v1.213h.08a1.85 1.85 0 0 1 .736-.97 2.11 2.11 0 0 1 1.203-.358 7.159 7.159 0 0 1 .631.035v1.422a2.58 2.58 0 0 0-.318-.055 3.062 3.062 0 0 0-.457-.035 1.94 1.94 0 0 0-.94.224 1.663 1.663 0 0 0-.885 1.497V117h-1.486Zm14.8-5.772-1.347.239a1.595 1.595 0 0 0-.269-.493 1.33 1.33 0 0 0-.487-.382c-.206-.1-.462-.15-.77-.15-.422 0-.773.095-1.055.284-.281.185-.422.426-.422.721 0 .255.094.46.283.616.189.156.494.284.915.383l1.213.278c.703.163 1.226.413 1.571.751s.517.777.517 1.318c0 .457-.133.865-.398 1.223-.261.354-.628.633-1.098.835-.468.202-1.01.303-1.626.303-.855 0-1.553-.182-2.093-.547-.54-.368-.872-.89-.995-1.566l1.437-.219c.09.375.274.658.552.851.279.189.641.283 1.089.283.487 0 .877-.101 1.168-.303.292-.206.438-.456.438-.751a.781.781 0 0 0-.269-.602c-.175-.162-.446-.285-.81-.367l-1.293-.284c-.712-.162-1.24-.421-1.58-.775-.339-.355-.508-.804-.508-1.348 0-.45.126-.845.378-1.183.252-.338.6-.602 1.044-.79.444-.193.953-.289 1.526-.289.826 0 1.475.179 1.95.537.473.355.786.83.939 1.427Zm6.62 2.605v-4.469h1.492V117h-1.461v-1.322h-.08a2.388 2.388 0 0 1-.845 1.019c-.385.268-.864.402-1.437.402-.49 0-.925-.107-1.302-.323a2.268 2.268 0 0 1-.885-.969c-.212-.428-.319-.956-.319-1.586v-4.857h1.487v4.678c0 .52.144.935.433 1.243.288.308.662.462 1.123.462.279 0 .555-.069.83-.209.279-.139.51-.349.691-.631.186-.282.277-.64.274-1.074Zm3.49 6.031v-10.5h1.451v1.238h.125c.086-.16.21-.343.373-.552a2.11 2.11 0 0 1 .676-.547c.288-.159.67-.239 1.143-.239a2.98 2.98 0 0 1 1.65.468c.485.311.864.76 1.139 1.347.279.586.418 1.292.418 2.118 0 .825-.138 1.533-.413 2.123-.275.586-.653 1.039-1.133 1.357a2.937 2.937 0 0 1-1.646.472c-.464 0-.844-.078-1.139-.234a2.153 2.153 0 0 1-.686-.546 4.18 4.18 0 0 1-.382-.557h-.09v4.052h-1.486Zm1.456-6.682c0 .537.078 1.007.234 1.412.156.404.381.721.676.949.295.226.656.338 1.084.338.444 0 .815-.117 1.113-.353.299-.238.524-.561.677-.969.156-.408.233-.867.233-1.377 0-.504-.076-.956-.228-1.357a2.079 2.079 0 0 0-.676-.95c-.299-.232-.672-.348-1.12-.348-.43 0-.795.111-1.093.333-.295.222-.519.532-.671.93-.153.397-.229.862-.229 1.392Zm7.184 6.682v-10.5h1.452v1.238h.124c.086-.16.211-.343.373-.552a2.12 2.12 0 0 1 .676-.547c.289-.159.67-.239 1.144-.239.616 0 1.166.156 1.65.468.484.311.864.76 1.139 1.347.278.586.417 1.292.417 2.118 0 .825-.137 1.533-.412 2.123-.275.586-.653 1.039-1.134 1.357a2.932 2.932 0 0 1-1.645.472c-.464 0-.844-.078-1.139-.234a2.152 2.152 0 0 1-.686-.546 4.204 4.204 0 0 1-.383-.557h-.089v4.052h-1.487Zm1.457-6.682c0 .537.078 1.007.234 1.412.155.404.381.721.676.949.295.226.656.338 1.084.338.444 0 .815-.117 1.113-.353.298-.238.524-.561.676-.969.156-.408.234-.867.234-1.377 0-.504-.076-.956-.229-1.357a2.075 2.075 0 0 0-.676-.95c-.298-.232-.671-.348-1.118-.348-.431 0-.796.111-1.094.333-.295.222-.519.532-.671.93-.153.397-.229.862-.229 1.392Zm10.4 3.972c-.715 0-1.34-.164-1.874-.492a3.322 3.322 0 0 1-1.243-1.377c-.295-.59-.442-1.28-.442-2.068 0-.793.147-1.485.442-2.079a3.323 3.323 0 0 1 1.243-1.382c.534-.328 1.159-.492 1.874-.492.716 0 1.341.164 1.875.492.533.329.948.789 1.243 1.382.295.594.442 1.286.442 2.079 0 .788-.147 1.478-.442 2.068a3.322 3.322 0 0 1-1.243 1.377c-.534.328-1.159.492-1.875.492Zm.005-1.248c.464 0 .849-.122 1.154-.368.305-.245.53-.571.676-.979a3.9 3.9 0 0 0 .224-1.347c0-.488-.075-.935-.224-1.343a2.188 2.188 0 0 0-.676-.989c-.305-.249-.69-.373-1.154-.373-.467 0-.855.124-1.163.373a2.22 2.22 0 0 0-.681.989 3.958 3.958 0 0 0-.219 1.343c0 .49.073.939.219 1.347.149.408.376.734.681.979.308.246.696.368 1.163.368Zm5.214 1.094v-7.636h1.437v1.213h.08c.139-.411.384-.734.736-.97a2.107 2.107 0 0 1 1.203-.358 7.192 7.192 0 0 1 .631.035v1.422a2.609 2.609 0 0 0-.318-.055 3.071 3.071 0 0 0-.458-.035 1.94 1.94 0 0 0-.939.224 1.66 1.66 0 0 0-.885 1.497V117h-1.487Zm9.389-7.636v1.193h-4.171v-1.193h4.171Zm-3.052-1.83h1.486v7.224c0 .288.043.505.129.651.087.143.198.24.334.293.139.05.29.075.452.075.119 0 .224-.008.313-.025.09-.016.159-.03.209-.04l.268 1.228a2.936 2.936 0 0 1-.964.159 2.625 2.625 0 0 1-1.094-.208 1.88 1.88 0 0 1-.82-.677c-.209-.304-.313-.687-.313-1.148v-7.532Zm8.402 9.466v-7.636h1.436v1.213h.08a1.85 1.85 0 0 1 .736-.97 2.11 2.11 0 0 1 1.203-.358 7.15 7.15 0 0 1 .631.035v1.422a2.536 2.536 0 0 0-.318-.055 3.058 3.058 0 0 0-.457-.035 1.94 1.94 0 0 0-.94.224 1.66 1.66 0 0 0-.885 1.497V117h-1.486Zm8.39.154c-.752 0-1.4-.161-1.943-.482a3.271 3.271 0 0 1-1.253-1.367c-.292-.59-.438-1.281-.438-2.073 0-.783.146-1.472.438-2.069a3.403 3.403 0 0 1 1.233-1.397c.53-.334 1.15-.502 1.859-.502.431 0 .849.071 1.253.214.404.143.767.366 1.089.671.321.305.575.701.76 1.188.186.484.279 1.073.279 1.765v.527h-6.071v-1.113h4.614c0-.391-.079-.738-.239-1.039a1.794 1.794 0 0 0-.671-.721 1.87 1.87 0 0 0-1.004-.264c-.418 0-.782.103-1.094.308a2.079 2.079 0 0 0-.716.796 2.306 2.306 0 0 0-.248 1.059v.87c0 .51.089.944.268 1.302.183.358.436.632.761.821a2.26 2.26 0 0 0 1.138.278c.282 0 .539-.04.771-.119a1.587 1.587 0 0 0 .989-.97l1.407.254a2.552 2.552 0 0 1-.606 1.089 2.953 2.953 0 0 1-1.089.721c-.434.169-.93.253-1.487.253Zm10.082 2.71v-4.052h-.09a3.934 3.934 0 0 1-.388.557 2.141 2.141 0 0 1-.686.546c-.291.156-.669.234-1.133.234a2.958 2.958 0 0 1-1.651-.472c-.48-.318-.858-.771-1.133-1.357-.272-.59-.408-1.298-.408-2.123 0-.826.138-1.532.413-2.118.278-.587.659-1.036 1.143-1.347a2.973 2.973 0 0 1 1.646-.468c.474 0 .855.08 1.143.239.292.156.517.338.676.547.163.209.289.392.378.552h.124v-1.238h1.452v10.5h-1.486Zm-1.969-3.983c.427 0 .789-.112 1.084-.338.298-.228.523-.545.676-.949.156-.405.234-.875.234-1.412 0-.53-.077-.995-.229-1.392-.153-.398-.376-.708-.671-.93-.295-.222-.66-.333-1.094-.333-.448 0-.82.116-1.119.348a2.135 2.135 0 0 0-.676.95 3.874 3.874 0 0 0-.224 1.357c0 .51.077.969.229 1.377.153.408.378.731.676.969.302.236.673.353 1.114.353Zm10.291-2.048v-4.469h1.492V117h-1.462v-1.322h-.08a2.381 2.381 0 0 1-.845 1.019c-.384.268-.863.402-1.437.402-.49 0-.924-.107-1.302-.323a2.263 2.263 0 0 1-.885-.969c-.212-.428-.318-.956-.318-1.586v-4.857h1.486v4.678c0 .52.144.935.433 1.243.288.308.663.462 1.123.462.279 0 .556-.069.831-.209.278-.139.508-.349.691-.631.185-.282.276-.64.273-1.074Zm6.78 3.321c-.752 0-1.4-.161-1.944-.482a3.278 3.278 0 0 1-1.253-1.367c-.291-.59-.437-1.281-.437-2.073 0-.783.146-1.472.437-2.069a3.403 3.403 0 0 1 1.233-1.397c.531-.334 1.15-.502 1.86-.502.431 0 .848.071 1.253.214.404.143.767.366 1.088.671.322.305.575.701.761 1.188.186.484.278 1.073.278 1.765v.527h-6.07v-1.113h4.614c0-.391-.08-.738-.239-1.039a1.801 1.801 0 0 0-.671-.721 1.873 1.873 0 0 0-1.004-.264c-.418 0-.783.103-1.094.308a2.079 2.079 0 0 0-.716.796 2.294 2.294 0 0 0-.249 1.059v.87c0 .51.09.944.269 1.302.182.358.436.632.761.821.324.185.704.278 1.138.278.282 0 .539-.04.771-.119a1.6 1.6 0 0 0 .989-.97l1.407.254a2.554 2.554 0 0 1-.607 1.089 2.949 2.949 0 0 1-1.088.721c-.435.169-.93.253-1.487.253Zm10.648-5.926-1.347.239a1.603 1.603 0 0 0-.269-.493 1.322 1.322 0 0 0-.487-.382c-.205-.1-.462-.15-.771-.15-.421 0-.772.095-1.054.284-.281.185-.422.426-.422.721 0 .255.094.46.283.616.189.156.494.284.915.383l1.213.278c.703.163 1.226.413 1.571.751s.517.777.517 1.318c0 .457-.132.865-.398 1.223-.261.354-.628.633-1.098.835-.468.202-1.01.303-1.626.303-.855 0-1.553-.182-2.093-.547-.54-.368-.872-.89-.994-1.566l1.436-.219c.09.375.274.658.552.851.279.189.642.283 1.089.283.487 0 .877-.101 1.168-.303.292-.206.438-.456.438-.751a.782.782 0 0 0-.269-.602c-.175-.162-.445-.285-.81-.367l-1.293-.284c-.712-.162-1.239-.421-1.581-.775-.338-.355-.507-.804-.507-1.348 0-.45.126-.845.378-1.183.252-.338.6-.602 1.044-.79.444-.193.953-.289 1.527-.289.825 0 1.474.179 1.948.537.474.355.788.83.94 1.427Zm5.348-1.864v1.193h-4.171v-1.193h4.171Zm-3.052-1.83h1.486v7.224c0 .288.043.505.129.651.087.143.198.24.333.293.14.05.291.075.453.075.119 0 .224-.008.313-.025.09-.016.159-.03.209-.04l.268 1.228a2.917 2.917 0 0 1-.964.159 2.625 2.625 0 0 1-1.094-.208 1.88 1.88 0 0 1-.82-.677c-.209-.304-.313-.687-.313-1.148v-7.532Zm10.296 3.694-1.348.239a1.579 1.579 0 0 0-.268-.493 1.33 1.33 0 0 0-.487-.382c-.206-.1-.463-.15-.771-.15-.421 0-.772.095-1.054.284-.281.185-.422.426-.422.721 0 .255.094.46.283.616.189.156.494.284.915.383l1.213.278c.703.163 1.226.413 1.571.751s.517.777.517 1.318c0 .457-.133.865-.398 1.223-.262.354-.628.633-1.099.835-.467.202-1.009.303-1.625.303-.855 0-1.553-.182-2.093-.547-.541-.368-.872-.89-.995-1.566l1.437-.219c.09.375.274.658.552.851.278.189.641.283 1.089.283.487 0 .876-.101 1.168-.303.292-.206.438-.456.438-.751a.782.782 0 0 0-.269-.602c-.175-.162-.446-.285-.81-.367l-1.293-.284c-.712-.162-1.239-.421-1.581-.775-.338-.355-.507-.804-.507-1.348 0-.45.126-.845.378-1.183.252-.338.6-.602 1.044-.79.444-.193.953-.289 1.526-.289.826 0 1.475.179 1.949.537.474.355.787.83.94 1.427Zm5.488 8.636v-10.5h1.452v1.238h.124c.087-.16.211-.343.373-.552a2.12 2.12 0 0 1 .676-.547c.289-.159.67-.239 1.144-.239.616 0 1.167.156 1.65.468.484.311.864.76 1.139 1.347.278.586.418 1.292.418 2.118 0 .825-.138 1.533-.413 2.123-.275.586-.653 1.039-1.134 1.357a2.932 2.932 0 0 1-1.645.472c-.464 0-.844-.078-1.139-.234a2.164 2.164 0 0 1-.686-.546 4.302 4.302 0 0 1-.383-.557h-.089v4.052h-1.487Zm1.457-6.682c0 .537.078 1.007.234 1.412.156.404.381.721.676.949.295.226.656.338 1.084.338.444 0 .815-.117 1.113-.353.299-.238.524-.561.676-.969.156-.408.234-.867.234-1.377 0-.504-.076-.956-.229-1.357a2.075 2.075 0 0 0-.676-.95c-.298-.232-.671-.348-1.118-.348-.431 0-.796.111-1.094.333-.295.222-.519.532-.671.93-.153.397-.229.862-.229 1.392Zm10.475 3.972c-.752 0-1.4-.161-1.944-.482a3.269 3.269 0 0 1-1.252-1.367c-.292-.59-.438-1.281-.438-2.073 0-.783.146-1.472.438-2.069a3.393 3.393 0 0 1 1.232-1.397c.531-.334 1.151-.502 1.86-.502.431 0 .848.071 1.253.214.404.143.767.366 1.088.671.322.305.576.701.761 1.188.186.484.279 1.073.279 1.765v.527h-6.071v-1.113h4.614c0-.391-.08-.738-.239-1.039a1.801 1.801 0 0 0-.671-.721 1.873 1.873 0 0 0-1.004-.264c-.418 0-.782.103-1.094.308a2.079 2.079 0 0 0-.716.796 2.294 2.294 0 0 0-.248 1.059v.87c0 .51.089.944.268 1.302.182.358.436.632.761.821.324.185.704.278 1.138.278.282 0 .539-.04.771-.119a1.589 1.589 0 0 0 .989-.97l1.407.254a2.562 2.562 0 0 1-.606 1.089 2.961 2.961 0 0 1-1.089.721c-.434.169-.93.253-1.487.253Zm4.926-.154v-7.636h1.437v1.213h.079a1.85 1.85 0 0 1 .736-.97 2.112 2.112 0 0 1 1.203-.358 7.15 7.15 0 0 1 .632.035v1.422a2.598 2.598 0 0 0-.319-.055 3.058 3.058 0 0 0-.457-.035c-.351 0-.665.075-.94.224a1.667 1.667 0 0 0-.885 1.497V117h-1.486Zm11.937.149a2.958 2.958 0 0 1-1.651-.472c-.481-.318-.858-.771-1.133-1.357-.272-.59-.408-1.298-.408-2.123 0-.826.137-1.532.413-2.118.278-.587.659-1.036 1.143-1.347a2.97 2.97 0 0 1 1.646-.468c.474 0 .855.08 1.143.239.292.156.517.338.676.547.163.209.289.392.378.552h.09v-3.784h1.486V117h-1.452v-1.188h-.124a3.934 3.934 0 0 1-.388.557 2.141 2.141 0 0 1-.686.546c-.292.156-.669.234-1.133.234Zm.328-1.268c.427 0 .789-.112 1.084-.338.298-.228.523-.545.676-.949.155-.405.233-.875.233-1.412 0-.53-.076-.995-.228-1.392-.153-.398-.377-.708-.671-.93-.295-.222-.66-.333-1.094-.333-.448 0-.821.116-1.119.348a2.127 2.127 0 0 0-.676.95 3.874 3.874 0 0 0-.224 1.357c0 .51.077.969.229 1.377.152.408.378.731.676.969.302.236.673.353 1.114.353Zm7.799 1.288c-.484 0-.921-.089-1.313-.268a2.21 2.21 0 0 1-.929-.791c-.226-.345-.338-.767-.338-1.268 0-.431.083-.785.248-1.064.166-.278.39-.498.671-.661a3.53 3.53 0 0 1 .945-.368 9.352 9.352 0 0 1 1.064-.189l1.114-.129c.285-.036.492-.094.621-.174.129-.079.194-.209.194-.388v-.034c0-.435-.123-.771-.368-1.01-.242-.238-.603-.358-1.084-.358-.5 0-.895.111-1.183.333-.285.219-.482.463-.592.731l-1.397-.318c.166-.464.408-.838.726-1.124a2.947 2.947 0 0 1 1.109-.626 4.313 4.313 0 0 1 1.317-.199c.305 0 .628.037.97.11.345.069.666.198.964.387.302.189.549.459.741.811.192.348.288.8.288 1.357V117h-1.451v-1.044h-.06c-.096.192-.24.381-.432.567a2.33 2.33 0 0 1-.741.462c-.302.123-.663.184-1.084.184Zm.323-1.193c.411 0 .762-.081 1.054-.244.295-.162.519-.374.671-.636a1.65 1.65 0 0 0 .234-.85v-.985c-.053.053-.156.103-.308.15-.149.043-.32.081-.512.114-.193.03-.38.058-.562.084l-.458.06a3.674 3.674 0 0 0-.79.184c-.235.086-.424.21-.567.373-.139.159-.209.371-.209.636 0 .368.136.647.408.835.272.186.618.279 1.039.279Zm6.092 3.888c-.223 0-.425-.019-.607-.055a1.97 1.97 0 0 1-.408-.109l.358-1.218c.272.072.514.104.726.094.212-.01.4-.089.562-.239.166-.149.311-.392.437-.73l.184-.508-2.794-7.735h1.591l1.934 5.926h.08l1.934-5.926h1.596l-3.147 8.655a3.46 3.46 0 0 1-.557 1.009 2.159 2.159 0 0 1-.806.627 2.632 2.632 0 0 1-1.083.209Zm7.49-2.77a.968.968 0 0 1-.701-.288.964.964 0 0 1-.293-.706c0-.272.098-.504.293-.696a.96.96 0 0 1 .701-.293c.272 0 .506.098.701.293a.939.939 0 0 1 .294.696c0 .182-.047.35-.139.502-.09.149-.209.269-.358.358a.944.944 0 0 1-.498.134Z"/>
          <path fill="#6C47FF" d="M259.385 109.617a1.357 1.357 0 0 0-.586-1.014c-.342-.242-.786-.363-1.333-.363-.384 0-.714.058-.989.174a1.457 1.457 0 0 0-.631.472 1.146 1.146 0 0 0-.224.681c0 .213.048.397.144.552.099.156.234.289.403.398.169.106.356.196.561.269.206.072.413.134.622.183l.954.239c.385.09.754.211 1.109.363.358.152.678.345.96.577.285.232.51.512.676.84.166.328.248.713.248 1.153 0 .597-.152 1.122-.457 1.576-.305.451-.746.804-1.322 1.059-.574.252-1.268.378-2.084.378-.792 0-1.479-.123-2.063-.368-.58-.245-1.034-.603-1.362-1.074-.325-.47-.5-1.044-.527-1.72h1.815c.026.355.136.65.328.885s.442.411.75.527c.312.116.66.174 1.045.174.401 0 .752-.06 1.053-.179.305-.122.544-.292.716-.507a1.22 1.22 0 0 0 .264-.766.97.97 0 0 0-.234-.656 1.715 1.715 0 0 0-.641-.437 6.125 6.125 0 0 0-.955-.319l-1.158-.298c-.839-.215-1.501-.542-1.989-.979-.484-.441-.726-1.026-.726-1.755 0-.6.163-1.125.488-1.576.328-.451.774-.801 1.337-1.049.564-.252 1.202-.378 1.914-.378.723 0 1.356.126 1.899.378.547.248.976.595 1.288 1.039.311.441.472.948.482 1.521h-1.775Zm7.292-.253v1.392h-4.39v-1.392h4.39Zm-3.306-1.83h1.8v7.169c0 .242.036.428.109.557a.59.59 0 0 0 .299.258c.122.047.258.07.407.07a2.138 2.138 0 0 0 .527-.07l.304 1.407c-.097.034-.234.07-.413.11-.176.04-.391.063-.646.069a2.924 2.924 0 0 1-1.218-.203 1.895 1.895 0 0 1-.86-.706c-.209-.319-.312-.716-.309-1.194v-7.467Zm7.009 9.62c-.484 0-.92-.086-1.308-.258a2.138 2.138 0 0 1-.914-.776c-.222-.341-.333-.762-.333-1.263 0-.431.079-.787.238-1.069.159-.281.376-.507.651-.676a3.32 3.32 0 0 1 .93-.383 7.528 7.528 0 0 1 1.079-.193c.447-.047.81-.088 1.089-.125.278-.04.48-.099.606-.179.13-.083.194-.21.194-.383v-.029c0-.375-.111-.665-.333-.87-.222-.206-.542-.309-.959-.309-.441 0-.791.096-1.049.289a1.42 1.42 0 0 0-.517.681l-1.681-.239c.133-.464.351-.852.656-1.163.305-.315.678-.55 1.119-.706a4.283 4.283 0 0 1 1.462-.239c.368 0 .734.043 1.098.129a3.11 3.11 0 0 1 1 .428c.301.196.543.462.726.8.185.339.278.761.278 1.268V117h-1.73v-1.049h-.06a2.195 2.195 0 0 1-.462.597 2.242 2.242 0 0 1-.741.442 2.993 2.993 0 0 1-1.039.164Zm.467-1.322c.362 0 .675-.072.94-.214.265-.146.469-.338.611-.577.146-.238.219-.499.219-.78v-.9a.853.853 0 0 1-.288.129c-.133.04-.282.075-.448.104-.165.03-.329.057-.492.08l-.422.06a3.105 3.105 0 0 0-.721.179c-.212.083-.38.199-.502.348-.123.145-.184.334-.184.566 0 .332.121.582.363.751.242.169.55.254.924.254Zm5.375 1.168v-7.636h1.745v1.272h.079c.139-.44.378-.78.716-1.019a1.97 1.97 0 0 1 1.168-.363c.1 0 .211.005.333.015.126.007.231.018.314.035v1.656a1.883 1.883 0 0 0-.363-.07 3.38 3.38 0 0 0-.473-.035 1.81 1.81 0 0 0-.884.214 1.558 1.558 0 0 0-.612.582 1.638 1.638 0 0 0-.224.86V117h-1.799Zm9.774-7.636v1.392h-4.39v-1.392h4.39Zm-3.306-1.83h1.799v7.169c0 .242.037.428.11.557a.584.584 0 0 0 .298.258c.123.047.259.07.408.07a2.231 2.231 0 0 0 .527-.07l.303 1.407c-.096.034-.234.07-.413.11-.175.04-.391.063-.646.069a2.924 2.924 0 0 1-1.218-.203 1.9 1.9 0 0 1-.86-.706c-.209-.319-.312-.716-.308-1.194v-7.467Zm9.86 9.466-2.158-7.636h1.834l1.343 5.369h.069l1.372-5.369h1.815l1.372 5.339h.075l1.322-5.339h1.84L299.271 117h-1.874l-1.432-5.161h-.104L294.429 117h-1.879Zm10.14 0v-7.636h1.8V117h-1.8Zm.905-8.72c-.285 0-.53-.095-.736-.284a.914.914 0 0 1-.308-.691c0-.271.103-.502.308-.691.206-.192.451-.288.736-.288.289 0 .534.096.736.288.205.189.308.42.308.691a.914.914 0 0 1-.308.691 1.038 1.038 0 0 1-.736.284Zm6.559 1.084v1.392h-4.39v-1.392h4.39Zm-3.306-1.83h1.8v7.169c0 .242.036.428.109.557a.588.588 0 0 0 .298.258c.123.047.259.07.408.07a2.231 2.231 0 0 0 .527-.07l.303 1.407a3.87 3.87 0 0 1-.412.11c-.176.04-.392.063-.647.069a2.924 2.924 0 0 1-1.218-.203 1.9 1.9 0 0 1-.86-.706c-.209-.319-.311-.716-.308-1.194v-7.467Zm6.775 4.992V117h-1.8v-10.182h1.76v3.843h.09c.179-.431.455-.77.83-1.019.378-.252.858-.378 1.442-.378.53 0 .992.111 1.387.333.394.222.699.547.914.975.219.427.329.949.329 1.566V117h-1.8v-4.584c0-.514-.133-.913-.398-1.198-.262-.288-.63-.432-1.104-.432a1.74 1.74 0 0 0-.855.208 1.46 1.46 0 0 0-.586.592c-.14.258-.209.572-.209.94ZM324.235 117l4.33-8.571v-.07h-5.026v-1.541h6.935v1.576L326.149 117h-1.914Zm14.17.134c-.6 0-1.137-.154-1.611-.462-.474-.308-.848-.756-1.123-1.342-.275-.587-.413-1.3-.413-2.138 0-.849.139-1.565.418-2.148.281-.587.661-1.029 1.138-1.327a2.922 2.922 0 0 1 1.596-.453c.447 0 .815.076 1.104.229.288.149.517.33.686.542.169.209.3.406.393.591h.074v-3.808h1.805V117h-1.77v-1.203h-.109a3.109 3.109 0 0 1-.403.591 2.203 2.203 0 0 1-.696.527c-.289.146-.651.219-1.089.219Zm.502-1.476c.381 0 .706-.103.975-.309.268-.208.472-.498.611-.87.139-.371.209-.803.209-1.297 0-.494-.07-.923-.209-1.288-.136-.364-.338-.648-.606-.85-.266-.202-.592-.303-.98-.303-.401 0-.736.104-1.004.313a1.894 1.894 0 0 0-.607.865 3.63 3.63 0 0 0-.203 1.263c0 .477.067.903.203 1.278.14.371.343.664.612.879.272.213.605.319.999.319Zm7.68 1.496c-.484 0-.92-.086-1.308-.258a2.138 2.138 0 0 1-.914-.776c-.222-.341-.333-.762-.333-1.263 0-.431.079-.787.238-1.069.159-.281.376-.507.652-.676.275-.169.585-.296.929-.383a7.528 7.528 0 0 1 1.079-.193c.447-.047.81-.088 1.089-.125.278-.04.48-.099.606-.179.13-.083.194-.21.194-.383v-.029c0-.375-.111-.665-.333-.87-.222-.206-.542-.309-.959-.309-.441 0-.791.096-1.049.289a1.42 1.42 0 0 0-.517.681l-1.681-.239c.133-.464.352-.852.656-1.163.305-.315.678-.55 1.119-.706a4.283 4.283 0 0 1 1.462-.239c.368 0 .734.043 1.098.129a3.11 3.11 0 0 1 1 .428c.301.196.543.462.726.8.185.339.278.761.278 1.268V117h-1.73v-1.049h-.06a2.195 2.195 0 0 1-.462.597 2.242 2.242 0 0 1-.741.442 2.993 2.993 0 0 1-1.039.164Zm.467-1.322c.362 0 .675-.072.94-.214.265-.146.469-.338.611-.577.146-.238.219-.499.219-.78v-.9a.853.853 0 0 1-.288.129c-.133.04-.282.075-.448.104-.165.03-.329.057-.492.08l-.422.06a3.105 3.105 0 0 0-.721.179c-.212.083-.38.199-.502.348-.123.145-.184.334-.184.566 0 .332.121.582.363.751.242.169.55.254.924.254Zm6.22 4.032c-.245 0-.473-.02-.681-.06a2.55 2.55 0 0 1-.493-.129l.418-1.402c.262.076.496.112.701.109a.858.858 0 0 0 .542-.194c.159-.122.293-.328.403-.616l.154-.413-2.769-7.795h1.909l1.76 5.767h.079l1.765-5.767h1.914l-3.057 8.561c-.143.404-.332.75-.567 1.039a2.305 2.305 0 0 1-.865.666c-.338.156-.743.234-1.213.234Zm12.983-8.482-1.641.179a1.308 1.308 0 0 0-.243-.467 1.202 1.202 0 0 0-.458-.353 1.655 1.655 0 0 0-.705-.134c-.375 0-.69.081-.945.243-.252.163-.376.373-.373.632a.66.66 0 0 0 .244.541c.169.14.447.254.835.343l1.302.279c.723.156 1.26.403 1.611.741.355.338.534.78.537 1.327a2.077 2.077 0 0 1-.422 1.273c-.276.364-.658.649-1.149.855-.49.205-1.054.308-1.69.308-.935 0-1.687-.195-2.257-.587-.57-.394-.91-.942-1.019-1.645l1.754-.169c.08.345.249.605.508.78.258.176.595.264 1.009.264.427 0 .77-.088 1.029-.264.262-.175.393-.392.393-.651a.68.68 0 0 0-.254-.542c-.166-.142-.424-.252-.775-.328l-1.303-.273c-.732-.153-1.274-.41-1.626-.771-.351-.365-.525-.825-.522-1.382a1.962 1.962 0 0 1 .383-1.223c.262-.348.625-.617 1.089-.805.467-.193 1.006-.289 1.616-.289.895 0 1.599.191 2.113.572.517.381.836.896.959 1.546ZM25.793 126.364v1.392h-4.515v-1.392h4.515ZM22.407 134v-8.357c0-.514.106-.942.318-1.283a2.02 2.02 0 0 1 .865-.766 2.804 2.804 0 0 1 1.203-.253c.312 0 .589.025.83.074.242.05.421.095.537.135l-.357 1.392a3.107 3.107 0 0 0-.289-.07 1.774 1.774 0 0 0-.388-.04c-.334 0-.571.082-.71.244-.136.159-.204.388-.204.686V134h-1.805Zm4.795 0v-7.636h1.745v1.272h.08c.139-.44.377-.78.715-1.019a1.97 1.97 0 0 1 1.169-.363c.1 0 .21.005.333.015.126.007.23.018.313.035v1.656a1.858 1.858 0 0 0-.363-.07 3.37 3.37 0 0 0-.472-.035c-.328 0-.623.071-.885.214a1.56 1.56 0 0 0-.611.582 1.63 1.63 0 0 0-.224.86V134h-1.8Zm8.617.149c-.766 0-1.427-.159-1.984-.477a3.238 3.238 0 0 1-1.277-1.362c-.299-.59-.448-1.285-.448-2.083 0-.786.15-1.475.448-2.069a3.39 3.39 0 0 1 1.263-1.392c.54-.334 1.174-.502 1.904-.502.47 0 .914.076 1.332.229.42.149.792.381 1.114.696.324.315.58.716.765 1.203.186.484.279 1.061.279 1.73v.552h-6.26v-1.213h4.535a1.938 1.938 0 0 0-.224-.92 1.626 1.626 0 0 0-.612-.641 1.717 1.717 0 0 0-.905-.234c-.367 0-.69.09-.969.269a1.84 1.84 0 0 0-.651.696c-.153.285-.23.598-.234.939v1.059c0 .444.081.826.244 1.144.162.315.39.557.68.726a2.05 2.05 0 0 0 1.025.248c.262 0 .499-.036.71-.109a1.57 1.57 0 0 0 .553-.333c.156-.146.273-.327.353-.542l1.68.189a2.617 2.617 0 0 1-.606 1.163 2.968 2.968 0 0 1-1.134.766c-.46.179-.988.268-1.58.268Zm8.299 0c-.766 0-1.427-.159-1.984-.477a3.238 3.238 0 0 1-1.278-1.362c-.298-.59-.447-1.285-.447-2.083 0-.786.15-1.475.447-2.069a3.39 3.39 0 0 1 1.263-1.392c.54-.334 1.175-.502 1.904-.502.471 0 .915.076 1.333.229.42.149.792.381 1.113.696.325.315.58.716.766 1.203.186.484.279 1.061.279 1.73v.552h-6.26v-1.213h4.534a1.938 1.938 0 0 0-.223-.92 1.625 1.625 0 0 0-.612-.641 1.717 1.717 0 0 0-.905-.234c-.368 0-.69.09-.97.269a1.84 1.84 0 0 0-.65.696 2 2 0 0 0-.234.939v1.059c0 .444.081.826.243 1.144.163.315.39.557.682.726.291.165.633.248 1.024.248.262 0 .499-.036.71-.109a1.57 1.57 0 0 0 .553-.333c.155-.146.273-.327.352-.542l1.68.189a2.616 2.616 0 0 1-.606 1.163 2.967 2.967 0 0 1-1.133.766c-.46.179-.988.268-1.581.268Zm12.204-7.785v1.392h-4.39v-1.392h4.39Zm-3.306-1.83h1.8v7.169c0 .242.036.428.109.557a.587.587 0 0 0 .298.258c.123.047.259.07.408.07a2.196 2.196 0 0 0 .527-.07l.303 1.407a3.83 3.83 0 0 1-.413.11 3.3 3.3 0 0 1-.646.069 2.925 2.925 0 0 1-1.218-.203 1.9 1.9 0 0 1-.86-.706c-.209-.319-.311-.716-.308-1.194v-7.467ZM57.827 134v-7.636h1.745v1.272h.08c.139-.44.377-.78.715-1.019a1.97 1.97 0 0 1 1.169-.363c.1 0 .21.005.333.015.126.007.23.018.313.035v1.656a1.858 1.858 0 0 0-.363-.07 3.37 3.37 0 0 0-.472-.035c-.328 0-.623.071-.885.214a1.56 1.56 0 0 0-.612.582 1.638 1.638 0 0 0-.223.86V134h-1.8Zm5.55 0v-7.636h1.8V134h-1.8Zm.906-8.72a1.05 1.05 0 0 1-.736-.284.912.912 0 0 1-.308-.691c0-.271.102-.502.308-.691a1.04 1.04 0 0 1 .736-.288c.288 0 .533.096.736.288.205.189.308.42.308.691a.912.912 0 0 1-.308.691 1.039 1.039 0 0 1-.736.284Zm4.943 8.874c-.484 0-.92-.086-1.308-.258a2.14 2.14 0 0 1-.915-.776c-.222-.341-.333-.762-.333-1.263 0-.431.08-.787.239-1.069.159-.281.376-.507.651-.676a3.31 3.31 0 0 1 .93-.383 7.52 7.52 0 0 1 1.079-.193c.447-.047.81-.088 1.088-.125.279-.04.481-.099.607-.179.13-.083.194-.21.194-.383v-.029c0-.375-.111-.665-.333-.87-.222-.206-.542-.309-.96-.309-.44 0-.79.096-1.049.289a1.428 1.428 0 0 0-.517.681l-1.68-.239c.132-.464.351-.852.656-1.163.305-.315.678-.55 1.119-.706.44-.159.928-.239 1.461-.239.368 0 .734.043 1.1.129a3.1 3.1 0 0 1 .998.428c.302.196.544.462.726.8.186.339.279.761.279 1.268V134h-1.73v-1.049h-.06a2.22 2.22 0 0 1-.463.597 2.233 2.233 0 0 1-.74.442 2.994 2.994 0 0 1-1.04.164Zm.467-1.322c.361 0 .675-.072.94-.214a1.58 1.58 0 0 0 .611-.577c.146-.238.219-.499.219-.78v-.9a.86.86 0 0 1-.288.129c-.133.04-.282.075-.448.104-.166.03-.33.057-.492.08l-.423.06a3.114 3.114 0 0 0-.72.179 1.2 1.2 0 0 0-.503.348.85.85 0 0 0-.184.566c0 .332.121.582.363.751.242.169.55.254.925.254Zm7.174-9.014V134h-1.8v-10.182h1.8Zm2.96 10.291c-.302 0-.56-.106-.776-.318a1.029 1.029 0 0 1-.318-.775 1.018 1.018 0 0 1 .318-.766c.215-.212.474-.318.775-.318.292 0 .546.106.761.318a1.045 1.045 0 0 1 .174 1.317 1.14 1.14 0 0 1-.398.398 1.036 1.036 0 0 1-.537.144Z"/>
          <path fill="#737373" d="M164.944 223.659v-9.75h1.348v1.15h.115c.08-.148.195-.319.346-.513.151-.194.36-.363.628-.508.268-.147.622-.221 1.062-.221.572 0 1.083.144 1.532.434.45.289.802.706 1.058 1.251.258.545.387 1.2.387 1.966 0 .767-.127 1.424-.383 1.972-.255.544-.606.964-1.052 1.26a2.73 2.73 0 0 1-1.528.438c-.431 0-.784-.072-1.057-.216a2.008 2.008 0 0 1-.638-.508 3.97 3.97 0 0 1-.355-.517h-.083v3.762h-1.38Zm1.352-6.204c0 .498.072.935.217 1.311.145.375.354.669.628.881.274.21.609.314 1.006.314.413 0 .757-.109 1.034-.327.277-.222.487-.522.628-.901.145-.378.217-.804.217-1.278 0-.468-.071-.888-.212-1.261a1.94 1.94 0 0 0-.628-.882c-.277-.215-.623-.323-1.039-.323-.4 0-.738.103-1.015.31a1.894 1.894 0 0 0-.623.863c-.142.369-.213.8-.213 1.293Zm9.727 3.688c-.699 0-1.3-.149-1.805-.448a3.028 3.028 0 0 1-1.163-1.269c-.271-.548-.407-1.19-.407-1.925 0-.727.136-1.367.407-1.921a3.151 3.151 0 0 1 1.145-1.297c.492-.311 1.068-.466 1.726-.466.4 0 .788.066 1.163.198.376.133.713.34 1.011.623.299.284.534.651.707 1.104.172.449.258.995.258 1.639v.489h-5.636v-1.034h4.284c0-.363-.074-.685-.222-.965a1.674 1.674 0 0 0-.623-.669 1.745 1.745 0 0 0-.933-.245 1.8 1.8 0 0 0-1.015.286 1.924 1.924 0 0 0-.665.739 2.128 2.128 0 0 0-.231.983v.808c0 .474.083.877.249 1.21.17.332.405.586.707.761.301.173.654.259 1.057.259.262 0 .5-.037.715-.111a1.478 1.478 0 0 0 .919-.9l1.307.235a2.366 2.366 0 0 1-.564 1.011c-.267.287-.604.51-1.011.67a3.78 3.78 0 0 1-1.38.235Zm4.574-.143v-7.091h1.334v1.127h.074c.129-.382.357-.682.683-.901a1.96 1.96 0 0 1 1.117-.332 6.07 6.07 0 0 1 .587.032v1.321a2.276 2.276 0 0 0-.296-.051 2.756 2.756 0 0 0-.425-.033c-.326 0-.617.07-.872.208a1.553 1.553 0 0 0-.822 1.39V221h-1.38Zm8.43 0v-7.091h1.324v1.154h.088c.148-.391.39-.695.725-.914.335-.221.737-.332 1.205-.332.474 0 .871.111 1.191.332.323.222.562.526.715.914h.074c.17-.378.439-.68.808-.905.37-.227.81-.341 1.321-.341.643 0 1.168.201 1.574.605.409.403.614 1.011.614 1.823V221h-1.381v-4.626c0-.48-.13-.828-.392-1.043a1.43 1.43 0 0 0-.937-.323c-.449 0-.799.138-1.048.415-.249.274-.374.627-.374 1.057V221h-1.376v-4.713c0-.385-.12-.694-.36-.928-.24-.234-.552-.351-.937-.351-.262 0-.503.069-.725.208a1.53 1.53 0 0 0-.531.567 1.746 1.746 0 0 0-.198.845V221h-1.38Zm14.476.143c-.665 0-1.245-.152-1.741-.457a3.087 3.087 0 0 1-1.154-1.279c-.274-.548-.411-1.188-.411-1.92 0-.736.137-1.379.411-1.93a3.074 3.074 0 0 1 1.154-1.283c.496-.305 1.076-.457 1.741-.457.664 0 1.245.152 1.74.457.496.304.88.732 1.154 1.283.274.551.411 1.194.411 1.93 0 .732-.137 1.372-.411 1.92a3.08 3.08 0 0 1-1.154 1.279c-.495.305-1.076.457-1.74.457Zm.004-1.159c.431 0 .788-.113 1.071-.341a2 2 0 0 0 .628-.91 3.6 3.6 0 0 0 .208-1.251c0-.452-.069-.868-.208-1.246a2.029 2.029 0 0 0-.628-.919c-.283-.231-.64-.346-1.071-.346-.434 0-.794.115-1.08.346a2.06 2.06 0 0 0-.632.919 3.66 3.66 0 0 0-.204 1.246c0 .456.068.873.204 1.251.138.379.349.682.632.91.286.228.646.341 1.08.341Zm6.222-3.194V221h-1.38v-7.091h1.325v1.154h.087c.164-.375.419-.677.767-.905.351-.227.792-.341 1.325-.341.483 0 .906.101 1.269.304.363.2.645.499.845.896.2.397.3.888.3 1.473V221h-1.38v-4.344c0-.514-.134-.916-.402-1.205-.268-.292-.635-.439-1.103-.439-.32 0-.605.07-.854.208a1.502 1.502 0 0 0-.587.61c-.141.264-.212.584-.212.96Zm9.699-2.881v1.108h-3.873v-1.108h3.873Zm-2.834-1.699h1.38v6.708c0 .268.04.469.12.605.08.132.183.223.309.272.13.046.27.069.421.069.11 0 .207-.007.29-.023.084-.015.148-.027.194-.037l.25 1.141c-.08.03-.194.061-.342.092a2.69 2.69 0 0 1-.554.055 2.426 2.426 0 0 1-1.016-.194 1.737 1.737 0 0 1-.761-.627c-.194-.284-.291-.639-.291-1.067v-6.994Zm5.894 4.58V221h-1.38v-9.455h1.361v3.518h.088c.166-.381.42-.685.762-.909.342-.225.788-.337 1.339-.337.486 0 .911.1 1.274.3.366.2.649.498.849.895.203.394.305.887.305 1.478V221h-1.38v-4.344c0-.52-.134-.923-.402-1.21-.268-.289-.64-.434-1.117-.434-.326 0-.619.07-.877.208a1.5 1.5 0 0 0-.605.61c-.145.264-.217.584-.217.96Z"/>
          <path fill="#000" d="M57.356 212.051v-8.476l21.253-33.484h7.309v11.733h-4.326l-13.398 21.204v.397h30.202v8.626h-41.04ZM81.79 221v-11.534l.2-3.754v-35.621h10.091V221h-10.29Zm42.197-51.605c2.618 0 5.137.439 7.556 1.317 2.436.879 4.607 2.279 6.513 4.201 1.923 1.923 3.439 4.475 4.549 7.657 1.127 3.165 1.699 7.051 1.715 11.658 0 4.325-.488 8.187-1.466 11.584-.961 3.38-2.345 6.256-4.152 8.626-1.806 2.369-3.985 4.176-6.537 5.419-2.552 1.226-5.403 1.839-8.551 1.839-3.398 0-6.397-.655-8.999-1.964-2.602-1.326-4.698-3.124-6.289-5.394-1.574-2.287-2.527-4.856-2.859-7.706h10.615c.414 1.856 1.284 3.298 2.61 4.325 1.326 1.011 2.966 1.517 4.922 1.517 3.314 0 5.833-1.442 7.557-4.326 1.723-2.9 2.593-6.869 2.61-11.907h-.348a12.185 12.185 0 0 1-3.083 3.853c-1.292 1.061-2.776 1.881-4.449 2.461-1.658.58-3.422.87-5.295.87-3 0-5.676-.704-8.029-2.113-2.353-1.408-4.21-3.347-5.568-5.816-1.359-2.469-2.039-5.287-2.039-8.452-.016-3.414.771-6.455 2.362-9.123 1.591-2.668 3.811-4.756 6.662-6.264 2.867-1.525 6.198-2.279 9.993-2.262Zm.074 8.452c-1.674 0-3.165.397-4.474 1.193a8.806 8.806 0 0 0-3.083 3.206c-.745 1.343-1.11 2.843-1.093 4.5 0 1.674.364 3.182 1.093 4.524a8.737 8.737 0 0 0 3.033 3.182c1.293.779 2.768 1.168 4.425 1.168 1.243 0 2.394-.232 3.455-.696a8.498 8.498 0 0 0 2.759-1.914 9.177 9.177 0 0 0 1.865-2.859 8.857 8.857 0 0 0 .671-3.43c-.017-1.608-.398-3.083-1.144-4.425a8.733 8.733 0 0 0-3.082-3.231c-1.309-.812-2.784-1.218-4.425-1.218Zm-90.518 33.335v-31.818h2.039v31.818h-2.039Zm5.88-21.639c-.117-1.085-.606-1.931-1.467-2.536-.854-.604-1.964-.907-3.331-.907-.962 0-1.786.145-2.474.435-.688.29-1.214.684-1.578 1.181a2.871 2.871 0 0 0-.56 1.703c0 .53.12.99.36 1.379.25.39.585.721 1.008.995.422.265.89.488 1.404.671a15.36 15.36 0 0 0 1.554.46l2.386.596c.961.224 1.885.526 2.772.908a9.76 9.76 0 0 1 2.399 1.441 6.402 6.402 0 0 1 1.69 2.101c.414.82.621 1.781.621 2.883 0 1.492-.38 2.805-1.143 3.94-.762 1.127-1.864 2.01-3.306 2.648-1.434.629-3.17.944-5.208.944-1.98 0-3.7-.306-5.158-.919-1.45-.614-2.585-1.508-3.405-2.685-.813-1.177-1.252-2.61-1.318-4.301h4.537c.066.887.34 1.625.82 2.213.48.588 1.106 1.027 1.877 1.317.779.29 1.649.435 2.61.435 1.002 0 1.88-.149 2.635-.447.762-.307 1.359-.729 1.79-1.268.43-.547.65-1.185.658-1.914-.008-.663-.203-1.21-.584-1.641-.381-.439-.916-.803-1.603-1.093a15.372 15.372 0 0 0-2.387-.796l-2.896-.746c-2.096-.538-3.753-1.354-4.971-2.448-1.21-1.102-1.815-2.565-1.815-4.387 0-1.5.406-2.814 1.218-3.94.82-1.127 1.935-2.002 3.344-2.623 1.408-.63 3.003-.945 4.785-.945 1.806 0 3.389.315 4.748.945 1.367.621 2.44 1.487 3.219 2.598.779 1.102 1.18 2.369 1.205 3.803h-4.437Z"/>
          <path stroke="#D3D3D3" d="M22 451.5h350.837"/>
          <ellipse cx="34.875" cy="419.5" fill="#6C47FF" rx="11.797" ry="11.5"/>
          <path stroke="#fff" d="M0-.5h4.298" transform="scale(1.01267 .98716) rotate(45 -498.636 248.8)"/>
          <path stroke="#fff" d="M0-.5h10.028" transform="matrix(-.71607 .69803 -.71607 -.69803 40.517 416)"/>
          <path fill="#727272" d="M72.108 417.29h-2.125a2.642 2.642 0 0 0-.335-.926 2.5 2.5 0 0 0-.608-.694 2.548 2.548 0 0 0-.83-.426 3.25 3.25 0 0 0-.994-.147c-.633 0-1.193.159-1.682.477-.489.314-.871.776-1.148 1.386-.276.606-.414 1.347-.414 2.222 0 .89.138 1.64.414 2.25.28.606.663 1.064 1.148 1.375.489.307 1.047.46 1.676.46.349 0 .675-.045.978-.136a2.68 2.68 0 0 0 .823-.415 2.53 2.53 0 0 0 .972-1.58l2.125.012a4.578 4.578 0 0 1-.517 1.557 4.614 4.614 0 0 1-1.028 1.284 4.75 4.75 0 0 1-1.49.863 5.543 5.543 0 0 1-1.891.307c-1.023 0-1.936-.237-2.739-.71-.803-.474-1.435-1.157-1.898-2.051-.462-.894-.693-1.966-.693-3.216 0-1.254.233-2.326.7-3.216.465-.894 1.1-1.578 1.902-2.051.804-.474 1.713-.71 2.728-.71.647 0 1.25.09 1.807.272a4.636 4.636 0 0 1 1.488.801c.436.349.794.777 1.074 1.284.284.504.47 1.08.557 1.728Zm3.896 2.596V425h-2.057v-11.636h2.012v4.392h.102a2.52 2.52 0 0 1 .949-1.165c.432-.288.981-.432 1.648-.432.606 0 1.134.127 1.585.381.45.254.8.625 1.045 1.113.25.489.375 1.086.375 1.79V425h-2.056v-5.239c0-.587-.152-1.043-.455-1.369-.3-.33-.72-.494-1.261-.494-.364 0-.69.079-.978.238a1.677 1.677 0 0 0-.67.676c-.16.296-.239.654-.239 1.074Zm10.267 5.29a3.64 3.64 0 0 1-1.494-.295 2.443 2.443 0 0 1-1.046-.887c-.253-.39-.38-.871-.38-1.443 0-.492.09-.899.273-1.221.181-.322.43-.58.744-.773a3.776 3.776 0 0 1 1.062-.438 8.613 8.613 0 0 1 1.233-.221c.512-.053.927-.101 1.245-.142.318-.046.549-.114.693-.205.148-.095.221-.24.221-.437v-.034c0-.428-.127-.76-.38-.995-.254-.235-.62-.352-1.097-.352-.504 0-.903.11-1.199.329a1.64 1.64 0 0 0-.59.779l-1.921-.273c.151-.53.401-.973.75-1.329.348-.36.775-.629 1.278-.807a4.886 4.886 0 0 1 1.67-.273c.421 0 .84.049 1.257.148.416.098.797.261 1.141.488.345.224.622.529.83.915.212.387.318.87.318 1.449V425h-1.977v-1.199h-.068a2.5 2.5 0 0 1-.529.682 2.551 2.551 0 0 1-.846.506c-.337.125-.733.187-1.188.187Zm.534-1.511c.413 0 .771-.082 1.074-.245a1.8 1.8 0 0 0 .7-.659c.166-.272.25-.57.25-.892v-1.028a.978.978 0 0 1-.33.148 4.753 4.753 0 0 1-.512.119c-.19.034-.377.064-.562.091l-.483.068c-.307.042-.582.11-.824.205a1.366 1.366 0 0 0-.574.397c-.14.167-.21.383-.21.648 0 .379.138.665.415.858.276.193.628.29 1.056.29Zm8.2-3.779V425h-2.058v-8.727h1.966v1.483h.103c.2-.489.52-.877.96-1.165.443-.288.99-.432 1.642-.432.602 0 1.127.129 1.574.386.45.258.799.631 1.045 1.12.25.488.373 1.081.37 1.778V425H98.55v-5.239c0-.583-.152-1.039-.455-1.369-.3-.33-.714-.494-1.244-.494-.36 0-.68.079-.96.238a1.661 1.661 0 0 0-.654.676c-.155.296-.233.654-.233 1.074Zm9.749 0V425h-2.057v-8.727h1.966v1.483h.103c.2-.489.52-.877.96-1.165.443-.288.99-.432 1.642-.432.602 0 1.127.129 1.574.386a2.6 2.6 0 0 1 1.045 1.12c.25.488.373 1.081.37 1.778V425H108.3v-5.239c0-.583-.152-1.039-.455-1.369-.299-.33-.714-.494-1.244-.494-.36 0-.68.079-.96.238a1.659 1.659 0 0 0-.654.676c-.155.296-.233.654-.233 1.074Zm11.557 5.284c-.875 0-1.631-.181-2.267-.545a3.686 3.686 0 0 1-1.46-1.557c-.341-.674-.512-1.468-.512-2.38 0-.898.171-1.686.512-2.364a3.872 3.872 0 0 1 1.443-1.591c.617-.383 1.343-.574 2.176-.574a4.41 4.41 0 0 1 1.523.261c.481.171.905.436 1.273.796.371.36.662.818.875 1.375.212.553.318 1.212.318 1.977v.631h-7.154v-1.387h5.182a2.214 2.214 0 0 0-.256-1.051 1.858 1.858 0 0 0-.698-.733 1.968 1.968 0 0 0-1.034-.267c-.421 0-.79.103-1.108.307a2.11 2.11 0 0 0-.745.796 2.29 2.29 0 0 0-.267 1.074v1.21c0 .507.093.943.279 1.307.185.359.445.636.778.829.333.189.724.284 1.17.284.3 0 .571-.041.813-.125.242-.087.453-.214.631-.381.178-.166.312-.373.403-.619l1.921.216a3.003 3.003 0 0 1-.694 1.33 3.388 3.388 0 0 1-1.295.875c-.527.204-1.129.306-1.807.306Zm7.678-11.806V425h-2.057v-11.636h2.057Zm9.012 5.216-1.875.204a1.504 1.504 0 0 0-.278-.534 1.376 1.376 0 0 0-.523-.403c-.219-.103-.488-.154-.807-.154-.428 0-.787.093-1.079.279-.288.185-.43.426-.426.721a.754.754 0 0 0 .278.619c.193.16.512.29.955.393l1.488.318c.826.178 1.44.46 1.841.846.406.387.61.892.614 1.517a2.377 2.377 0 0 1-.483 1.455c-.314.417-.752.742-1.313.977-.56.235-1.204.352-1.931.352-1.069 0-1.928-.223-2.58-.67-.651-.451-1.04-1.078-1.165-1.881l2.006-.193c.091.394.284.691.58.892.295.201.679.301 1.153.301.489 0 .881-.1 1.176-.301.299-.201.449-.449.449-.744a.774.774 0 0 0-.29-.619c-.189-.163-.485-.288-.886-.375l-1.489-.313c-.837-.174-1.456-.468-1.858-.881-.401-.416-.6-.943-.596-1.579-.004-.538.142-1.004.437-1.398.299-.398.714-.704 1.244-.92.535-.22 1.15-.33 1.847-.33 1.023 0 1.828.218 2.415.653.591.436.956 1.025 1.096 1.768Z"/>
          <path fill="#333" d="M355.642 425h-2.25l4.097-11.636h2.602L364.193 425h-2.25l-3.108-9.25h-.091l-3.102 9.25Zm.074-4.562h6.136v1.693h-6.136v-1.693Zm11.976-7.074V425h-2.057v-11.636h2.057Zm4.172 0V425h-2.057v-11.636h2.057Z"/>
          <path stroke="#D3D3D3" d="M22 508.5h351"/>
          <ellipse cx="34.797" cy="480.5" fill="#6C47FF" rx="11.797" ry="11.5"/>
          <path stroke="#fff" d="M0-.5h4.298" transform="matrix(.71607 .69803 -.71607 .69803 30.18 481)"/>
          <path stroke="#fff" d="M0-.5h10.028" transform="matrix(-.71607 .69803 -.71607 -.69803 40.44 477)"/>
          <path fill="#727272" d="M64.256 474.364V486h-2.108v-11.636h2.108Zm4.248 6.522V486h-2.057v-8.727h1.966v1.483h.103c.2-.489.52-.877.96-1.165.443-.288.99-.432 1.642-.432.602 0 1.127.129 1.574.386.45.258.799.631 1.045 1.12.25.488.373 1.081.37 1.778V486H72.05v-5.239c0-.583-.152-1.039-.455-1.369-.3-.33-.714-.494-1.244-.494-.36 0-.68.079-.96.238a1.661 1.661 0 0 0-.654.676c-.155.296-.233.654-.233 1.074Zm12.051-3.613v1.591h-5.017v-1.591h5.017Zm-3.778-2.091h2.057v8.193c0 .277.041.489.125.636.087.144.2.243.34.296.14.053.296.079.467.079.128 0 .246-.009.352-.028.11-.019.193-.036.25-.051l.347 1.608a4.77 4.77 0 0 1-.472.125 3.85 3.85 0 0 1-.739.079 3.348 3.348 0 0 1-1.392-.233 2.166 2.166 0 0 1-.983-.806c-.238-.364-.356-.819-.352-1.364v-8.534Zm9.269 10.988c-.876 0-1.631-.181-2.268-.545a3.689 3.689 0 0 1-1.46-1.557c-.34-.674-.511-1.468-.511-2.38 0-.898.17-1.686.511-2.364a3.867 3.867 0 0 1 1.443-1.591c.618-.383 1.343-.574 2.177-.574a4.41 4.41 0 0 1 1.522.261c.481.171.906.436 1.273.796.371.36.663.818.875 1.375.212.553.318 1.212.318 1.977v.631h-7.153v-1.387h5.181a2.215 2.215 0 0 0-.255-1.051c-.167-.31-.4-.555-.699-.733a1.965 1.965 0 0 0-1.034-.267c-.42 0-.79.103-1.108.307a2.115 2.115 0 0 0-.744.796 2.285 2.285 0 0 0-.267 1.074v1.21c0 .507.092.943.278 1.307.186.359.445.636.778.829.334.189.724.284 1.17.284.3 0 .57-.041.813-.125.243-.087.453-.214.631-.381.178-.166.313-.373.404-.619l1.92.216a2.994 2.994 0 0 1-.693 1.33 3.387 3.387 0 0 1-1.296.875c-.526.204-1.129.306-1.806.306Zm9.416 3.285c-.739 0-1.374-.101-1.904-.302-.53-.197-.956-.462-1.278-.795a2.754 2.754 0 0 1-.67-1.108l1.852-.449c.083.171.204.339.363.506.16.17.373.31.642.42.273.114.616.171 1.029.171.583 0 1.066-.142 1.449-.426.382-.281.574-.743.574-1.387v-1.653h-.103c-.106.212-.261.43-.466.653-.2.224-.468.411-.8.563-.33.151-.745.227-1.245.227a3.58 3.58 0 0 1-1.824-.472c-.542-.318-.974-.791-1.296-1.42-.318-.633-.477-1.424-.477-2.375 0-.958.16-1.767.477-2.426.323-.663.756-1.165 1.302-1.506a3.342 3.342 0 0 1 1.823-.517c.512 0 .932.087 1.262.261.333.171.598.377.795.62.197.238.347.464.45.676h.113v-1.443h2.028v8.869c0 .746-.178 1.364-.534 1.852-.356.489-.843.854-1.46 1.097-.617.242-1.318.364-2.102.364Zm.017-5.194c.435 0 .806-.106 1.113-.318.307-.212.54-.517.7-.915.158-.397.238-.875.238-1.431 0-.55-.08-1.031-.239-1.444-.155-.412-.386-.733-.693-.96-.303-.231-.676-.346-1.12-.346-.458 0-.84.119-1.147.358-.307.238-.538.566-.693.983a3.977 3.977 0 0 0-.233 1.409c0 .534.078 1.001.233 1.403.159.398.392.708.699.932.31.22.69.329 1.142.329Zm6.187 1.739v-8.727h1.995v1.454h.09c.16-.504.432-.892.819-1.165.39-.276.835-.414 1.335-.414.113 0 .24.005.381.017.143.007.263.021.357.04v1.892a2.117 2.117 0 0 0-.414-.08 3.906 3.906 0 0 0-.54-.04c-.375 0-.712.082-1.011.245a1.78 1.78 0 0 0-.699.664 1.869 1.869 0 0 0-.256.983V486h-2.057Zm8.699.176a3.639 3.639 0 0 1-1.494-.295 2.443 2.443 0 0 1-1.046-.887c-.254-.39-.38-.871-.38-1.443 0-.492.091-.899.272-1.221.182-.322.43-.58.745-.773a3.767 3.767 0 0 1 1.062-.438 8.628 8.628 0 0 1 1.233-.221c.511-.053.926-.101 1.244-.142.319-.046.55-.114.694-.205.147-.095.221-.24.221-.437v-.034c0-.428-.127-.76-.38-.995-.254-.235-.62-.352-1.097-.352-.504 0-.903.11-1.199.329-.292.22-.489.48-.591.779l-1.92-.273c.151-.53.401-.973.75-1.329.348-.36.774-.629 1.278-.807a4.89 4.89 0 0 1 1.671-.273c.42 0 .839.049 1.255.148.417.098.798.261 1.142.488.345.224.621.529.83.915.212.387.318.87.318 1.449V486h-1.977v-1.199h-.068a2.51 2.51 0 0 1-.529.682 2.552 2.552 0 0 1-.846.506c-.338.125-.733.187-1.188.187Zm.534-1.511c.413 0 .771-.082 1.074-.245a1.8 1.8 0 0 0 .699-.659c.167-.272.25-.57.25-.892v-1.028a.98.98 0 0 1-.33.148 4.739 4.739 0 0 1-.511.119c-.189.034-.377.064-.563.091l-.482.068c-.307.042-.582.11-.824.205a1.36 1.36 0 0 0-.574.397c-.14.167-.21.383-.21.648 0 .379.138.665.414.858.277.193.629.29 1.057.29Zm10.5-7.392v1.591h-5.017v-1.591h5.017Zm-3.778-2.091h2.057v8.193c0 .277.041.489.125.636.087.144.2.243.34.296.141.053.296.079.466.079.129 0 .247-.009.353-.028.109-.019.193-.036.25-.051l.346 1.608c-.11.038-.267.079-.471.125a3.86 3.86 0 0 1-.739.079 3.348 3.348 0 0 1-1.392-.233 2.163 2.163 0 0 1-.983-.806c-.239-.364-.356-.819-.352-1.364v-8.534ZM123.119 486v-8.727h2.057V486h-2.057Zm1.034-9.966c-.325 0-.606-.108-.841-.324a1.046 1.046 0 0 1-.352-.79c0-.31.118-.573.352-.789.235-.22.516-.33.841-.33.33 0 .61.11.841.33.235.216.353.479.353.789 0 .307-.118.571-.353.79a1.186 1.186 0 0 1-.841.324Zm6.945 10.136c-.852 0-1.591-.187-2.216-.562a3.816 3.816 0 0 1-1.454-1.574c-.341-.674-.512-1.462-.512-2.364 0-.901.171-1.691.512-2.369a3.805 3.805 0 0 1 1.454-1.579c.625-.375 1.364-.563 2.216-.563.852 0 1.591.188 2.216.563a3.774 3.774 0 0 1 1.449 1.579c.344.678.517 1.468.517 2.369 0 .902-.173 1.69-.517 2.364a3.785 3.785 0 0 1-1.449 1.574c-.625.375-1.364.562-2.216.562Zm.011-1.647c.462 0 .849-.127 1.159-.381.311-.258.542-.602.694-1.034.155-.432.233-.913.233-1.443 0-.534-.078-1.017-.233-1.449-.152-.436-.383-.782-.694-1.04-.31-.257-.697-.386-1.159-.386-.473 0-.867.129-1.181.386-.311.258-.544.604-.699 1.04a4.345 4.345 0 0 0-.228 1.449c0 .53.076 1.011.228 1.443.155.432.388.776.699 1.034.314.254.708.381 1.181.381Zm7.973-3.637V486h-2.056v-8.727h1.965v1.483h.103c.201-.489.521-.877.96-1.165.443-.288.991-.432 1.642-.432.602 0 1.127.129 1.574.386a2.6 2.6 0 0 1 1.045 1.12c.25.488.373 1.081.37 1.778V486h-2.057v-5.239c0-.583-.152-1.039-.455-1.369-.299-.33-.714-.494-1.244-.494-.36 0-.68.079-.96.238a1.659 1.659 0 0 0-.654.676c-.155.296-.233.654-.233 1.074Zm14.591-1.306-1.875.204a1.52 1.52 0 0 0-.278-.534 1.376 1.376 0 0 0-.523-.403c-.22-.103-.488-.154-.807-.154-.428 0-.788.093-1.079.279-.288.185-.43.426-.426.721a.754.754 0 0 0 .278.619c.193.16.511.29.955.393l1.488.318c.826.178 1.44.46 1.841.846.405.387.61.892.614 1.517a2.377 2.377 0 0 1-.483 1.455c-.315.417-.752.742-1.313.977-.56.235-1.204.352-1.931.352-1.069 0-1.929-.223-2.58-.67-.652-.451-1.04-1.078-1.165-1.881l2.006-.193c.091.394.284.691.579.892.296.201.68.301 1.154.301.488 0 .881-.1 1.176-.301.299-.201.449-.449.449-.744a.774.774 0 0 0-.29-.619c-.189-.163-.485-.288-.886-.375l-1.489-.313c-.837-.174-1.456-.468-1.858-.881-.401-.416-.6-.943-.596-1.579-.004-.538.142-1.004.437-1.398.299-.398.714-.704 1.244-.92.534-.22 1.15-.33 1.847-.33 1.023 0 1.828.218 2.415.653.591.436.956 1.025 1.096 1.768Z"/>
          <path fill="#333" d="M355.642 486h-2.25l4.097-11.636h2.602L364.193 486h-2.25l-3.108-9.25h-.091l-3.102 9.25Zm.074-4.562h6.136v1.693h-6.136v-1.693Zm11.976-7.074V486h-2.057v-11.636h2.057Zm4.172 0V486h-2.057v-11.636h2.057Z"/>
          <ellipse cx="34.797" cy="537.5" fill="#6C47FF" rx="11.797" ry="11.5"/>
          <path stroke="#fff" d="M0-.5h4.298" transform="matrix(.71607 .69803 -.71607 .69803 30.18 538)"/>
          <path stroke="#fff" d="M0-.5h10.028" transform="matrix(-.71607 .69803 -.71607 -.69803 40.44 534)"/>
          <path fill="#727272" d="M68.472 534.562a1.554 1.554 0 0 0-.67-1.159c-.391-.276-.899-.414-1.524-.414-.439 0-.816.066-1.13.199-.315.132-.555.312-.722.539a1.315 1.315 0 0 0-.255.779c0 .242.054.452.164.63.114.178.267.33.46.455.194.121.408.223.642.307.235.083.472.153.71.21l1.092.273c.439.102.861.24 1.267.414.409.175.774.394 1.096.66.326.265.584.585.773.96.19.375.284.814.284 1.318 0 .682-.174 1.282-.523 1.801-.348.515-.852.919-1.511 1.21-.655.288-1.449.432-2.38.432-.906 0-1.692-.14-2.359-.42-.663-.281-1.181-.69-1.556-1.228-.372-.537-.572-1.193-.603-1.966h2.074c.03.406.155.743.375 1.012s.506.47.858.602a3.39 3.39 0 0 0 1.193.199c.459 0 .86-.068 1.205-.205.348-.14.621-.333.818-.579a1.4 1.4 0 0 0 .301-.875c-.004-.303-.093-.553-.267-.75-.174-.201-.419-.368-.733-.5a7.093 7.093 0 0 0-1.09-.364l-1.325-.341c-.958-.246-1.715-.619-2.272-1.119-.553-.504-.83-1.172-.83-2.006 0-.685.186-1.286.557-1.801.375-.515.884-.915 1.528-1.199.644-.288 1.373-.431 2.188-.431.826 0 1.55.143 2.17.431.625.284 1.116.68 1.472 1.188.356.504.54 1.083.551 1.738h-2.028Zm9.538 4.768v-5.057h2.057V543h-1.995v-1.551h-.09a2.63 2.63 0 0 1-.972 1.199c-.447.31-.998.466-1.654.466-.571 0-1.077-.127-1.516-.381a2.651 2.651 0 0 1-1.023-1.119c-.246-.493-.37-1.087-.37-1.784v-5.557h2.057v5.238c0 .553.152.993.455 1.319.303.325.7.488 1.193.488.303 0 .597-.074.88-.221.285-.148.518-.368.7-.659.185-.296.278-.665.278-1.108Zm4.172 6.943v-12h2.022v1.443h.12c.106-.212.255-.438.449-.676.193-.243.454-.449.784-.62.33-.174.75-.261 1.261-.261.674 0 1.282.172 1.824.517.546.341.977.847 1.296 1.517.322.667.483 1.485.483 2.455 0 .958-.158 1.772-.472 2.443-.314.67-.743 1.182-1.284 1.534a3.304 3.304 0 0 1-1.841.528c-.5 0-.915-.083-1.245-.25a2.518 2.518 0 0 1-.795-.602 3.913 3.913 0 0 1-.46-.676h-.085v4.648h-2.057Zm2.017-7.637c0 .565.08 1.059.239 1.483.162.425.395.756.698.995.307.234.678.352 1.114.352.454 0 .835-.121 1.142-.364.307-.246.538-.581.693-1.005.16-.428.239-.915.239-1.461a4.16 4.16 0 0 0-.233-1.443c-.155-.42-.386-.75-.693-.988-.307-.239-.69-.358-1.148-.358-.44 0-.813.115-1.12.346-.306.231-.54.555-.698.972-.156.416-.233.907-.233 1.471Zm7.983 7.637v-12h2.022v1.443h.12c.106-.212.255-.438.449-.676.193-.243.454-.449.784-.62.33-.174.75-.261 1.261-.261.674 0 1.282.172 1.824.517.546.341.977.847 1.296 1.517.321.667.482 1.485.482 2.455 0 .958-.157 1.772-.471 2.443-.314.67-.743 1.182-1.284 1.534a3.304 3.304 0 0 1-1.841.528c-.5 0-.915-.083-1.245-.25a2.518 2.518 0 0 1-.795-.602 3.913 3.913 0 0 1-.46-.676h-.085v4.648h-2.057Zm2.017-7.637c0 .565.08 1.059.239 1.483.162.425.395.756.698.995.307.234.678.352 1.114.352.454 0 .835-.121 1.142-.364.307-.246.538-.581.693-1.005.16-.428.239-.915.239-1.461a4.16 4.16 0 0 0-.233-1.443c-.155-.42-.386-.75-.693-.988-.307-.239-.69-.358-1.148-.358-.44 0-.813.115-1.12.346-.306.231-.54.555-.698.972-.156.416-.233.907-.233 1.471Zm11.79 4.534c-.853 0-1.591-.187-2.216-.562a3.825 3.825 0 0 1-1.455-1.574c-.341-.674-.511-1.462-.511-2.364 0-.901.17-1.691.511-2.369a3.814 3.814 0 0 1 1.455-1.579c.625-.375 1.363-.563 2.216-.563.852 0 1.591.188 2.216.563a3.766 3.766 0 0 1 1.448 1.579c.345.678.517 1.468.517 2.369 0 .902-.172 1.69-.517 2.364a3.776 3.776 0 0 1-1.448 1.574c-.625.375-1.364.562-2.216.562Zm.011-1.647c.462 0 .848-.127 1.159-.381.311-.258.542-.602.693-1.034.156-.432.233-.913.233-1.443 0-.534-.077-1.017-.233-1.449-.151-.436-.382-.782-.693-1.04-.311-.257-.697-.386-1.159-.386-.473 0-.867.129-1.182.386-.31.258-.543.604-.699 1.04a4.37 4.37 0 0 0-.227 1.449c0 .53.076 1.011.227 1.443.156.432.389.776.699 1.034.315.254.709.381 1.182.381Zm5.916 1.477v-8.727h1.995v1.454h.09c.16-.504.432-.892.819-1.165.39-.276.835-.414 1.335-.414.113 0 .24.005.381.017.143.007.263.021.357.04v1.892a2.117 2.117 0 0 0-.414-.08 3.906 3.906 0 0 0-.54-.04c-.375 0-.712.082-1.011.245a1.78 1.78 0 0 0-.699.664 1.869 1.869 0 0 0-.256.983V543h-2.057Zm11.171-8.727v1.591h-5.017v-1.591h5.017Zm-3.779-2.091h2.057v8.193c0 .277.042.489.125.636a.676.676 0 0 0 .341.296c.14.053.295.079.466.079.129 0 .246-.009.352-.028.11-.019.193-.036.25-.051l.347 1.608c-.11.038-.267.079-.472.125a3.857 3.857 0 0 1-.738.079 3.35 3.35 0 0 1-1.393-.233 2.166 2.166 0 0 1-.982-.806c-.239-.364-.357-.819-.353-1.364v-8.534Z"/>
          <path fill="#333" d="M309.737 534.562c-.053-.496-.276-.882-.67-1.159-.39-.276-.898-.414-1.523-.414-.439 0-.816.066-1.131.199-.314.132-.555.312-.721.539a1.315 1.315 0 0 0-.256.779c0 .242.055.452.165.63.113.178.267.33.46.455.193.121.407.223.642.307.235.083.472.153.71.21l1.091.273c.44.102.862.24 1.267.414a4.47 4.47 0 0 1 1.097.66c.326.265.583.585.773.96.189.375.284.814.284 1.318 0 .682-.175 1.282-.523 1.801-.348.515-.852.919-1.511 1.21-.656.288-1.449.432-2.381.432-.905 0-1.691-.14-2.358-.42-.663-.281-1.182-.69-1.557-1.228-.371-.537-.572-1.193-.602-1.966h2.074c.03.406.155.743.375 1.012.219.269.505.47.858.602a3.39 3.39 0 0 0 1.193.199c.458 0 .86-.068 1.204-.205.349-.14.622-.333.819-.579.197-.25.297-.542.301-.875-.004-.303-.093-.553-.267-.75-.175-.201-.419-.368-.733-.5a7.098 7.098 0 0 0-1.091-.364l-1.324-.341c-.958-.246-1.716-.619-2.273-1.119-.553-.504-.829-1.172-.829-2.006 0-.685.185-1.286.557-1.801.375-.515.884-.915 1.528-1.199.644-.288 1.373-.431 2.187-.431.826 0 1.55.143 2.171.431.625.284 1.115.68 1.471 1.188a3.03 3.03 0 0 1 .552 1.738h-2.029Zm8.334-.289v1.591h-5.017v-1.591h5.017Zm-3.778-2.091h2.056v8.193c0 .277.042.489.125.636a.68.68 0 0 0 .341.296c.14.053.296.079.466.079.129 0 .246-.009.353-.028.109-.019.193-.036.25-.051l.346 1.608c-.11.038-.267.079-.471.125a3.86 3.86 0 0 1-.739.079 3.348 3.348 0 0 1-1.392-.233 2.163 2.163 0 0 1-.983-.806c-.239-.364-.356-.819-.352-1.364v-8.534Zm8.01 10.994a3.643 3.643 0 0 1-1.495-.295 2.44 2.44 0 0 1-1.045-.887c-.254-.39-.381-.871-.381-1.443 0-.492.091-.899.273-1.221.182-.322.43-.58.744-.773a3.785 3.785 0 0 1 1.063-.438 8.579 8.579 0 0 1 1.233-.221c.511-.053.926-.101 1.244-.142.318-.046.549-.114.693-.205.148-.095.222-.24.222-.437v-.034c0-.428-.127-.76-.381-.995s-.619-.352-1.097-.352c-.503 0-.903.11-1.198.329-.292.22-.489.48-.591.779l-1.921-.273c.152-.53.402-.973.75-1.329.349-.36.775-.629 1.279-.807a4.88 4.88 0 0 1 1.67-.273c.421 0 .839.049 1.256.148.416.098.797.261 1.142.488.344.224.621.529.829.915.212.387.319.87.319 1.449V543h-1.978v-1.199h-.068c-.125.243-.301.47-.528.682a2.557 2.557 0 0 1-.847.506c-.337.125-.733.187-1.187.187Zm.534-1.511c.413 0 .77-.082 1.074-.245.303-.166.535-.386.698-.659.167-.272.25-.57.25-.892v-1.028a.973.973 0 0 1-.329.148 4.76 4.76 0 0 1-.512.119c-.189.034-.376.064-.562.091l-.483.068a3.6 3.6 0 0 0-.824.205 1.367 1.367 0 0 0-.574.397c-.14.167-.21.383-.21.648 0 .379.138.665.415.858.276.193.629.29 1.057.29Zm8.199-3.779V543h-2.057v-8.727h1.966v1.483h.102c.201-.489.521-.877.96-1.165.443-.288.991-.432 1.642-.432.602 0 1.127.129 1.574.386a2.6 2.6 0 0 1 1.045 1.12c.25.488.374 1.081.37 1.778V543h-2.057v-5.239c0-.583-.152-1.039-.455-1.369-.299-.33-.714-.494-1.244-.494-.36 0-.68.079-.96.238a1.665 1.665 0 0 0-.654.676c-.155.296-.232.654-.232 1.074Zm10.931 5.267a3.307 3.307 0 0 1-1.841-.528c-.541-.352-.969-.864-1.284-1.534-.314-.671-.471-1.485-.471-2.443 0-.97.159-1.788.477-2.455.322-.67.756-1.176 1.301-1.517a3.344 3.344 0 0 1 1.824-.517c.511 0 .932.087 1.261.261.33.171.591.377.784.62.194.238.343.464.449.676h.086v-4.352h2.062V543h-2.023v-1.375h-.125a3.513 3.513 0 0 1-.46.676 2.526 2.526 0 0 1-.795.602c-.33.167-.745.25-1.245.25Zm.574-1.687c.436 0 .807-.118 1.114-.352.307-.239.54-.57.699-.995.159-.424.238-.918.238-1.483 0-.564-.079-1.055-.238-1.471-.156-.417-.387-.741-.693-.972-.304-.231-.677-.346-1.12-.346-.458 0-.841.119-1.148.358-.306.238-.537.568-.693.988a4.16 4.16 0 0 0-.233 1.443c0 .546.078 1.033.233 1.461.159.424.392.759.699 1.005.311.243.691.364 1.142.364Zm8.777 1.71a3.639 3.639 0 0 1-1.494-.295 2.443 2.443 0 0 1-1.046-.887c-.253-.39-.38-.871-.38-1.443 0-.492.091-.899.272-1.221.182-.322.43-.58.745-.773a3.767 3.767 0 0 1 1.062-.438 8.628 8.628 0 0 1 1.233-.221 51.91 51.91 0 0 0 1.245-.142c.318-.046.549-.114.693-.205.147-.095.221-.24.221-.437v-.034c0-.428-.127-.76-.38-.995-.254-.235-.62-.352-1.097-.352-.504 0-.903.11-1.199.329-.291.22-.488.48-.591.779l-1.92-.273c.151-.53.401-.973.75-1.329.348-.36.774-.629 1.278-.807a4.89 4.89 0 0 1 1.671-.273c.42 0 .839.049 1.255.148.417.098.798.261 1.142.488.345.224.622.529.83.915.212.387.318.87.318 1.449V543h-1.977v-1.199h-.068a2.49 2.49 0 0 1-1.375 1.188c-.337.125-.733.187-1.188.187Zm.534-1.511c.413 0 .771-.082 1.074-.245a1.8 1.8 0 0 0 .699-.659c.167-.272.25-.57.25-.892v-1.028a.97.97 0 0 1-.33.148 4.739 4.739 0 0 1-.511.119 17.23 17.23 0 0 1-.562.091l-.483.068c-.307.042-.582.11-.824.205a1.36 1.36 0 0 0-.574.397c-.14.167-.21.383-.21.648 0 .379.138.665.414.858.277.193.629.29 1.057.29Zm6.142 1.335v-8.727h1.995v1.454h.091c.159-.504.431-.892.818-1.165.39-.276.835-.414 1.335-.414.114 0 .24.005.381.017.144.007.263.021.358.04v1.892a2.147 2.147 0 0 0-.415-.08 3.906 3.906 0 0 0-.54-.04c-.375 0-.712.082-1.011.245a1.78 1.78 0 0 0-.699.664 1.869 1.869 0 0 0-.256.983V543h-2.057Zm9.223.153a3.307 3.307 0 0 1-1.841-.528c-.541-.352-.969-.864-1.284-1.534-.314-.671-.471-1.485-.471-2.443 0-.97.159-1.788.477-2.455.322-.67.756-1.176 1.301-1.517a3.344 3.344 0 0 1 1.824-.517c.511 0 .932.087 1.261.261.33.171.591.377.784.62.194.238.343.464.449.676h.086v-4.352h2.062V543h-2.023v-1.375h-.125a3.513 3.513 0 0 1-.46.676 2.526 2.526 0 0 1-.795.602c-.33.167-.745.25-1.245.25Zm.574-1.687c.436 0 .807-.118 1.114-.352.307-.239.54-.57.699-.995.159-.424.238-.918.238-1.483 0-.564-.079-1.055-.238-1.471-.156-.417-.387-.741-.693-.972-.304-.231-.677-.346-1.12-.346-.458 0-.841.119-1.148.358-.306.238-.537.568-.693.988a4.16 4.16 0 0 0-.233 1.443c0 .546.078 1.033.233 1.461.159.424.392.759.699 1.005.311.243.691.364 1.142.364Z"/>
          <path stroke="#D3D3D3" d="M22 390.5h350.837M22 327.5h351"/>
          <ellipse cx="34.875" cy="356.5" fill="#6C47FF" rx="11.797" ry="11.5"/>
          <path stroke="#fff" d="M0-.5h4.298" transform="scale(1.01267 .98716) rotate(45 -421.6 216.89)"/>
          <path stroke="#fff" d="M0-.5h10.028" transform="matrix(-.71607 .69803 -.71607 -.69803 40.517 353)"/>
          <path fill="#727272" d="M63.642 362h-2.25l4.097-11.636h2.602L72.193 362h-2.25l-3.108-9.25h-.09L63.641 362Zm.074-4.562h6.136v1.693h-6.136v-1.693Zm11.976-7.074V362h-2.057v-11.636h2.057ZM81.776 362v-8.727h1.966v1.483h.102c.182-.5.483-.89.903-1.171.42-.284.922-.426 1.506-.426.59 0 1.089.144 1.494.432.41.284.697.672.864 1.165h.09a2.38 2.38 0 0 1 .978-1.159c.462-.292 1.01-.438 1.642-.438.803 0 1.458.254 1.966.761.507.508.761 1.249.761 2.222V362h-2.062v-5.54c0-.541-.144-.937-.432-1.187a1.54 1.54 0 0 0-1.057-.381c-.496 0-.884.155-1.165.466-.276.307-.414.706-.414 1.199V362H86.9v-5.625c0-.451-.137-.811-.41-1.08-.269-.268-.62-.403-1.056-.403-.296 0-.565.076-.807.227a1.586 1.586 0 0 0-.58.631 1.97 1.97 0 0 0-.216.943V362h-2.056Zm18.223.17c-.875 0-1.631-.181-2.267-.545a3.69 3.69 0 0 1-1.46-1.557c-.342-.674-.512-1.468-.512-2.38 0-.898.17-1.686.511-2.364a3.868 3.868 0 0 1 1.444-1.591c.617-.383 1.342-.574 2.176-.574.538 0 1.045.087 1.522.261.481.171.906.436 1.273.796.371.36.663.818.875 1.375.212.553.318 1.212.318 1.977v.631h-7.153v-1.387h5.182a2.214 2.214 0 0 0-.256-1.051c-.167-.31-.4-.555-.699-.733a1.963 1.963 0 0 0-1.034-.267c-.42 0-.79.103-1.108.307a2.114 2.114 0 0 0-.744.796 2.284 2.284 0 0 0-.267 1.074v1.21c0 .507.093.943.278 1.307.186.359.445.636.778.829.334.189.724.284 1.171.284.299 0 .57-.041.812-.125.243-.087.453-.214.631-.381.178-.166.313-.373.404-.619l1.92.216a2.991 2.991 0 0 1-.693 1.33 3.385 3.385 0 0 1-1.296.875c-.526.204-1.128.306-1.806.306Zm12.518-6.59-1.875.204a1.52 1.52 0 0 0-.278-.534 1.376 1.376 0 0 0-.523-.403c-.22-.103-.489-.154-.807-.154-.428 0-.788.093-1.079.279-.288.185-.43.426-.427.721a.755.755 0 0 0 .279.619c.193.16.511.29.954.393l1.489.318c.826.178 1.439.46 1.841.846.405.387.61.892.614 1.517a2.377 2.377 0 0 1-.483 1.455c-.315.417-.752.742-1.313.977-.561.235-1.204.352-1.932.352-1.068 0-1.928-.223-2.579-.67-.652-.451-1.04-1.078-1.165-1.881l2.006-.193c.091.394.284.691.579.892.296.201.68.301 1.154.301.488 0 .88-.1 1.176-.301.299-.201.449-.449.449-.744a.774.774 0 0 0-.29-.619c-.19-.163-.485-.288-.887-.375l-1.488-.313c-.837-.174-1.457-.468-1.858-.881-.402-.416-.601-.943-.597-1.579-.004-.538.142-1.004.438-1.398.299-.398.714-.704 1.244-.92.534-.22 1.15-.33 1.847-.33 1.022 0 1.827.218 2.414.653.591.436.957 1.025 1.097 1.768Zm8.781 0-1.875.204a1.52 1.52 0 0 0-.278-.534 1.376 1.376 0 0 0-.523-.403c-.22-.103-.488-.154-.807-.154-.428 0-.788.093-1.079.279-.288.185-.43.426-.426.721a.754.754 0 0 0 .278.619c.193.16.511.29.955.393l1.488.318c.826.178 1.44.46 1.841.846.405.387.61.892.614 1.517a2.377 2.377 0 0 1-.483 1.455c-.315.417-.752.742-1.313.977-.56.235-1.204.352-1.931.352-1.069 0-1.929-.223-2.58-.67-.652-.451-1.04-1.078-1.165-1.881l2.006-.193c.091.394.284.691.579.892.296.201.68.301 1.154.301.488 0 .881-.1 1.176-.301.299-.201.449-.449.449-.744a.774.774 0 0 0-.29-.619c-.189-.163-.485-.288-.886-.375l-1.489-.313c-.837-.174-1.456-.468-1.858-.881-.401-.416-.6-.943-.596-1.579-.004-.538.142-1.004.437-1.398.299-.398.714-.704 1.244-.92.534-.22 1.15-.33 1.847-.33 1.023 0 1.828.218 2.415.653.591.436.956 1.025 1.096 1.768Zm4.395 6.596a3.639 3.639 0 0 1-1.494-.295 2.443 2.443 0 0 1-1.046-.887c-.253-.39-.38-.871-.38-1.443 0-.492.091-.899.272-1.221.182-.322.43-.58.745-.773a3.767 3.767 0 0 1 1.062-.438 8.628 8.628 0 0 1 1.233-.221 51.91 51.91 0 0 0 1.245-.142c.318-.046.549-.114.693-.205.147-.095.221-.24.221-.437v-.034c0-.428-.127-.76-.38-.995-.254-.235-.62-.352-1.097-.352-.504 0-.903.11-1.199.329-.291.22-.488.48-.591.779l-1.92-.273c.151-.53.401-.973.75-1.329.348-.36.774-.629 1.278-.807a4.89 4.89 0 0 1 1.671-.273c.42 0 .839.049 1.255.148.417.098.798.261 1.142.488.345.224.622.529.83.915.212.387.318.87.318 1.449V362h-1.977v-1.199h-.068a2.49 2.49 0 0 1-1.375 1.188c-.337.125-.733.187-1.188.187Zm.534-1.511c.413 0 .771-.082 1.074-.245a1.8 1.8 0 0 0 .699-.659c.167-.272.25-.57.25-.892v-1.028a.97.97 0 0 1-.33.148 4.739 4.739 0 0 1-.511.119 17.23 17.23 0 0 1-.562.091l-.483.068c-.307.042-.582.11-.824.205a1.36 1.36 0 0 0-.574.397c-.14.167-.21.383-.21.648 0 .379.138.665.414.858.277.193.629.29 1.057.29Zm9.938 4.79c-.739 0-1.373-.101-1.904-.302-.53-.197-.956-.462-1.278-.795a2.766 2.766 0 0 1-.671-1.108l1.853-.449c.083.171.204.339.363.506.16.17.374.31.642.42.273.114.616.171 1.029.171.583 0 1.066-.142 1.449-.426.382-.281.574-.743.574-1.387v-1.653h-.103c-.106.212-.261.43-.466.653a2.37 2.37 0 0 1-.801.563c-.329.151-.744.227-1.244.227-.67 0-1.278-.157-1.824-.472-.542-.318-.973-.791-1.295-1.42-.319-.633-.478-1.424-.478-2.375 0-.958.159-1.767.478-2.426.322-.663.755-1.165 1.301-1.506a3.34 3.34 0 0 1 1.824-.517c.511 0 .931.087 1.261.261.333.171.598.377.795.62.197.238.347.464.449.676h.114v-1.443h2.028v8.869c0 .746-.178 1.364-.534 1.852-.356.489-.843.854-1.46 1.097-.617.242-1.318.364-2.102.364Zm.017-5.194c.435 0 .807-.106 1.113-.318.307-.212.54-.517.699-.915.159-.397.239-.875.239-1.431 0-.55-.08-1.031-.239-1.444-.155-.412-.386-.733-.693-.96-.303-.231-.676-.346-1.119-.346-.459 0-.841.119-1.148.358-.307.238-.538.566-.693.983a3.984 3.984 0 0 0-.233 1.409c0 .534.078 1.001.233 1.403.159.398.392.708.699.932.31.22.691.329 1.142.329Zm10.051 1.909c-.875 0-1.631-.181-2.267-.545a3.686 3.686 0 0 1-1.46-1.557c-.341-.674-.512-1.468-.512-2.38 0-.898.171-1.686.512-2.364a3.858 3.858 0 0 1 1.443-1.591c.617-.383 1.343-.574 2.176-.574.538 0 1.045.087 1.523.261.481.171.905.436 1.272.796.372.36.663.818.875 1.375.213.553.319 1.212.319 1.977v.631h-7.154v-1.387h5.182a2.214 2.214 0 0 0-.256-1.051 1.858 1.858 0 0 0-.698-.733 1.97 1.97 0 0 0-1.035-.267c-.42 0-.789.103-1.108.307a2.114 2.114 0 0 0-.744.796 2.29 2.29 0 0 0-.267 1.074v1.21c0 .507.093.943.278 1.307.186.359.446.636.779.829.333.189.723.284 1.17.284.3 0 .57-.041.813-.125.242-.087.453-.214.631-.381.178-.166.312-.373.403-.619l1.92.216a2.991 2.991 0 0 1-.693 1.33 3.388 3.388 0 0 1-1.295.875c-.527.204-1.129.306-1.807.306Zm12.518-6.59-1.875.204a1.504 1.504 0 0 0-.278-.534 1.376 1.376 0 0 0-.523-.403c-.219-.103-.488-.154-.807-.154-.428 0-.787.093-1.079.279-.288.185-.43.426-.426.721a.754.754 0 0 0 .278.619c.193.16.512.29.955.393l1.488.318c.826.178 1.44.46 1.841.846.406.387.61.892.614 1.517a2.377 2.377 0 0 1-.483 1.455c-.314.417-.752.742-1.313.977-.56.235-1.204.352-1.931.352-1.069 0-1.928-.223-2.58-.67-.651-.451-1.04-1.078-1.165-1.881l2.006-.193c.091.394.284.691.58.892.295.201.679.301 1.153.301.489 0 .881-.1 1.176-.301.299-.201.449-.449.449-.744a.774.774 0 0 0-.29-.619c-.189-.163-.485-.288-.886-.375l-1.489-.313c-.837-.174-1.456-.468-1.858-.881-.401-.416-.6-.943-.596-1.579-.004-.538.142-1.004.437-1.398.299-.398.714-.704 1.244-.92.535-.22 1.15-.33 1.847-.33 1.023 0 1.828.218 2.415.653.591.436.956 1.025 1.096 1.768Z"/>
          <path fill="#333" d="M282.767 350.364V362h-2.108v-9.585h-.068l-2.722 1.738v-1.931l2.892-1.858h2.006Zm7.256 11.858c-.936 0-1.739-.237-2.409-.711-.667-.477-1.18-1.164-1.54-2.062-.356-.902-.534-1.987-.534-3.256.004-1.269.183-2.348.54-3.238.359-.894.873-1.576 1.539-2.046.671-.47 1.472-.704 2.404-.704.932 0 1.733.234 2.403.704.671.47 1.184 1.152 1.54 2.046.36.893.54 1.973.54 3.238 0 1.273-.18 2.36-.54 3.262-.356.897-.869 1.583-1.54 2.056-.667.474-1.468.711-2.403.711Zm0-1.779c.727 0 1.301-.358 1.721-1.074.425-.719.637-1.778.637-3.176 0-.924-.097-1.701-.29-2.329-.193-.629-.466-1.103-.818-1.421a1.793 1.793 0 0 0-1.25-.483c-.724 0-1.296.36-1.716 1.08-.421.716-.633 1.767-.637 3.153-.003.928.089 1.709.279 2.341.193.633.466 1.11.818 1.432.352.318.771.477 1.256.477Zm10.672 1.779c-.936 0-1.739-.237-2.409-.711-.667-.477-1.18-1.164-1.54-2.062-.356-.902-.534-1.987-.534-3.256.003-1.269.183-2.348.539-3.238.36-.894.874-1.576 1.54-2.046.671-.47 1.472-.704 2.404-.704.931 0 1.733.234 2.403.704.67.47 1.184 1.152 1.54 2.046.36.893.54 1.973.54 3.238 0 1.273-.18 2.36-.54 3.262-.356.897-.87 1.583-1.54 2.056-.667.474-1.468.711-2.403.711Zm0-1.779c.727 0 1.301-.358 1.721-1.074.424-.719.637-1.778.637-3.176 0-.924-.097-1.701-.29-2.329-.193-.629-.466-1.103-.818-1.421a1.793 1.793 0 0 0-1.25-.483c-.724 0-1.296.36-1.716 1.08-.421.716-.633 1.767-.637 3.153-.003.928.089 1.709.279 2.341.193.633.466 1.11.818 1.432.352.318.771.477 1.256.477Zm10.671 1.779c-.935 0-1.738-.237-2.409-.711-.666-.477-1.18-1.164-1.539-2.062-.356-.902-.534-1.987-.534-3.256.003-1.269.183-2.348.539-3.238.36-.894.873-1.576 1.54-2.046.671-.47 1.472-.704 2.403-.704.932 0 1.733.234 2.404.704.67.47 1.184 1.152 1.54 2.046.36.893.539 1.973.539 3.238 0 1.273-.179 2.36-.539 3.262-.356.897-.87 1.583-1.54 2.056-.667.474-1.468.711-2.404.711Zm0-1.779c.728 0 1.302-.358 1.722-1.074.424-.719.636-1.778.636-3.176 0-.924-.096-1.701-.289-2.329-.194-.629-.466-1.103-.819-1.421a1.79 1.79 0 0 0-1.25-.483c-.723 0-1.295.36-1.715 1.08-.421.716-.633 1.767-.637 3.153-.004.928.089 1.709.279 2.341.193.633.466 1.11.818 1.432a1.81 1.81 0 0 0 1.255.477Zm11.144-10.625-3.75 13.932h-1.801l3.75-13.932h1.801ZM323.822 362v-8.727h1.966v1.483h.103c.181-.5.483-.89.903-1.171.42-.284.922-.426 1.506-.426.591 0 1.089.144 1.494.432.409.284.697.672.864 1.165h.091c.193-.485.519-.872.977-1.159.462-.292 1.009-.438 1.642-.438.803 0 1.458.254 1.966.761.507.508.761 1.249.761 2.222V362h-2.062v-5.54c0-.541-.144-.937-.432-1.187a1.54 1.54 0 0 0-1.057-.381c-.496 0-.884.155-1.165.466-.276.307-.415.706-.415 1.199V362h-2.017v-5.625c0-.451-.136-.811-.409-1.08-.269-.268-.621-.403-1.056-.403-.296 0-.565.076-.807.227a1.584 1.584 0 0 0-.58.631 1.968 1.968 0 0 0-.216.943V362h-2.057Zm18.167.17c-.853 0-1.591-.187-2.216-.562a3.825 3.825 0 0 1-1.455-1.574c-.341-.674-.511-1.462-.511-2.364 0-.901.17-1.691.511-2.369a3.814 3.814 0 0 1 1.455-1.579c.625-.375 1.363-.563 2.216-.563.852 0 1.591.188 2.216.563a3.766 3.766 0 0 1 1.448 1.579c.345.678.517 1.468.517 2.369 0 .902-.172 1.69-.517 2.364a3.776 3.776 0 0 1-1.448 1.574c-.625.375-1.364.562-2.216.562Zm.011-1.647c.462 0 .848-.127 1.159-.381.311-.258.542-.602.693-1.034.156-.432.233-.913.233-1.443 0-.534-.077-1.017-.233-1.449-.151-.436-.382-.782-.693-1.04-.311-.257-.697-.386-1.159-.386-.473 0-.867.129-1.182.386-.31.258-.543.604-.699 1.04a4.37 4.37 0 0 0-.227 1.449c0 .53.076 1.011.227 1.443.156.432.389.776.699 1.034.315.254.709.381 1.182.381Zm7.973-3.637V362h-2.057v-8.727h1.966v1.483h.102c.201-.489.521-.877.961-1.165.443-.288.99-.432 1.642-.432.602 0 1.127.129 1.574.386.45.258.799.631 1.045 1.12.25.488.373 1.081.369 1.778V362h-2.057v-5.239c0-.583-.151-1.039-.454-1.369-.299-.33-.714-.494-1.244-.494-.36 0-.68.079-.961.238a1.663 1.663 0 0 0-.653.676c-.155.296-.233.654-.233 1.074Zm12.051-3.613v1.591h-5.017v-1.591h5.017Zm-3.778-2.091h2.057v8.193c0 .277.041.489.125.636.087.144.2.243.34.296.141.053.296.079.466.079.129 0 .247-.009.353-.028.109-.019.193-.036.25-.051l.346 1.608c-.11.038-.267.079-.471.125a3.86 3.86 0 0 1-.739.079 3.348 3.348 0 0 1-1.392-.233 2.163 2.163 0 0 1-.983-.806c-.239-.364-.356-.819-.352-1.364v-8.534Zm7.743 5.704V362h-2.057v-11.636h2.011v4.392h.102c.205-.493.521-.881.949-1.165.432-.288.981-.432 1.648-.432.606 0 1.135.127 1.585.381.451.254.8.625 1.046 1.113.25.489.375 1.086.375 1.79V362h-2.057v-5.239c0-.587-.152-1.043-.455-1.369-.299-.33-.719-.494-1.261-.494-.364 0-.689.079-.977.238a1.68 1.68 0 0 0-.671.676c-.159.296-.238.654-.238 1.074Z"/>
          <rect width="351" height="49" x="22" y="258" fill="#6C47FF" rx="5"/>
          <path fill="#fff" d="M169.148 279.457a1.553 1.553 0 0 0-.703-1.172c-.412-.281-.93-.421-1.555-.421-.448 0-.835.071-1.161.213a1.79 1.79 0 0 0-.762.575 1.357 1.357 0 0 0-.266.826c0 .259.06.483.181.671.124.188.286.346.484.474.203.125.42.229.65.315.231.081.453.149.666.202l1.066.277c.348.085.704.201 1.07.346.366.146.705.337 1.018.575.312.238.564.533.756.885.195.351.293.772.293 1.262 0 .618-.16 1.167-.479 1.646-.317.479-.776.858-1.38 1.135-.6.277-1.326.415-2.179.415-.816 0-1.523-.13-2.12-.389-.596-.259-1.063-.627-1.401-1.102-.337-.48-.523-1.048-.559-1.705h1.651c.032.394.16.723.384.986.227.259.517.452.868.58.355.124.744.187 1.167.187.465 0 .879-.073 1.241-.219.366-.149.653-.355.863-.618.209-.266.314-.577.314-.932 0-.323-.092-.588-.277-.794a2.048 2.048 0 0 0-.74-.511 7.227 7.227 0 0 0-1.05-.357l-1.289-.351c-.873-.238-1.566-.588-2.077-1.05-.508-.461-.762-1.072-.762-1.832 0-.629.17-1.177.511-1.646.341-.469.803-.833 1.385-1.092.583-.263 1.24-.394 1.971-.394.739 0 1.39.129 1.955.389.568.259 1.016.616 1.342 1.07.327.451.498.97.512 1.556h-1.588Zm7.395-.139v1.279h-4.469v-1.279h4.469Zm-3.27-1.96h1.592v7.74c0 .309.046.541.139.697a.72.72 0 0 0 .357.315c.149.053.31.08.484.08.128 0 .24-.009.336-.027l.224-.043.287 1.316a3.147 3.147 0 0 1-1.033.171 2.81 2.81 0 0 1-1.172-.224 2.01 2.01 0 0 1-.879-.725c-.224-.326-.335-.736-.335-1.23v-8.07Zm7.413 10.323c-.518 0-.987-.096-1.406-.288a2.367 2.367 0 0 1-.996-.846c-.242-.37-.362-.823-.362-1.359 0-.461.088-.841.266-1.14a1.96 1.96 0 0 1 .719-.708 3.73 3.73 0 0 1 1.012-.394 9.987 9.987 0 0 1 1.14-.203l1.193-.138c.306-.039.527-.101.666-.187.138-.085.208-.223.208-.415v-.037c0-.466-.132-.826-.394-1.082-.26-.255-.647-.383-1.162-.383-.536 0-.958.119-1.267.357-.306.234-.517.495-.634.783l-1.497-.341c.177-.497.437-.899.778-1.204.344-.309.74-.533 1.187-.671a4.642 4.642 0 0 1 1.412-.213c.327 0 .673.039 1.039.117a3.04 3.04 0 0 1 1.033.415c.323.203.588.492.794.869.206.372.309.857.309 1.454v5.433h-1.556v-1.119h-.064a2.268 2.268 0 0 1-.463.608 2.473 2.473 0 0 1-.794.495c-.323.131-.71.197-1.161.197Zm.346-1.278c.441 0 .817-.087 1.13-.261.316-.174.555-.402.719-.682.167-.284.25-.588.25-.911v-1.055c-.057.057-.167.11-.33.16-.16.046-.343.087-.549.123-.206.032-.406.062-.602.09a66.2 66.2 0 0 0-.49.064 3.969 3.969 0 0 0-.847.197 1.463 1.463 0 0 0-.607.4c-.149.17-.224.397-.224.682 0 .394.146.692.437.894.291.199.662.299 1.113.299Zm5.813 1.097v-8.182h1.539v1.3h.086a1.98 1.98 0 0 1 .788-1.039c.38-.255.81-.383 1.289-.383a6.848 6.848 0 0 1 .677.037v1.523a3.01 3.01 0 0 0-.341-.058 3.243 3.243 0 0 0-.49-.037c-.377 0-.712.079-1.007.239a1.777 1.777 0 0 0-.948 1.604v4.996h-1.593Zm10.06-8.182v1.279h-4.47v-1.279h4.47Zm-3.271-1.96h1.593v7.74c0 .309.046.541.138.697a.72.72 0 0 0 .357.315c.149.053.311.08.485.08.128 0 .239-.009.335-.027l.224-.043.288 1.316a3.166 3.166 0 0 1-1.034.171 2.813 2.813 0 0 1-1.172-.224 2.003 2.003 0 0 1-.878-.725c-.224-.326-.336-.736-.336-1.23v-8.07Zm8.592.65v-1.417h8.443v1.417h-3.404v9.492h-1.641v-9.492h-3.398Zm9.331 9.492v-8.182h1.539v1.3h.086a1.98 1.98 0 0 1 .788-1.039c.38-.255.81-.383 1.289-.383a6.878 6.878 0 0 1 .677.037v1.523a3.01 3.01 0 0 0-.341-.058 3.243 3.243 0 0 0-.49-.037c-.377 0-.712.079-1.007.239a1.777 1.777 0 0 0-.948 1.604v4.996h-1.593Zm5.757 0v-8.182h1.593v8.182h-1.593Zm.804-9.444c-.277 0-.515-.093-.714-.277a.901.901 0 0 1-.293-.671c0-.263.098-.487.293-.672.199-.188.437-.282.714-.282.277 0 .513.094.709.282a.887.887 0 0 1 .298.672c0 .259-.1.483-.298.671a1 1 0 0 1-.709.277Zm5.312 9.625c-.518 0-.987-.096-1.406-.288a2.367 2.367 0 0 1-.996-.846c-.242-.37-.362-.823-.362-1.359 0-.461.088-.841.266-1.14.178-.298.417-.534.719-.708a3.73 3.73 0 0 1 1.012-.394 9.987 9.987 0 0 1 1.14-.203l1.193-.138c.306-.039.528-.101.666-.187.139-.085.208-.223.208-.415v-.037c0-.466-.132-.826-.394-1.082-.26-.255-.647-.383-1.162-.383-.536 0-.958.119-1.267.357-.306.234-.517.495-.634.783l-1.497-.341c.178-.497.437-.899.778-1.204a3.14 3.14 0 0 1 1.188-.671 4.636 4.636 0 0 1 1.411-.213c.327 0 .673.039 1.039.117.369.074.714.213 1.033.415.323.203.588.492.794.869.206.372.309.857.309 1.454v5.433h-1.556v-1.119h-.063a2.273 2.273 0 0 1-.464.608c-.206.198-.47.364-.794.495-.323.131-.71.197-1.161.197Zm.346-1.278c.441 0 .817-.087 1.13-.261.316-.174.555-.402.719-.682.167-.284.25-.588.25-.911v-1.055c-.057.057-.167.11-.33.16-.16.046-.343.087-.549.123-.206.032-.406.062-.602.09a66.2 66.2 0 0 0-.49.064 3.969 3.969 0 0 0-.847.197 1.463 1.463 0 0 0-.607.4c-.149.17-.224.397-.224.682 0 .394.146.692.437.894.291.199.662.299 1.113.299Zm7.406-9.812V287.5h-1.593v-10.909h1.593Z"/>
        </svg>
