<svg width="340" height="469" viewBox="0 0 340 469" fill="none" xmlns="http://www.w3.org/2000/svg">
<g clip-path="url(#clip0_292_522)">
<g filter="url(#filter0_d_292_522)">
<rect width="340" height="469" rx="31" fill="#120B36"/>
</g>
<path d="M169.5 175C136.646 175 110 201.648 110 234.53C110 267.412 136.634 294.06 169.5 294.06C202.366 294.06 229 267.412 229 234.53C229 201.648 202.366 175 169.5 175ZM209.494 273.515H169.5C147.41 273.515 129.506 255.602 129.506 233.501C129.506 211.4 147.41 193.487 169.5 193.487C191.59 193.487 209.494 211.4 209.494 233.501C209.494 245.383 204.315 256.045 196.099 263.368L209.494 273.515Z" fill="white"/>
<path d="M146.118 211.149H169.487C182.392 211.149 192.857 221.619 192.857 234.53C192.857 247.441 182.392 257.912 169.487 257.912C156.583 257.912 146.118 247.441 146.118 234.53C146.118 227.59 149.144 221.356 153.94 217.072L146.118 211.137V211.149Z" fill="white"/>
</g>
<defs>
<filter id="filter0_d_292_522" x="-60" y="-56" width="460" height="589" filterUnits="userSpaceOnUse" color-interpolation-filters="sRGB">
<feFlood flood-opacity="0" result="BackgroundImageFix"/>
<feColorMatrix in="SourceAlpha" type="matrix" values="0 0 0 0 0 0 0 0 0 0 0 0 0 0 0 0 0 0 127 0" result="hardAlpha"/>
<feOffset dy="4"/>
<feGaussianBlur stdDeviation="30"/>
<feComposite in2="hardAlpha" operator="out"/>
<feColorMatrix type="matrix" values="0 0 0 0 0 0 0 0 0 0 0 0 0 0 0 0 0 0 0.15 0"/>
<feBlend mode="normal" in2="BackgroundImageFix" result="effect1_dropShadow_292_522"/>
<feBlend mode="normal" in="SourceGraphic" in2="effect1_dropShadow_292_522" result="shape"/>
</filter>
<clipPath id="clip0_292_522">
<rect width="340" height="469" fill="white"/>
</clipPath>
</defs>
</svg>
