        <svg xmlns="http://www.w3.org/2000/svg" width="394" height="604" fill="none" viewBox="0 0 394 604">
          <rect width="394" height="604" fill="#fff" rx="30"/>
          <rect width="394" height="604" fill="#fff" rx="30"/>
          <path fill="#000" d="M36.732 52.457c-.085-.86-.45-1.527-1.097-2.003-.646-.476-1.523-.714-2.631-.714-.753 0-1.389.107-1.907.32-.519.206-.917.493-1.194.863-.27.369-.404.788-.404 1.257-.015.39.067.731.245 1.022.184.292.436.544.756.757.32.206.689.387 1.108.543.419.15.866.277 1.342.384l1.96.468c.952.214 1.826.498 2.621.853a7.962 7.962 0 0 1 2.067 1.31 5.447 5.447 0 0 1 1.353 1.832c.327.704.494 1.51.5 2.419-.006 1.335-.347 2.493-1.022 3.473-.668.973-1.634 1.73-2.898 2.269-1.257.533-2.773.799-4.549.799-1.761 0-3.295-.27-4.602-.81-1.3-.54-2.315-1.338-3.047-2.397-.724-1.065-1.104-2.383-1.14-3.952h4.464c.05.731.26 1.342.628 1.832.377.483.878.849 1.503 1.097.632.242 1.345.363 2.141.363.781 0 1.46-.114 2.035-.341.582-.227 1.033-.544 1.353-.948.32-.405.48-.87.48-1.396 0-.49-.146-.902-.438-1.236-.284-.334-.703-.618-1.257-.852-.547-.234-1.218-.447-2.013-.64l-2.376-.596c-1.84-.447-3.292-1.147-4.357-2.099-1.066-.951-1.595-2.233-1.588-3.845-.007-1.321.345-2.475 1.055-3.463.718-.987 1.701-1.758 2.951-2.312 1.25-.553 2.67-.83 4.261-.83 1.62 0 3.033.276 4.24.83 1.215.555 2.16 1.325 2.834 2.312.675.987 1.023 2.131 1.044 3.43h-4.42Zm16.441-.82v3.408H43.32v-3.409h9.854Zm-7.617-3.921h4.538v15.256c0 .419.064.745.192.98.128.227.305.387.533.48.234.091.504.138.81.138.212 0 .425-.018.639-.054l.49-.096.713 3.378c-.227.07-.546.152-.958.245-.412.099-.913.16-1.502.18-1.094.043-2.053-.102-2.877-.436-.817-.334-1.452-.852-1.907-1.556-.454-.703-.678-1.59-.671-2.663V47.716Zm15.24 20.593c-1.044 0-1.975-.181-2.792-.543a4.494 4.494 0 0 1-1.938-1.63c-.47-.725-.704-1.627-.704-2.706 0-.91.167-1.673.501-2.29a4.055 4.055 0 0 1 1.364-1.492 6.613 6.613 0 0 1 1.96-.853 14.946 14.946 0 0 1 2.322-.404c.952-.1 1.72-.192 2.301-.277.583-.093 1.005-.228 1.268-.405.263-.178.394-.44.394-.789v-.064c0-.674-.213-1.196-.639-1.566-.419-.369-1.015-.553-1.79-.553-.816 0-1.466.18-1.95.543-.482.355-.802.802-.958 1.342l-4.197-.34c.213-.995.632-1.854 1.257-2.579.625-.731 1.43-1.293 2.418-1.683.994-.398 2.145-.597 3.452-.597.909 0 1.779.107 2.61.32.838.213 1.58.543 2.227.99a4.815 4.815 0 0 1 1.544 1.727c.377.696.565 1.53.565 2.503V68h-4.304v-2.27h-.128a4.617 4.617 0 0 1-1.055 1.354 4.88 4.88 0 0 1-1.587.905c-.618.213-1.332.32-2.141.32Zm1.3-3.132c.667 0 1.257-.132 1.768-.394.511-.27.913-.632 1.204-1.087.29-.454.436-.97.436-1.545v-1.736a2.434 2.434 0 0 1-.586.255c-.241.072-.514.139-.82.203-.305.057-.61.11-.916.16l-.831.117a5.617 5.617 0 0 0-1.396.373c-.397.17-.706.401-.926.692-.22.284-.33.64-.33 1.066 0 .617.223 1.09.67 1.416.455.32 1.03.48 1.726.48ZM78.07 58.54V68h-4.538V51.636h4.325v2.887h.192a4.565 4.565 0 0 1 1.822-2.258c.852-.561 1.885-.842 3.1-.842 1.136 0 2.127.249 2.972.746.845.497 1.502 1.207 1.97 2.13.47.917.704 2.01.704 3.282V68h-4.538v-9.61c.007-1-.249-1.782-.767-2.343-.519-.568-1.233-.852-2.142-.852-.61 0-1.15.131-1.619.394a2.747 2.747 0 0 0-1.087 1.15c-.255.498-.387 1.098-.394 1.8Zm20.154 9.726c-1.243 0-2.369-.32-3.377-.959-1.002-.646-1.797-1.594-2.387-2.844-.582-1.257-.873-2.798-.873-4.623 0-1.876.301-3.434.905-4.677.604-1.25 1.406-2.184 2.408-2.802a6.169 6.169 0 0 1 3.313-.938c.916 0 1.68.157 2.291.469.617.305 1.115.689 1.491 1.15.384.455.675.903.874 1.343h.138v-8.203h4.528V68h-4.475v-2.62h-.191a5.838 5.838 0 0 1-.906 1.352c-.383.44-.884.806-1.502 1.097-.61.292-1.357.437-2.237.437Zm1.438-3.611c.731 0 1.349-.199 1.854-.597.511-.405.902-.97 1.172-1.694.276-.724.415-1.573.415-2.546 0-.973-.135-1.818-.405-2.535-.27-.718-.66-1.272-1.172-1.662-.511-.39-1.133-.586-1.864-.586-.746 0-1.374.202-1.886.607-.511.405-.898.966-1.16 1.683-.264.718-.395 1.549-.395 2.493 0 .952.131 1.794.394 2.525.27.724.657 1.293 1.161 1.705.512.404 1.14.607 1.886.607Zm16.27 3.654c-1.044 0-1.974-.181-2.791-.543a4.493 4.493 0 0 1-1.939-1.63c-.469-.725-.703-1.627-.703-2.706 0-.91.167-1.673.501-2.29a4.056 4.056 0 0 1 1.363-1.492 6.62 6.62 0 0 1 1.961-.853 14.92 14.92 0 0 1 2.322-.404 60.18 60.18 0 0 0 2.301-.277c.583-.093 1.005-.228 1.268-.405.263-.178.394-.44.394-.789v-.064c0-.674-.213-1.196-.639-1.566-.419-.369-1.016-.553-1.79-.553-.817 0-1.466.18-1.949.543-.483.355-.803.802-.959 1.342l-4.198-.34c.213-.995.632-1.854 1.257-2.579.625-.731 1.432-1.293 2.419-1.683.994-.398 2.145-.597 3.452-.597.909 0 1.779.107 2.61.32a6.83 6.83 0 0 1 2.226.99 4.815 4.815 0 0 1 1.545 1.727c.376.696.565 1.53.565 2.503V68h-4.304v-2.27h-.128a4.628 4.628 0 0 1-1.055 1.354 4.88 4.88 0 0 1-1.587.905c-.618.213-1.332.32-2.142.32Zm1.3-3.132c.668 0 1.257-.132 1.769-.394a3.13 3.13 0 0 0 1.203-1.087c.292-.454.437-.97.437-1.545v-1.736a2.428 2.428 0 0 1-.586.255c-.241.072-.515.139-.82.203-.305.057-.611.11-.916.16-.306.042-.583.081-.831.117a5.618 5.618 0 0 0-1.396.373c-.398.17-.707.401-.927.692-.22.284-.33.64-.33 1.066 0 .617.224 1.09.671 1.416.455.32 1.03.48 1.726.48ZM128.669 68V51.636h4.399v2.855h.171c.298-1.015.799-1.782 1.502-2.3.703-.526 1.513-.789 2.429-.789a6.725 6.725 0 0 1 1.427.16v4.027a5.908 5.908 0 0 0-.884-.17 7.94 7.94 0 0 0-1.033-.075c-.668 0-1.264.145-1.79.437-.518.284-.93.681-1.236 1.193-.298.511-.447 1.1-.447 1.768V68h-4.538Zm17.543.266c-1.243 0-2.369-.32-3.377-.959-1.002-.646-1.797-1.594-2.386-2.844-.583-1.257-.874-2.798-.874-4.623 0-1.876.302-3.434.905-4.677.604-1.25 1.407-2.184 2.408-2.802a6.17 6.17 0 0 1 3.313-.938c.917 0 1.68.157 2.291.469.618.305 1.115.689 1.491 1.15.384.455.675.903.874 1.343h.138v-8.203h4.528V68h-4.474v-2.62h-.192a5.838 5.838 0 0 1-.906 1.352c-.383.44-.884.806-1.502 1.097-.611.292-1.356.437-2.237.437Zm1.438-3.611c.732 0 1.35-.199 1.854-.597.511-.405.902-.97 1.172-1.694.277-.724.415-1.573.415-2.546 0-.973-.135-1.818-.405-2.535-.269-.718-.66-1.272-1.171-1.662-.512-.39-1.133-.586-1.865-.586-.746 0-1.374.202-1.885.607-.512.405-.899.966-1.162 1.683-.262.718-.394 1.549-.394 2.493 0 .952.132 1.794.394 2.525.27.724.657 1.293 1.162 1.705.511.404 1.139.607 1.885.607Z"/>
          <path fill="#2E2E2E" d="M21.616 91.14v-1.322h7.88v1.323H26.32V100h-1.532v-8.86h-3.172Zm10.989 4.326V100h-1.487V89.818h1.467v3.788h.094c.18-.41.453-.737.82-.979.369-.242.85-.363 1.443-.363.523 0 .98.108 1.372.323.394.216.7.537.914.965.22.424.329.954.329 1.59V100H36.07v-4.678c0-.56-.144-.995-.432-1.303-.289-.311-.69-.467-1.203-.467-.352 0-.667.074-.945.224a1.613 1.613 0 0 0-.651.656c-.156.285-.234.63-.234 1.034Zm10.227 4.688c-.753 0-1.4-.16-1.944-.482a3.271 3.271 0 0 1-1.253-1.367c-.292-.59-.438-1.281-.438-2.074 0-.782.146-1.471.438-2.068a3.397 3.397 0 0 1 1.233-1.397c.53-.334 1.15-.502 1.86-.502.43 0 .848.072 1.252.214.404.143.767.366 1.089.671.321.305.575.701.76 1.188.186.484.279 1.073.279 1.765v.527h-6.07v-1.113h4.613c0-.392-.08-.738-.239-1.04a1.803 1.803 0 0 0-.67-.72 1.875 1.875 0 0 0-1.005-.264 1.94 1.94 0 0 0-1.094.308 2.068 2.068 0 0 0-.716.796 2.296 2.296 0 0 0-.248 1.059v.87c0 .51.09.944.268 1.302.183.358.436.632.76.82.326.186.705.28 1.14.28.281 0 .538-.04.77-.12a1.599 1.599 0 0 0 .99-.97l1.406.254a2.549 2.549 0 0 1-.606 1.089 2.941 2.941 0 0 1-1.089.72c-.434.17-.93.254-1.486.254Zm8.75-.154V89.818h1.486v3.784h.09c.086-.16.21-.344.372-.552.163-.21.388-.391.676-.547.289-.16.67-.239 1.144-.239.616 0 1.167.156 1.65.468.484.311.864.76 1.139 1.347.278.587.418 1.292.418 2.118 0 .825-.138 1.533-.413 2.123-.275.586-.653 1.039-1.133 1.357a2.937 2.937 0 0 1-1.646.472c-.464 0-.844-.078-1.139-.234a2.155 2.155 0 0 1-.686-.546 4.142 4.142 0 0 1-.383-.557h-.124V100h-1.452Zm1.456-3.818c0 .537.078 1.007.234 1.412.156.404.381.72.676.95.295.225.656.337 1.084.337.444 0 .815-.117 1.113-.353a2.19 2.19 0 0 0 .677-.97c.155-.407.233-.866.233-1.376 0-.504-.076-.956-.228-1.357a2.077 2.077 0 0 0-.677-.95c-.298-.232-.67-.348-1.118-.348-.431 0-.796.111-1.094.333-.295.222-.519.532-.671.93-.153.397-.229.861-.229 1.392Zm9.41 3.987c-.484 0-.921-.089-1.312-.268a2.211 2.211 0 0 1-.93-.79c-.225-.346-.338-.768-.338-1.269 0-.43.083-.785.248-1.064.166-.278.39-.498.672-.66.281-.163.596-.286.944-.369a9.389 9.389 0 0 1 1.064-.189l1.114-.129c.285-.036.492-.094.621-.174.13-.08.194-.209.194-.388v-.034c0-.435-.122-.771-.368-1.01-.242-.238-.603-.358-1.084-.358-.5 0-.894.111-1.183.333-.285.22-.482.463-.591.731l-1.397-.318c.165-.464.407-.838.725-1.123a2.943 2.943 0 0 1 1.11-.627 4.328 4.328 0 0 1 1.317-.199c.305 0 .628.037.969.11.345.07.666.198.965.387.301.19.548.46.74.81.193.349.289.801.289 1.358V100h-1.452v-1.044h-.06c-.096.192-.24.381-.432.567-.192.185-.44.34-.741.462-.302.123-.663.184-1.084.184Zm.323-1.193c.411 0 .763-.081 1.054-.244.295-.162.519-.374.671-.636a1.65 1.65 0 0 0 .234-.85v-.985c-.053.053-.156.103-.308.15a4.81 4.81 0 0 1-.512.114c-.192.03-.38.058-.562.084l-.457.06a3.688 3.688 0 0 0-.79.184c-.236.086-.425.21-.568.373-.139.159-.208.371-.208.636 0 .368.136.647.407.835.272.186.618.279 1.04.279Zm11.148-4.748-1.347.239a1.599 1.599 0 0 0-.269-.493 1.33 1.33 0 0 0-.487-.382c-.206-.1-.463-.15-.77-.15-.422 0-.773.095-1.055.284-.281.186-.422.426-.422.72a.76.76 0 0 0 .283.617c.189.156.494.284.915.383l1.213.278c.703.163 1.226.413 1.571.751s.517.777.517 1.318c0 .457-.133.865-.398 1.223-.262.354-.628.633-1.098.835-.468.202-1.01.303-1.626.303-.855 0-1.553-.182-2.093-.547-.54-.368-.872-.89-.994-1.566l1.436-.219c.09.375.274.658.552.85.279.19.642.284 1.089.284.487 0 .877-.101 1.168-.303.292-.206.438-.456.438-.751a.78.78 0 0 0-.269-.602c-.175-.162-.445-.285-.81-.367l-1.293-.284c-.712-.162-1.24-.42-1.58-.775-.339-.355-.508-.804-.508-1.348 0-.45.126-.845.378-1.183.252-.338.6-.602 1.044-.79.444-.193.953-.289 1.526-.289.826 0 1.475.18 1.95.537.473.355.786.83.939 1.427ZM75.702 100v-7.636h1.487V100h-1.487Zm.751-8.815a.945.945 0 0 1-.666-.258.84.84 0 0 1-.274-.627.83.83 0 0 1 .274-.626.935.935 0 0 1 .666-.264c.259 0 .48.088.661.264a.823.823 0 0 1 .279.626.835.835 0 0 1-.279.627.927.927 0 0 1-.66.258Zm5.952 8.969c-.739 0-1.375-.167-1.909-.502a3.325 3.325 0 0 1-1.223-1.397c-.285-.593-.427-1.273-.427-2.038 0-.776.145-1.46.437-2.054a3.352 3.352 0 0 1 1.233-1.397c.53-.334 1.155-.502 1.874-.502.58 0 1.097.108 1.552.323.454.212.82.51 1.098.895.282.385.45.834.502 1.347h-1.446a1.733 1.733 0 0 0-.547-.924c-.282-.259-.66-.388-1.134-.388-.414 0-.777.11-1.089.328-.308.216-.548.524-.72.925-.173.398-.259.868-.259 1.412 0 .557.085 1.037.254 1.442.169.404.407.717.716.94.311.221.677.332 1.098.332.282 0 .537-.051.766-.154a1.57 1.57 0 0 0 .582-.452c.159-.196.27-.431.333-.706h1.446a2.81 2.81 0 0 1-.482 1.322 2.775 2.775 0 0 1-1.079.915c-.447.222-.972.333-1.576.333Zm14.154-5.926-1.347.239a1.599 1.599 0 0 0-.268-.493 1.33 1.33 0 0 0-.487-.382c-.206-.1-.463-.15-.771-.15-.421 0-.772.095-1.054.284-.282.186-.423.426-.423.72a.76.76 0 0 0 .284.617c.189.156.494.284.915.383l1.213.278c.702.163 1.226.413 1.57.751.345.338.518.777.518 1.318 0 .457-.133.865-.398 1.223-.262.354-.628.633-1.099.835-.467.202-1.01.303-1.626.303-.855 0-1.552-.182-2.093-.547-.54-.368-.871-.89-.994-1.566l1.437-.219c.09.375.273.658.552.85.278.19.641.284 1.088.284.488 0 .877-.101 1.169-.303.291-.206.437-.456.437-.751a.78.78 0 0 0-.268-.602c-.176-.162-.446-.285-.81-.367l-1.293-.284c-.713-.162-1.24-.42-1.581-.775-.338-.355-.507-.804-.507-1.348 0-.45.126-.845.378-1.183.252-.338.6-.602 1.044-.79.444-.193.953-.289 1.526-.289.825 0 1.475.18 1.949.537.474.355.787.83.94 1.427Zm5.001 5.926c-.716 0-1.341-.164-1.875-.492a3.319 3.319 0 0 1-1.243-1.377c-.294-.59-.442-1.28-.442-2.068 0-.793.147-1.485.442-2.079a3.312 3.312 0 0 1 1.243-1.382c.534-.328 1.159-.492 1.875-.492s1.34.164 1.874.492a3.31 3.31 0 0 1 1.243 1.382c.295.594.442 1.286.442 2.079 0 .788-.147 1.478-.442 2.068a3.316 3.316 0 0 1-1.243 1.377c-.534.328-1.158.492-1.874.492Zm.005-1.248c.464 0 .848-.122 1.153-.368a2.15 2.15 0 0 0 .676-.98 3.89 3.89 0 0 0 .224-1.346c0-.488-.075-.935-.224-1.343a2.187 2.187 0 0 0-.676-.989c-.305-.249-.689-.373-1.153-.373-.468 0-.855.124-1.164.373a2.22 2.22 0 0 0-.68.99 3.958 3.958 0 0 0-.22 1.342c0 .49.073.94.22 1.347.148.408.375.734.68.98.309.245.696.367 1.164.367Zm6.7-9.088V100h-1.486V89.818h1.486Zm6.837 7.015v-4.47h1.492V100h-1.462v-1.322h-.079a2.386 2.386 0 0 1-.846 1.019c-.384.268-.863.402-1.436.402-.491 0-.925-.107-1.303-.323a2.278 2.278 0 0 1-.885-.97c-.212-.427-.318-.955-.318-1.585v-4.857h1.486v4.678c0 .52.145.935.433 1.243.288.308.663.462 1.124.462.278 0 .555-.07.83-.209.278-.139.509-.35.691-.631.185-.282.277-.64.273-1.074Zm7.054-4.47v1.194h-4.171v-1.193h4.171Zm-3.053-1.829h1.487v7.224c0 .288.043.505.129.651a.67.67 0 0 0 .333.293c.139.05.29.075.452.075.12 0 .224-.008.314-.025.089-.016.159-.03.208-.04l.269 1.228a2.928 2.928 0 0 1-.965.159 2.615 2.615 0 0 1-1.093-.208 1.88 1.88 0 0 1-.821-.677c-.208-.304-.313-.687-.313-1.148v-7.532ZM123.8 100v-7.636h1.487V100H123.8Zm.751-8.815a.943.943 0 0 1-.666-.258.838.838 0 0 1-.274-.627c0-.245.091-.454.274-.626a.933.933 0 0 1 .666-.264c.258 0 .479.088.661.264a.822.822 0 0 1 .278.626.834.834 0 0 1-.278.627.927.927 0 0 1-.661.258Zm5.952 8.969c-.716 0-1.341-.164-1.874-.492a3.316 3.316 0 0 1-1.243-1.377c-.295-.59-.443-1.28-.443-2.068 0-.793.148-1.485.443-2.079a3.31 3.31 0 0 1 1.243-1.382c.533-.328 1.158-.492 1.874-.492.716 0 1.341.164 1.874.492a3.31 3.31 0 0 1 1.243 1.382c.295.594.443 1.286.443 2.079 0 .788-.148 1.478-.443 2.068a3.316 3.316 0 0 1-1.243 1.377c-.533.328-1.158.492-1.874.492Zm.005-1.248c.464 0 .848-.122 1.153-.368.305-.245.531-.571.677-.98a3.89 3.89 0 0 0 .223-1.346c0-.488-.074-.935-.223-1.343a2.189 2.189 0 0 0-.677-.989c-.305-.249-.689-.373-1.153-.373-.467 0-.855.124-1.163.373a2.22 2.22 0 0 0-.681.99 3.956 3.956 0 0 0-.219 1.342c0 .49.073.94.219 1.347.149.408.376.734.681.98.308.245.696.367 1.163.367Zm6.7-3.44V100h-1.486v-7.636h1.427v1.242h.094c.176-.404.451-.729.826-.974.377-.245.853-.368 1.426-.368.521 0 .976.11 1.368.328.391.216.694.537.909.965.216.427.324.956.324 1.586V100h-1.487v-4.678c0-.554-.144-.986-.433-1.298-.288-.315-.684-.472-1.188-.472a1.86 1.86 0 0 0-.919.224 1.607 1.607 0 0 0-.632.656c-.152.285-.229.63-.229 1.034Zm12.603-1.238-1.347.239a1.601 1.601 0 0 0-.268-.493 1.334 1.334 0 0 0-.488-.382c-.205-.1-.462-.15-.77-.15-.421 0-.772.095-1.054.284-.282.186-.423.426-.423.72a.76.76 0 0 0 .284.617c.189.156.494.284.914.383l1.214.278c.702.163 1.226.413 1.571.751.344.338.517.777.517 1.318 0 .457-.133.865-.398 1.223-.262.354-.628.633-1.099.835-.467.202-1.009.303-1.626.303-.855 0-1.552-.182-2.093-.547-.54-.368-.871-.89-.994-1.566l1.437-.219c.089.375.273.658.552.85.278.19.641.284 1.088.284.488 0 .877-.101 1.169-.303.291-.206.437-.456.437-.751a.78.78 0 0 0-.268-.602c-.176-.162-.446-.285-.811-.367l-1.292-.284c-.713-.162-1.24-.42-1.581-.775-.338-.355-.507-.804-.507-1.348 0-.45.126-.845.378-1.183.252-.338.6-.602 1.044-.79.444-.193.953-.289 1.526-.289.825 0 1.475.18 1.949.537.474.355.787.83.939 1.427Zm9.123-1.864v1.193h-4.315v-1.193h4.315ZM155.802 100v-8.521c0-.478.105-.874.313-1.189.209-.318.486-.555.831-.71a2.646 2.646 0 0 1 1.123-.24 3.4 3.4 0 0 1 .766.075c.212.047.369.09.472.13l-.348 1.203a6.888 6.888 0 0 0-.268-.07 1.53 1.53 0 0 0-.398-.044c-.361 0-.62.089-.776.268-.152.179-.228.438-.228.776V100h-1.487Zm7.582.154c-.716 0-1.341-.164-1.874-.492a3.316 3.316 0 0 1-1.243-1.377c-.295-.59-.443-1.28-.443-2.068 0-.793.148-1.485.443-2.079a3.31 3.31 0 0 1 1.243-1.382c.533-.328 1.158-.492 1.874-.492.716 0 1.341.164 1.874.492a3.31 3.31 0 0 1 1.243 1.382c.295.594.443 1.286.443 2.079 0 .788-.148 1.478-.443 2.068a3.316 3.316 0 0 1-1.243 1.377c-.533.328-1.158.492-1.874.492Zm.005-1.248c.464 0 .848-.122 1.153-.368.305-.245.531-.571.676-.98.15-.407.224-.856.224-1.346a3.86 3.86 0 0 0-.224-1.343 2.18 2.18 0 0 0-.676-.989c-.305-.249-.689-.373-1.153-.373-.467 0-.855.124-1.164.373a2.235 2.235 0 0 0-.681.99 3.98 3.98 0 0 0-.218 1.342c0 .49.073.94.218 1.347.15.408.377.734.681.98.309.245.697.367 1.164.367Zm5.214 1.094v-7.636h1.437v1.213h.079a1.85 1.85 0 0 1 .736-.97 2.107 2.107 0 0 1 1.203-.358 6.372 6.372 0 0 1 .631.035v1.422a2.61 2.61 0 0 0-.318-.055 3.031 3.031 0 0 0-.457-.034c-.351 0-.665.074-.94.223a1.66 1.66 0 0 0-.885 1.497V100h-1.486Zm14.8-5.772-1.347.239a1.584 1.584 0 0 0-.269-.493 1.322 1.322 0 0 0-.487-.382c-.205-.1-.462-.15-.77-.15-.421 0-.773.095-1.054.284-.282.186-.423.426-.423.72 0 .256.095.461.283.617.189.156.494.284.915.383l1.213.278c.703.163 1.227.413 1.571.751.345.338.517.777.517 1.318 0 .457-.132.865-.397 1.223-.262.354-.628.633-1.099.835-.467.202-1.009.303-1.626.303-.855 0-1.553-.182-2.093-.547-.54-.368-.872-.89-.994-1.566l1.437-.219c.089.375.273.658.551.85.279.19.642.284 1.089.284.487 0 .877-.101 1.169-.303.291-.206.437-.456.437-.751a.78.78 0 0 0-.268-.602c-.176-.162-.446-.285-.811-.367l-1.292-.284c-.713-.162-1.24-.42-1.581-.775-.338-.355-.507-.804-.507-1.348 0-.45.126-.845.377-1.183.252-.338.6-.602 1.044-.79.445-.193.953-.289 1.527-.289.825 0 1.475.18 1.949.537.474.355.787.83.939 1.427Zm1.784 5.772v-7.636h1.427v1.242h.094a1.97 1.97 0 0 1 .781-.984c.361-.239.793-.358 1.297-.358.511 0 .938.12 1.283.358.348.239.605.567.77.984h.08c.182-.407.472-.732.87-.974.398-.245.872-.368 1.422-.368.693 0 1.258.217 1.695.651.441.435.661 1.09.661 1.964V100h-1.486v-4.981c0-.518-.141-.892-.423-1.124a1.535 1.535 0 0 0-1.009-.348c-.484 0-.86.149-1.128.447-.269.295-.403.675-.403 1.139V100h-1.482v-5.076c0-.414-.129-.747-.387-1-.259-.251-.595-.377-1.01-.377-.281 0-.542.074-.78.224-.236.145-.426.35-.572.611a1.879 1.879 0 0 0-.214.91V100h-1.486Zm14.595.169c-.484 0-.921-.089-1.312-.268a2.214 2.214 0 0 1-.93-.79c-.225-.346-.338-.768-.338-1.269 0-.43.083-.785.248-1.064.166-.278.39-.498.672-.66a3.49 3.49 0 0 1 .944-.369 9.396 9.396 0 0 1 1.064-.189l1.114-.129c.285-.036.492-.094.621-.174.129-.08.194-.209.194-.388v-.034c0-.435-.123-.771-.368-1.01-.242-.238-.603-.358-1.084-.358-.5 0-.894.111-1.183.333-.285.22-.482.463-.591.731l-1.397-.318c.165-.464.407-.838.725-1.123a2.945 2.945 0 0 1 1.109-.627 4.331 4.331 0 0 1 1.318-.199c.304 0 .628.037.969.11.345.07.666.198.964.387.302.19.549.46.741.81.192.349.289.801.289 1.358V100h-1.452v-1.044h-.06c-.096.192-.24.381-.432.567-.193.185-.439.34-.741.462-.302.123-.663.184-1.084.184Zm.323-1.193c.411 0 .763-.081 1.054-.244.295-.162.519-.374.671-.636a1.65 1.65 0 0 0 .234-.85v-.985c-.053.053-.156.103-.308.15-.149.043-.32.08-.512.114-.192.03-.38.058-.562.084l-.457.06a3.687 3.687 0 0 0-.791.184c-.235.086-.424.21-.567.373-.139.159-.208.371-.208.636 0 .368.135.647.407.835.272.186.618.279 1.039.279Zm6.912-9.158V100h-1.486V89.818h1.486Zm3.486 0V100h-1.486V89.818h1.486ZM216.328 100V89.818h1.486v3.784h.09c.086-.16.21-.344.372-.552a2.1 2.1 0 0 1 .677-.547c.288-.16.669-.239 1.143-.239a2.98 2.98 0 0 1 1.651.468c.484.311.863.76 1.138 1.347.279.587.418 1.292.418 2.118 0 .825-.138 1.533-.413 2.123-.275.586-.653 1.039-1.133 1.357a2.938 2.938 0 0 1-1.646.472c-.464 0-.844-.078-1.139-.234a2.165 2.165 0 0 1-.686-.546 4.146 4.146 0 0 1-.382-.557h-.125V100h-1.451Zm1.456-3.818c0 .537.078 1.007.234 1.412.156.404.381.72.676.95.295.225.656.337 1.084.337.444 0 .815-.117 1.114-.353.298-.238.523-.561.676-.97.155-.407.233-.866.233-1.376 0-.504-.076-.956-.228-1.357a2.082 2.082 0 0 0-.677-.95c-.298-.232-.671-.348-1.118-.348-.431 0-.796.111-1.094.333-.295.222-.519.532-.671.93-.153.397-.229.861-.229 1.392Zm12.025.651v-4.47h1.492V100h-1.462v-1.322h-.079a2.386 2.386 0 0 1-.846 1.019c-.384.268-.863.402-1.436.402-.491 0-.925-.107-1.303-.323a2.278 2.278 0 0 1-.885-.97c-.212-.427-.318-.955-.318-1.585v-4.857h1.486v4.678c0 .52.145.935.433 1.243.288.308.663.462 1.124.462.278 0 .555-.07.83-.209.278-.139.509-.35.691-.631.185-.282.277-.64.273-1.074Zm9.211-2.605-1.347.239a1.601 1.601 0 0 0-.268-.493 1.334 1.334 0 0 0-.488-.382c-.205-.1-.462-.15-.77-.15-.421 0-.772.095-1.054.284-.282.186-.423.426-.423.72a.76.76 0 0 0 .284.617c.189.156.494.284.914.383l1.213.278c.703.163 1.227.413 1.572.751.344.338.517.777.517 1.318 0 .457-.133.865-.398 1.223-.262.354-.628.633-1.099.835-.467.202-1.009.303-1.626.303-.855 0-1.552-.182-2.093-.547-.54-.368-.871-.89-.994-1.566l1.437-.219c.089.375.273.658.552.85.278.19.641.284 1.088.284.488 0 .877-.101 1.169-.303.291-.206.437-.456.437-.751a.78.78 0 0 0-.268-.602c-.176-.162-.446-.285-.811-.367l-1.292-.284c-.713-.162-1.24-.42-1.581-.775-.338-.355-.507-.804-.507-1.348 0-.45.126-.845.378-1.183.252-.338.6-.602 1.044-.79.444-.193.953-.289 1.526-.289.825 0 1.475.18 1.949.537.474.355.787.83.939 1.427Zm1.784 5.772v-7.636h1.486V100h-1.486Zm.751-8.815a.947.947 0 0 1-.667-.258.841.841 0 0 1-.273-.627.83.83 0 0 1 .273-.626.937.937 0 0 1 .667-.264c.258 0 .479.088.661.264a.822.822 0 0 1 .278.626.834.834 0 0 1-.278.627.927.927 0 0 1-.661.258Zm4.222 4.28V100h-1.487v-7.636h1.427v1.242h.095c.175-.404.45-.729.825-.974.378-.245.853-.368 1.427-.368.52 0 .976.11 1.367.328a2.2 2.2 0 0 1 .91.965c.215.427.323.956.323 1.586V100h-1.487v-4.678c0-.554-.144-.986-.432-1.298-.289-.315-.685-.472-1.188-.472a1.86 1.86 0 0 0-.92.224 1.605 1.605 0 0 0-.631.656c-.153.285-.229.63-.229 1.034Zm10.172 4.689c-.753 0-1.401-.16-1.944-.482a3.273 3.273 0 0 1-1.253-1.367c-.292-.59-.438-1.281-.438-2.074 0-.782.146-1.471.438-2.068a3.398 3.398 0 0 1 1.233-1.397c.53-.334 1.15-.502 1.859-.502.431 0 .849.072 1.253.214.404.143.767.366 1.089.671.321.305.575.701.761 1.188.185.484.278 1.073.278 1.765v.527h-6.07v-1.113h4.613c0-.392-.079-.738-.238-1.04a1.8 1.8 0 0 0-.672-.72 1.873 1.873 0 0 0-1.004-.264c-.417 0-.782.103-1.094.308a2.069 2.069 0 0 0-.715.796 2.293 2.293 0 0 0-.249 1.059v.87c0 .51.089.944.268 1.302.183.358.436.632.761.82.325.186.704.28 1.139.28.281 0 .538-.04.77-.12.232-.083.433-.206.602-.368a1.6 1.6 0 0 0 .388-.602l1.407.254a2.549 2.549 0 0 1-.607 1.089 2.935 2.935 0 0 1-1.089.72c-.434.17-.929.254-1.486.254Zm10.648-5.926-1.348.239a1.601 1.601 0 0 0-.268-.493 1.33 1.33 0 0 0-.487-.382c-.206-.1-.463-.15-.771-.15-.421 0-.772.095-1.054.284-.282.186-.423.426-.423.72a.76.76 0 0 0 .284.617c.189.156.494.284.915.383l1.213.278c.702.163 1.226.413 1.571.751.344.338.517.777.517 1.318 0 .457-.133.865-.398 1.223-.262.354-.628.633-1.099.835-.467.202-1.009.303-1.625.303-.856 0-1.553-.182-2.093-.547-.541-.368-.872-.89-.995-1.566l1.437-.219c.09.375.273.658.552.85.278.19.641.284 1.089.284.487 0 .876-.101 1.168-.303.292-.206.437-.456.437-.751a.78.78 0 0 0-.268-.602c-.176-.162-.446-.285-.81-.367l-1.293-.284c-.713-.162-1.24-.42-1.581-.775-.338-.355-.507-.804-.507-1.348 0-.45.126-.845.378-1.183.252-.338.6-.602 1.044-.79.444-.193.953-.289 1.526-.289.825 0 1.475.18 1.949.537.474.355.787.83.94 1.427Zm7.505 0-1.347.239a1.601 1.601 0 0 0-.268-.493 1.334 1.334 0 0 0-.488-.382c-.205-.1-.462-.15-.77-.15-.421 0-.772.095-1.054.284-.282.186-.423.426-.423.72a.76.76 0 0 0 .284.617c.189.156.494.284.914.383l1.214.278c.702.163 1.226.413 1.571.751.344.338.517.777.517 1.318 0 .457-.133.865-.398 1.223-.262.354-.628.633-1.099.835-.467.202-1.009.303-1.626.303-.855 0-1.552-.182-2.093-.547-.54-.368-.871-.89-.994-1.566l1.437-.219c.089.375.273.658.552.85.278.19.641.284 1.088.284.488 0 .877-.101 1.169-.303.291-.206.437-.456.437-.751a.78.78 0 0 0-.268-.602c-.176-.162-.446-.285-.811-.367l-1.292-.284c-.713-.162-1.24-.42-1.581-.775-.338-.355-.507-.804-.507-1.348 0-.45.126-.845.378-1.183.252-.338.6-.602 1.044-.79.444-.193.953-.289 1.526-.289.825 0 1.475.18 1.949.537.474.355.787.83.939 1.427Zm5.075 5.926c-.752 0-1.4-.16-1.944-.482a3.273 3.273 0 0 1-1.253-1.367c-.291-.59-.437-1.281-.437-2.074 0-.782.146-1.471.437-2.068a3.398 3.398 0 0 1 1.233-1.397c.531-.334 1.151-.502 1.86-.502.431 0 .848.072 1.253.214a3.03 3.03 0 0 1 1.088.671c.322.305.575.701.761 1.188.186.484.278 1.073.278 1.765v.527h-6.07v-1.113h4.614c0-.392-.08-.738-.239-1.04a1.805 1.805 0 0 0-.671-.72 1.875 1.875 0 0 0-1.004-.264c-.418 0-.782.103-1.094.308a2.071 2.071 0 0 0-.716.796 2.292 2.292 0 0 0-.248 1.059v.87c0 .51.089.944.268 1.302.182.358.436.632.761.82.324.186.704.28 1.138.28.282 0 .539-.04.771-.12a1.593 1.593 0 0 0 .989-.97l1.407.254a2.549 2.549 0 0 1-.607 1.089 2.939 2.939 0 0 1-1.088.72c-.434.17-.93.254-1.487.254Zm10.648-5.926-1.347.239a1.605 1.605 0 0 0-.269-.493 1.322 1.322 0 0 0-.487-.382c-.205-.1-.462-.15-.77-.15-.421 0-.773.095-1.054.284-.282.186-.423.426-.423.72a.76.76 0 0 0 .283.617c.189.156.494.284.915.383l1.213.278c.703.163 1.227.413 1.571.751.345.338.517.777.517 1.318 0 .457-.132.865-.397 1.223-.262.354-.629.633-1.099.835-.468.202-1.009.303-1.626.303-.855 0-1.553-.182-2.093-.547-.54-.368-.872-.89-.994-1.566l1.437-.219c.089.375.273.658.551.85.279.19.642.284 1.089.284.487 0 .877-.101 1.168-.303.292-.206.438-.456.438-.751 0-.239-.09-.44-.268-.602-.176-.162-.446-.285-.811-.367l-1.292-.284c-.713-.162-1.24-.42-1.581-.775-.339-.355-.508-.804-.508-1.348 0-.45.126-.845.378-1.183.252-.338.6-.602 1.044-.79.444-.193.953-.289 1.527-.289.825 0 1.475.18 1.948.537.474.355.788.83.94 1.427Zm7.144 5.772-2.247-7.636h1.536l1.497 5.608h.074l1.502-5.608h1.536l1.491 5.583h.075l1.487-5.583h1.536L303.214 100h-1.517l-1.551-5.513h-.114L298.481 100h-1.512Zm9.897 0v-7.636h1.487V100h-1.487Zm.751-8.815a.946.946 0 0 1-.666-.258.841.841 0 0 1-.273-.627.83.83 0 0 1 .273-.626.936.936 0 0 1 .666-.264c.259 0 .479.088.661.264a.823.823 0 0 1 .279.626.835.835 0 0 1-.279.627.926.926 0 0 1-.661.258Zm6.3 1.179v1.193h-4.171v-1.193h4.171Zm-3.052-1.83h1.486v7.224c0 .288.043.505.13.651a.67.67 0 0 0 .333.293c.139.05.29.075.452.075.119 0 .224-.008.313-.025.09-.016.159-.03.209-.04l.269 1.228a2.928 2.928 0 0 1-.965.159 2.62 2.62 0 0 1-1.094-.208 1.877 1.877 0 0 1-.82-.677c-.209-.304-.313-.687-.313-1.148v-7.532Zm6.347 4.932V100h-1.486V89.818h1.466v3.788h.095c.179-.41.452-.737.82-.979.368-.242.849-.363 1.442-.363.524 0 .981.108 1.372.323.395.216.7.537.915.965.219.424.328.954.328 1.59V100h-1.486v-4.678c0-.56-.145-.995-.433-1.303-.288-.311-.689-.467-1.203-.467-.351 0-.666.074-.945.224a1.613 1.613 0 0 0-.651.656c-.156.285-.234.63-.234 1.034Zm15.478 1.367v-4.47h1.492V100h-1.462v-1.322h-.08a2.376 2.376 0 0 1-.845 1.019c-.384.268-.863.402-1.437.402-.49 0-.924-.107-1.302-.323a2.265 2.265 0 0 1-.885-.97c-.212-.427-.318-.955-.318-1.585v-4.857h1.486v4.678c0 .52.144.935.433 1.243.288.308.663.462 1.123.462.279 0 .556-.07.831-.209.278-.139.508-.35.691-.631.185-.282.276-.64.273-1.074Zm3.489 6.031v-10.5h1.452v1.238h.124c.086-.16.21-.344.373-.552.162-.21.388-.391.676-.547.288-.16.669-.239 1.143-.239a2.98 2.98 0 0 1 1.651.468c.484.311.863.76 1.139 1.347.278.587.417 1.292.417 2.118 0 .825-.137 1.533-.413 2.123-.275.586-.652 1.039-1.133 1.357a2.936 2.936 0 0 1-1.646.472c-.464 0-.843-.078-1.138-.234a2.154 2.154 0 0 1-.686-.546 4.072 4.072 0 0 1-.383-.557h-.09v4.052h-1.486Zm1.457-6.682c0 .537.078 1.007.233 1.412.156.404.381.72.676.95.295.225.657.337 1.084.337.444 0 .816-.117 1.114-.353a2.18 2.18 0 0 0 .676-.97c.156-.407.234-.866.234-1.376 0-.504-.077-.956-.229-1.357a2.08 2.08 0 0 0-.676-.95c-.298-.232-.671-.348-1.119-.348-.431 0-.795.111-1.093.333-.295.222-.519.532-.672.93-.152.397-.228.861-.228 1.392Zm14.23 3.957c-.624 0-1.184-.119-1.681-.358a3.051 3.051 0 0 1-1.183-.994 2.626 2.626 0 0 1-.472-1.442h1.491c.037.438.23.797.582 1.079.351.282.772.423 1.263.423.391 0 .737-.09 1.039-.269a1.93 1.93 0 0 0 .716-.75c.175-.319.263-.682.263-1.09 0-.414-.089-.783-.268-1.108a1.983 1.983 0 0 0-.741-.766 2.095 2.095 0 0 0-1.074-.283c-.308 0-.618.053-.93.16a2.158 2.158 0 0 0-.755.417l-1.407-.21.571-5.13h5.598v1.318h-4.32l-.323 2.848h.06c.198-.192.462-.353.79-.482.331-.13.686-.194 1.064-.194.62 0 1.172.148 1.656.443.487.295.87.697 1.148 1.208.282.507.421 1.09.418 1.75.003.66-.146 1.248-.448 1.765a3.233 3.233 0 0 1-1.243 1.223c-.527.295-1.132.442-1.814.442Zm8.865.03c-.785-.003-1.456-.21-2.013-.621-.557-.411-.983-1.01-1.278-1.795-.295-.786-.442-1.732-.442-2.839 0-1.104.147-2.047.442-2.829.298-.782.726-1.379 1.283-1.79.56-.41 1.229-.616 2.008-.616.779 0 1.447.207 2.004.621.557.411.982 1.008 1.277 1.79.299.78.448 1.72.448 2.824 0 1.11-.148 2.058-.443 2.844-.295.782-.72 1.38-1.277 1.795-.557.41-1.227.616-2.009.616Zm0-1.327c.69 0 1.228-.337 1.616-1.01.391-.672.587-1.645.587-2.918 0-.845-.09-1.56-.269-2.143-.176-.586-.429-1.03-.761-1.332a1.664 1.664 0 0 0-1.173-.457c-.686 0-1.224.338-1.616 1.014-.391.676-.588 1.649-.591 2.918 0 .849.088 1.566.263 2.153.179.583.433 1.026.761 1.327.328.298.722.448 1.183.448ZM25.216 117.154c-.74 0-1.376-.167-1.91-.502a3.325 3.325 0 0 1-1.222-1.397c-.285-.593-.428-1.273-.428-2.038 0-.776.146-1.46.438-2.054a3.356 3.356 0 0 1 1.233-1.397c.53-.334 1.155-.502 1.874-.502.58 0 1.097.108 1.551.323.454.212.82.511 1.099.895.282.385.449.834.502 1.348h-1.447a1.732 1.732 0 0 0-.547-.925c-.281-.259-.66-.388-1.133-.388-.414 0-.777.109-1.089.328-.308.216-.549.524-.72.925-.173.398-.26.868-.26 1.412 0 .557.085 1.037.254 1.442.17.404.408.717.716.939.312.222.678.333 1.099.333.282 0 .537-.051.765-.154.233-.106.426-.257.582-.452.16-.196.27-.431.333-.706h1.447a2.809 2.809 0 0 1-.482 1.322 2.772 2.772 0 0 1-1.08.915c-.447.222-.972.333-1.575.333Zm9.564-3.321v-4.469h1.492V117H34.81v-1.322h-.08a2.388 2.388 0 0 1-.845 1.019c-.384.268-.863.402-1.437.402-.49 0-.924-.107-1.302-.323a2.268 2.268 0 0 1-.885-.969c-.212-.428-.318-.956-.318-1.586v-4.857h1.486v4.678c0 .52.144.935.433 1.243.288.308.663.462 1.123.462.279 0 .555-.069.83-.209a1.74 1.74 0 0 0 .692-.631c.185-.282.276-.64.273-1.074Zm9.211-2.605-1.347.239a1.594 1.594 0 0 0-.269-.493 1.331 1.331 0 0 0-.487-.382c-.205-.1-.462-.15-.77-.15-.421 0-.773.095-1.054.284-.282.185-.423.426-.423.721 0 .255.094.46.283.616.19.156.494.284.915.383l1.213.278c.703.163 1.227.413 1.571.751.345.338.517.777.517 1.318 0 .457-.132.865-.398 1.223-.261.354-.627.633-1.098.835-.468.202-1.01.303-1.626.303-.855 0-1.553-.182-2.093-.547-.54-.368-.872-.89-.994-1.566l1.437-.219c.089.375.273.658.551.851.279.189.642.283 1.09.283.486 0 .876-.101 1.167-.303.292-.206.438-.456.438-.751a.781.781 0 0 0-.268-.602c-.176-.162-.446-.285-.81-.367l-1.294-.284c-.712-.162-1.239-.421-1.58-.775-.338-.355-.508-.804-.508-1.348 0-.45.126-.845.378-1.183.252-.338.6-.602 1.044-.79.444-.193.953-.289 1.527-.289.825 0 1.474.179 1.948.537.474.355.788.83.94 1.427Zm5.348-1.864v1.193h-4.17v-1.193h4.17Zm-3.052-1.83h1.486v7.224c0 .288.043.505.13.651a.67.67 0 0 0 .333.293c.139.05.29.075.452.075.12 0 .224-.008.313-.025.09-.016.16-.03.209-.04l.268 1.228a2.927 2.927 0 0 1-.964.159 2.624 2.624 0 0 1-1.094-.208 1.878 1.878 0 0 1-.82-.677c-.209-.304-.313-.687-.313-1.148v-7.532Zm7.831 9.62c-.716 0-1.34-.164-1.874-.492a3.316 3.316 0 0 1-1.243-1.377c-.295-.59-.442-1.28-.442-2.068 0-.793.147-1.485.442-2.079a3.318 3.318 0 0 1 1.243-1.382c.534-.328 1.158-.492 1.874-.492.716 0 1.34.164 1.874.492a3.31 3.31 0 0 1 1.243 1.382c.295.594.443 1.286.443 2.079 0 .788-.148 1.478-.443 2.068a3.316 3.316 0 0 1-1.242 1.377c-.534.328-1.159.492-1.875.492Zm.005-1.248c.464 0 .849-.122 1.154-.368.305-.245.53-.571.676-.979a3.9 3.9 0 0 0 .223-1.347c0-.488-.074-.935-.223-1.343a2.188 2.188 0 0 0-.676-.989c-.305-.249-.69-.373-1.154-.373-.467 0-.855.124-1.163.373a2.222 2.222 0 0 0-.681.989 3.96 3.96 0 0 0-.219 1.343c0 .49.073.939.219 1.347.149.408.376.734.68.979.31.246.697.368 1.164.368ZM59.337 117v-7.636h1.427v1.243h.094c.16-.421.42-.75.781-.985.361-.238.794-.358 1.298-.358.51 0 .938.12 1.282.358a2.1 2.1 0 0 1 .77.985h.08c.183-.408.473-.733.87-.975.398-.245.872-.368 1.422-.368.693 0 1.258.217 1.696.651.44.435.66 1.089.66 1.964V117h-1.486v-4.982c0-.517-.14-.891-.422-1.123a1.537 1.537 0 0 0-1.01-.348c-.483 0-.86.149-1.128.447-.269.295-.403.675-.403 1.139V117h-1.481v-5.076c0-.414-.13-.747-.388-.999-.259-.252-.595-.378-1.01-.378-.281 0-.541.074-.78.224a1.633 1.633 0 0 0-.572.611 1.873 1.873 0 0 0-.213.91V117h-1.487Zm15.664.154c-.752 0-1.4-.161-1.944-.482a3.276 3.276 0 0 1-1.252-1.367c-.292-.59-.438-1.281-.438-2.073 0-.783.146-1.472.438-2.069a3.403 3.403 0 0 1 1.233-1.397c.53-.334 1.15-.502 1.859-.502.43 0 .849.071 1.253.214a3.04 3.04 0 0 1 1.089.671c.321.305.575.701.76 1.188.186.484.279 1.073.279 1.765v.527h-6.07v-1.113h4.613c0-.391-.08-.738-.239-1.039a1.8 1.8 0 0 0-.67-.721 1.873 1.873 0 0 0-1.005-.264c-.418 0-.782.103-1.094.308a2.077 2.077 0 0 0-.716.796 2.298 2.298 0 0 0-.248 1.059v.87c0 .51.09.944.268 1.302.182.358.436.632.76.821.326.185.705.278 1.14.278.281 0 .538-.04.77-.119a1.594 1.594 0 0 0 .99-.97l1.406.254a2.553 2.553 0 0 1-.606 1.089 2.95 2.95 0 0 1-1.09.721c-.433.169-.929.253-1.486.253Zm4.926-.154v-7.636h1.437v1.213h.08a1.85 1.85 0 0 1 .735-.97 2.11 2.11 0 0 1 1.203-.358 7.159 7.159 0 0 1 .632.035v1.422a2.584 2.584 0 0 0-.319-.055 3.063 3.063 0 0 0-.457-.035c-.351 0-.664.075-.94.224a1.663 1.663 0 0 0-.885 1.497V117h-1.486Zm9.078 0v-7.636h1.437v1.213h.08a1.85 1.85 0 0 1 .735-.97 2.11 2.11 0 0 1 1.203-.358 7.159 7.159 0 0 1 .632.035v1.422a2.584 2.584 0 0 0-.318-.055 3.062 3.062 0 0 0-.458-.035c-.351 0-.664.075-.94.224a1.663 1.663 0 0 0-.884 1.497V117h-1.487Zm8.391.154c-.752 0-1.4-.161-1.944-.482a3.275 3.275 0 0 1-1.253-1.367c-.291-.59-.437-1.281-.437-2.073 0-.783.146-1.472.437-2.069a3.403 3.403 0 0 1 1.233-1.397c.53-.334 1.15-.502 1.86-.502.43 0 .848.071 1.252.214a3.04 3.04 0 0 1 1.09.671c.32.305.574.701.76 1.188.185.484.278 1.073.278 1.765v.527h-6.07v-1.113h4.614c0-.391-.08-.738-.24-1.039a1.8 1.8 0 0 0-.67-.721 1.873 1.873 0 0 0-1.004-.264c-.418 0-.783.103-1.094.308a2.078 2.078 0 0 0-.716.796 2.298 2.298 0 0 0-.249 1.059v.87c0 .51.09.944.269 1.302.182.358.436.632.76.821.325.185.705.278 1.139.278.282 0 .538-.04.77-.119a1.593 1.593 0 0 0 .99-.97l1.407.254a2.555 2.555 0 0 1-.607 1.089 2.95 2.95 0 0 1-1.089.721c-.434.169-.93.253-1.486.253Zm10.081 2.71v-4.052h-.089a4.02 4.02 0 0 1-.388.557 2.164 2.164 0 0 1-.686.546c-.292.156-.67.234-1.134.234a2.957 2.957 0 0 1-1.65-.472c-.481-.318-.859-.771-1.134-1.357-.272-.59-.408-1.298-.408-2.123 0-.826.138-1.532.413-2.118.279-.587.66-1.036 1.144-1.347a2.967 2.967 0 0 1 1.645-.468c.474 0 .855.08 1.144.239.291.156.517.338.676.547.162.209.288.392.378.552h.124v-1.238h1.452v10.5h-1.487Zm-1.969-3.983c.428 0 .789-.112 1.084-.338.298-.228.524-.545.676-.949.156-.405.234-.875.234-1.412 0-.53-.076-.995-.229-1.392-.152-.398-.376-.708-.671-.93-.295-.222-.659-.333-1.094-.333-.447 0-.82.116-1.118.348a2.12 2.12 0 0 0-.676.95c-.15.401-.224.853-.224 1.357 0 .51.076.969.229 1.377.152.408.377.731.676.969.301.236.673.353 1.113.353Zm10.292-2.048v-4.469h1.491V117h-1.462v-1.322h-.079a2.396 2.396 0 0 1-.845 1.019c-.385.268-.864.402-1.437.402-.491 0-.925-.107-1.303-.323a2.275 2.275 0 0 1-.885-.969c-.212-.428-.318-.956-.318-1.586v-4.857h1.487v4.678c0 .52.144.935.432 1.243.289.308.663.462 1.124.462.278 0 .555-.069.83-.209.278-.139.509-.349.691-.631.186-.282.277-.64.274-1.074Zm6.78 3.321c-.753 0-1.401-.161-1.944-.482a3.271 3.271 0 0 1-1.253-1.367c-.292-.59-.438-1.281-.438-2.073 0-.783.146-1.472.438-2.069a3.403 3.403 0 0 1 1.233-1.397c.53-.334 1.15-.502 1.859-.502.431 0 .849.071 1.253.214.404.143.767.366 1.089.671.321.305.575.701.76 1.188.186.484.279 1.073.279 1.765v.527h-6.07v-1.113h4.613c0-.391-.079-.738-.238-1.039a1.804 1.804 0 0 0-.672-.721 1.87 1.87 0 0 0-1.004-.264c-.418 0-.782.103-1.094.308a2.079 2.079 0 0 0-.716.796 2.306 2.306 0 0 0-.248 1.059v.87c0 .51.089.944.268 1.302.183.358.436.632.761.821a2.26 2.26 0 0 0 1.138.278c.282 0 .539-.04.771-.119a1.587 1.587 0 0 0 .989-.97l1.407.254a2.552 2.552 0 0 1-.606 1.089 2.953 2.953 0 0 1-1.089.721c-.434.169-.93.253-1.486.253Zm10.647-5.926-1.347.239a1.6 1.6 0 0 0-.268-.493 1.335 1.335 0 0 0-.488-.382c-.205-.1-.462-.15-.77-.15-.421 0-.772.095-1.054.284-.282.185-.423.426-.423.721 0 .255.095.46.284.616.189.156.494.284.914.383l1.214.278c.702.163 1.226.413 1.571.751.344.338.517.777.517 1.318 0 .457-.133.865-.398 1.223-.262.354-.628.633-1.099.835-.467.202-1.009.303-1.626.303-.855 0-1.552-.182-2.093-.547-.54-.368-.871-.89-.994-1.566l1.437-.219c.089.375.273.658.552.851.278.189.641.283 1.088.283.488 0 .877-.101 1.169-.303.291-.206.437-.456.437-.751a.78.78 0 0 0-.268-.602c-.176-.162-.446-.285-.811-.367l-1.292-.284c-.713-.162-1.24-.421-1.581-.775-.338-.355-.507-.804-.507-1.348 0-.45.126-.845.378-1.183.252-.338.6-.602 1.044-.79.444-.193.953-.289 1.526-.289.825 0 1.475.179 1.949.537.474.355.787.83.939 1.427Zm5.349-1.864v1.193h-4.172v-1.193h4.172Zm-3.053-1.83h1.487v7.224c0 .288.043.505.129.651a.67.67 0 0 0 .333.293c.139.05.29.075.452.075.12 0 .224-.008.314-.025.089-.016.159-.03.208-.04l.269 1.228a2.928 2.928 0 0 1-.965.159 2.62 2.62 0 0 1-1.093-.208 1.882 1.882 0 0 1-.821-.677c-.209-.304-.313-.687-.313-1.148v-7.532Zm10.296 3.694-1.347.239a1.582 1.582 0 0 0-.269-.493 1.322 1.322 0 0 0-.487-.382c-.205-.1-.462-.15-.77-.15-.421 0-.773.095-1.054.284-.282.185-.423.426-.423.721 0 .255.095.46.283.616.189.156.494.284.915.383l1.213.278c.703.163 1.227.413 1.571.751.345.338.517.777.517 1.318 0 .457-.132.865-.397 1.223-.262.354-.628.633-1.099.835-.467.202-1.009.303-1.626.303-.855 0-1.553-.182-2.093-.547-.54-.368-.871-.89-.994-1.566l1.437-.219c.089.375.273.658.552.851.278.189.641.283 1.088.283.488 0 .877-.101 1.169-.303.291-.206.437-.456.437-.751a.78.78 0 0 0-.268-.602c-.176-.162-.446-.285-.811-.367l-1.292-.284c-.713-.162-1.24-.421-1.581-.775-.338-.355-.507-.804-.507-1.348 0-.45.126-.845.377-1.183.252-.338.6-.602 1.044-.79.445-.193.953-.289 1.527-.289.825 0 1.475.179 1.949.537.474.355.787.83.939 1.427Zm5.489 8.636v-10.5h1.452v1.238h.124c.086-.16.21-.343.373-.552.162-.209.388-.391.676-.547.288-.159.669-.239 1.143-.239a2.98 2.98 0 0 1 1.651.468c.484.311.863.76 1.138 1.347.279.586.418 1.292.418 2.118 0 .825-.138 1.533-.413 2.123-.275.586-.653 1.039-1.133 1.357a2.935 2.935 0 0 1-1.646.472c-.464 0-.843-.078-1.138-.234a2.141 2.141 0 0 1-.686-.546 4.11 4.11 0 0 1-.383-.557h-.09v4.052h-1.486Zm1.457-6.682c0 .537.077 1.007.233 1.412.156.404.381.721.676.949.295.226.657.338 1.084.338.444 0 .816-.117 1.114-.353a2.19 2.19 0 0 0 .676-.969c.156-.408.234-.867.234-1.377 0-.504-.077-.956-.229-1.357a2.082 2.082 0 0 0-.676-.95c-.299-.232-.671-.348-1.119-.348-.431 0-.795.111-1.094.333-.295.222-.518.532-.671.93-.152.397-.228.862-.228 1.392Zm10.475 3.972c-.753 0-1.401-.161-1.944-.482a3.278 3.278 0 0 1-1.253-1.367c-.292-.59-.438-1.281-.438-2.073 0-.783.146-1.472.438-2.069a3.403 3.403 0 0 1 1.233-1.397c.53-.334 1.15-.502 1.859-.502.431 0 .849.071 1.253.214.404.143.767.366 1.089.671.321.305.575.701.761 1.188.185.484.278 1.073.278 1.765v.527h-6.07v-1.113h4.613c0-.391-.079-.738-.238-1.039a1.801 1.801 0 0 0-.671-.721 1.876 1.876 0 0 0-1.005-.264c-.417 0-.782.103-1.094.308a2.076 2.076 0 0 0-.715.796 2.294 2.294 0 0 0-.249 1.059v.87c0 .51.089.944.268 1.302.183.358.436.632.761.821.325.185.704.278 1.139.278.281 0 .538-.04.77-.119.232-.083.433-.206.602-.368a1.6 1.6 0 0 0 .388-.602l1.407.254a2.554 2.554 0 0 1-.607 1.089 2.945 2.945 0 0 1-1.089.721c-.434.169-.929.253-1.486.253Zm4.925-.154v-7.636h1.437v1.213h.08c.139-.411.384-.734.735-.97a2.113 2.113 0 0 1 1.204-.358 7.192 7.192 0 0 1 .631.035v1.422a2.609 2.609 0 0 0-.318-.055 3.071 3.071 0 0 0-.458-.035 1.94 1.94 0 0 0-.939.224 1.67 1.67 0 0 0-.647.612 1.652 1.652 0 0 0-.238.885V117h-1.487Zm11.937.149a2.955 2.955 0 0 1-1.65-.472c-.481-.318-.859-.771-1.134-1.357-.272-.59-.408-1.298-.408-2.123 0-.826.138-1.532.413-2.118.278-.587.66-1.036 1.143-1.347a2.973 2.973 0 0 1 1.646-.468c.474 0 .855.08 1.144.239.291.156.517.338.676.547.162.209.288.392.377.552h.09v-3.784h1.486V117h-1.451v-1.188h-.125a3.917 3.917 0 0 1-.387.557 2.164 2.164 0 0 1-.686.546c-.292.156-.67.234-1.134.234Zm.328-1.268c.428 0 .789-.112 1.084-.338.298-.228.524-.545.676-.949.156-.405.234-.875.234-1.412 0-.53-.076-.995-.229-1.392-.152-.398-.376-.708-.671-.93-.295-.222-.66-.333-1.094-.333-.447 0-.82.116-1.118.348a2.129 2.129 0 0 0-.677.95 3.874 3.874 0 0 0-.223 1.357c0 .51.076.969.228 1.377.153.408.378.731.677.969.301.236.672.353 1.113.353Zm7.799 1.288c-.483 0-.921-.089-1.312-.268a2.218 2.218 0 0 1-.93-.791c-.225-.345-.338-.767-.338-1.268 0-.431.083-.785.249-1.064.165-.278.389-.498.671-.661.282-.162.596-.285.944-.368a9.392 9.392 0 0 1 1.064-.189l1.114-.129c.285-.036.492-.094.621-.174.13-.079.194-.209.194-.388v-.034c0-.435-.122-.771-.368-1.01-.241-.238-.603-.358-1.083-.358-.501 0-.895.111-1.184.333-.285.219-.482.463-.591.731l-1.397-.318c.166-.464.407-.838.726-1.124a2.943 2.943 0 0 1 1.108-.626 4.319 4.319 0 0 1 1.318-.199c.305 0 .628.037.969.11.345.069.666.198.965.387.301.189.548.459.741.811.192.348.288.8.288 1.357V117h-1.452v-1.044h-.059a2.152 2.152 0 0 1-.433.567 2.308 2.308 0 0 1-.741.462c-.301.123-.663.184-1.084.184Zm.324-1.193c.411 0 .762-.081 1.054-.244.295-.162.518-.374.671-.636.155-.265.233-.549.233-.85v-.985c-.053.053-.155.103-.308.15-.149.043-.32.081-.512.114-.192.03-.379.058-.562.084l-.457.06a3.683 3.683 0 0 0-.791.184c-.235.086-.424.21-.566.373-.14.159-.209.371-.209.636 0 .368.136.647.407.835.272.186.619.279 1.04.279Zm6.091 3.888c-.222 0-.424-.019-.607-.055a1.94 1.94 0 0 1-.407-.109l.358-1.218c.272.072.513.104.726.094a.863.863 0 0 0 .561-.239c.166-.149.312-.392.438-.73l.184-.508-2.794-7.735h1.591l1.934 5.926h.079l1.934-5.926h1.596l-3.147 8.655a3.437 3.437 0 0 1-.557 1.009 2.156 2.156 0 0 1-.805.627 2.64 2.64 0 0 1-1.084.209Zm7.491-2.77a.964.964 0 0 1-.701-.288.96.96 0 0 1-.293-.706c0-.272.097-.504.293-.696a.957.957 0 0 1 .701-.293c.272 0 .505.098.701.293a.941.941 0 0 1 .293.696c0 .182-.046.35-.139.502a1.023 1.023 0 0 1-.358.358.943.943 0 0 1-.497.134Z"/>
          <path fill="#6C47FF" d="M208.666 117v-10.182h3.819c.782 0 1.438.146 1.968.438a2.9 2.9 0 0 1 1.208 1.203c.275.507.413 1.084.413 1.73 0 .653-.138 1.233-.413 1.74a2.95 2.95 0 0 1-1.218 1.198c-.537.288-1.198.433-1.983.433h-2.531v-1.517h2.282c.458 0 .832-.079 1.124-.238.291-.159.507-.378.646-.657.143-.278.214-.598.214-.959s-.071-.68-.214-.955a1.453 1.453 0 0 0-.651-.641c-.292-.156-.668-.234-1.129-.234h-1.69V117h-1.845Zm12.152.149c-.746 0-1.392-.164-1.939-.492a3.334 3.334 0 0 1-1.272-1.377c-.299-.59-.448-1.28-.448-2.068 0-.789.149-1.48.448-2.074a3.336 3.336 0 0 1 1.272-1.382c.547-.328 1.193-.492 1.939-.492s1.392.164 1.939.492c.547.329.97.789 1.268 1.382.301.594.452 1.285.452 2.074 0 .788-.151 1.478-.452 2.068a3.306 3.306 0 0 1-1.268 1.377c-.547.328-1.193.492-1.939.492Zm.01-1.442c.404 0 .743-.111 1.014-.333.272-.225.474-.527.607-.905a3.7 3.7 0 0 0 .204-1.262c0-.468-.068-.89-.204-1.268a2.008 2.008 0 0 0-.607-.91c-.271-.225-.61-.338-1.014-.338-.414 0-.759.113-1.034.338a2.03 2.03 0 0 0-.611.91 3.8 3.8 0 0 0-.199 1.268c0 .464.066.885.199 1.262.135.378.339.68.611.905.275.222.62.333 1.034.333Zm5.177 4.157v-10.5h1.77v1.262h.104c.093-.185.224-.382.393-.591.169-.212.398-.393.686-.542.288-.153.656-.229 1.104-.229.59 0 1.122.151 1.595.453.478.298.856.74 1.134 1.327.282.583.423 1.299.423 2.148 0 .838-.138 1.551-.413 2.138-.275.586-.65 1.034-1.124 1.342a2.89 2.89 0 0 1-1.61.462c-.438 0-.801-.073-1.089-.219a2.18 2.18 0 0 1-.696-.527 3.362 3.362 0 0 1-.403-.591h-.074v4.067h-1.8Zm1.765-6.682c0 .494.069.926.209 1.297.142.372.346.662.611.87.268.206.593.309.974.309.398 0 .731-.106 1-.319a1.96 1.96 0 0 0 .606-.879 3.66 3.66 0 0 0 .209-1.278 3.63 3.63 0 0 0-.204-1.263 1.9 1.9 0 0 0-.606-.865c-.269-.209-.604-.313-1.005-.313-.384 0-.71.101-.979.303-.268.202-.472.486-.611.85-.136.365-.204.794-.204 1.288Zm11.852.606v-4.424h1.8V117h-1.745v-1.357h-.08a2.3 2.3 0 0 1-.85 1.049c-.391.272-.873.407-1.447.407-.5 0-.943-.111-1.327-.333a2.314 2.314 0 0 1-.895-.979c-.215-.431-.323-.951-.323-1.561v-4.862h1.8v4.583c0 .484.132.869.397 1.154.265.285.613.427 1.044.427.265 0 .522-.064.771-.193.248-.13.452-.322.611-.577.163-.259.244-.582.244-.97Zm5.45-6.97V117h-1.8v-10.182h1.8Zm4.048 10.336c-.484 0-.92-.086-1.307-.258a2.135 2.135 0 0 1-.915-.776c-.222-.341-.333-.762-.333-1.263 0-.431.079-.787.238-1.069.16-.281.377-.507.652-.676.275-.169.585-.296.929-.383a7.528 7.528 0 0 1 1.079-.193c.448-.047.811-.088 1.089-.125.278-.04.481-.099.607-.179.129-.083.193-.21.193-.383v-.029c0-.375-.111-.665-.333-.87-.222-.206-.542-.309-.959-.309-.441 0-.791.096-1.049.289a1.427 1.427 0 0 0-.517.681l-1.681-.239c.133-.464.352-.852.657-1.163.305-.315.677-.55 1.118-.706a4.283 4.283 0 0 1 1.462-.239c.368 0 .734.043 1.099.129.364.087.697.229.999.428.302.196.543.462.726.8.185.339.278.761.278 1.268V117h-1.73v-1.049h-.06a2.195 2.195 0 0 1-.462.597 2.232 2.232 0 0 1-.741.442 2.993 2.993 0 0 1-1.039.164Zm.468-1.322c.361 0 .674-.072.939-.214.265-.146.469-.338.612-.577.146-.238.218-.499.218-.78v-.9a.853.853 0 0 1-.288.129c-.133.04-.282.075-.447.104-.166.03-.33.057-.493.08l-.422.06a3.105 3.105 0 0 0-.721.179c-.212.083-.38.199-.502.348-.123.145-.184.334-.184.566 0 .332.121.582.363.751.242.169.55.254.925.254Zm5.374 1.168v-7.636h1.745v1.272h.079c.14-.44.378-.78.716-1.019a1.972 1.972 0 0 1 1.169-.363c.099 0 .21.005.333.015.126.007.23.018.313.035v1.656a1.85 1.85 0 0 0-.363-.07 3.367 3.367 0 0 0-.472-.035c-.328 0-.623.071-.885.214a1.558 1.558 0 0 0-.612.582 1.638 1.638 0 0 0-.223.86V117h-1.8Zm7.753-10.182-.164 7.189h-1.601l-.159-7.189h1.924Zm-.964 10.291c-.302 0-.561-.106-.776-.318a1.054 1.054 0 0 1-.318-.775c0-.299.106-.554.318-.766.215-.212.474-.318.776-.318.295 0 .55.106.765.318.219.212.328.467.328.766 0 .202-.051.386-.154.551a1.132 1.132 0 0 1-.398.398 1.043 1.043 0 0 1-.541.144Z"/>
          <path fill="#737373" d="M164.944 223.659v-9.75h1.348v1.15h.115c.08-.148.195-.319.346-.513.151-.194.36-.363.628-.508.268-.147.622-.221 1.062-.221.572 0 1.083.144 1.532.434.45.289.802.706 1.058 1.251.258.545.387 1.2.387 1.966 0 .767-.127 1.424-.383 1.972-.255.544-.606.964-1.052 1.26a2.73 2.73 0 0 1-1.528.438c-.431 0-.784-.072-1.057-.216a2.008 2.008 0 0 1-.638-.508 3.97 3.97 0 0 1-.355-.517h-.083v3.762h-1.38Zm1.352-6.204c0 .498.072.935.217 1.311.145.375.354.669.628.881.274.21.609.314 1.006.314.413 0 .757-.109 1.034-.327.277-.222.487-.522.628-.901.145-.378.217-.804.217-1.278 0-.468-.071-.888-.212-1.261a1.94 1.94 0 0 0-.628-.882c-.277-.215-.623-.323-1.039-.323-.4 0-.738.103-1.015.31a1.894 1.894 0 0 0-.623.863c-.142.369-.213.8-.213 1.293Zm9.727 3.688c-.699 0-1.3-.149-1.805-.448a3.028 3.028 0 0 1-1.163-1.269c-.271-.548-.407-1.19-.407-1.925 0-.727.136-1.367.407-1.921a3.151 3.151 0 0 1 1.145-1.297c.492-.311 1.068-.466 1.726-.466.4 0 .788.066 1.163.198.376.133.713.34 1.011.623.299.284.534.651.707 1.104.172.449.258.995.258 1.639v.489h-5.636v-1.034h4.284c0-.363-.074-.685-.222-.965a1.674 1.674 0 0 0-.623-.669 1.745 1.745 0 0 0-.933-.245 1.8 1.8 0 0 0-1.015.286 1.924 1.924 0 0 0-.665.739 2.128 2.128 0 0 0-.231.983v.808c0 .474.083.877.249 1.21.17.332.405.586.707.761.301.173.654.259 1.057.259.262 0 .5-.037.715-.111a1.478 1.478 0 0 0 .919-.9l1.307.235a2.366 2.366 0 0 1-.564 1.011c-.267.287-.604.51-1.011.67a3.78 3.78 0 0 1-1.38.235Zm4.574-.143v-7.091h1.334v1.127h.074c.129-.382.357-.682.683-.901a1.96 1.96 0 0 1 1.117-.332 6.07 6.07 0 0 1 .587.032v1.321a2.276 2.276 0 0 0-.296-.051 2.756 2.756 0 0 0-.425-.033c-.326 0-.617.07-.872.208a1.553 1.553 0 0 0-.822 1.39V221h-1.38Zm8.43 0v-7.091h1.324v1.154h.088c.148-.391.39-.695.725-.914.335-.221.737-.332 1.205-.332.474 0 .871.111 1.191.332.323.222.562.526.715.914h.074c.17-.378.439-.68.808-.905.37-.227.81-.341 1.321-.341.643 0 1.168.201 1.574.605.409.403.614 1.011.614 1.823V221h-1.381v-4.626c0-.48-.13-.828-.392-1.043a1.43 1.43 0 0 0-.937-.323c-.449 0-.799.138-1.048.415-.249.274-.374.627-.374 1.057V221h-1.376v-4.713c0-.385-.12-.694-.36-.928-.24-.234-.552-.351-.937-.351-.262 0-.503.069-.725.208a1.53 1.53 0 0 0-.531.567 1.746 1.746 0 0 0-.198.845V221h-1.38Zm14.476.143c-.665 0-1.245-.152-1.741-.457a3.087 3.087 0 0 1-1.154-1.279c-.274-.548-.411-1.188-.411-1.92 0-.736.137-1.379.411-1.93a3.074 3.074 0 0 1 1.154-1.283c.496-.305 1.076-.457 1.741-.457.664 0 1.245.152 1.74.457.496.304.88.732 1.154 1.283.274.551.411 1.194.411 1.93 0 .732-.137 1.372-.411 1.92a3.08 3.08 0 0 1-1.154 1.279c-.495.305-1.076.457-1.74.457Zm.004-1.159c.431 0 .788-.113 1.071-.341a2 2 0 0 0 .628-.91 3.6 3.6 0 0 0 .208-1.251c0-.452-.069-.868-.208-1.246a2.029 2.029 0 0 0-.628-.919c-.283-.231-.64-.346-1.071-.346-.434 0-.794.115-1.08.346a2.06 2.06 0 0 0-.632.919 3.66 3.66 0 0 0-.204 1.246c0 .456.068.873.204 1.251.138.379.349.682.632.91.286.228.646.341 1.08.341Zm6.222-3.194V221h-1.38v-7.091h1.325v1.154h.087c.164-.375.419-.677.767-.905.351-.227.792-.341 1.325-.341.483 0 .906.101 1.269.304.363.2.645.499.845.896.2.397.3.888.3 1.473V221h-1.38v-4.344c0-.514-.134-.916-.402-1.205-.268-.292-.635-.439-1.103-.439-.32 0-.605.07-.854.208a1.502 1.502 0 0 0-.587.61c-.141.264-.212.584-.212.96Zm9.699-2.881v1.108h-3.873v-1.108h3.873Zm-2.834-1.699h1.38v6.708c0 .268.04.469.12.605.08.132.183.223.309.272.13.046.27.069.421.069.11 0 .207-.007.29-.023.084-.015.148-.027.194-.037l.25 1.141c-.08.03-.194.061-.342.092a2.69 2.69 0 0 1-.554.055 2.426 2.426 0 0 1-1.016-.194 1.737 1.737 0 0 1-.761-.627c-.194-.284-.291-.639-.291-1.067v-6.994Zm5.894 4.58V221h-1.38v-9.455h1.361v3.518h.088c.166-.381.42-.685.762-.909.342-.225.788-.337 1.339-.337.486 0 .911.1 1.274.3.366.2.649.498.849.895.203.394.305.887.305 1.478V221h-1.38v-4.344c0-.52-.134-.923-.402-1.21-.268-.289-.64-.434-1.117-.434-.326 0-.619.07-.877.208a1.5 1.5 0 0 0-.605.61c-.145.264-.217.584-.217.96Z"/>
          <path fill="#000" d="M76.546 169.395c2.618 0 5.137.439 7.557 1.317 2.436.879 4.607 2.279 6.513 4.201 1.922 1.923 3.439 4.475 4.549 7.657 1.127 3.165 1.698 7.051 1.715 11.658 0 4.325-.489 8.187-1.467 11.584-.96 3.38-2.345 6.256-4.15 8.626-1.807 2.369-3.987 4.176-6.539 5.419-2.552 1.226-5.402 1.839-8.55 1.839-3.398 0-6.398-.655-9-1.964-2.601-1.326-4.697-3.124-6.288-5.394-1.575-2.287-2.528-4.856-2.859-7.706h10.614c.415 1.856 1.285 3.298 2.61 4.325 1.326 1.011 2.967 1.517 4.922 1.517 3.315 0 5.834-1.442 7.557-4.326 1.724-2.9 2.594-6.869 2.61-11.907h-.348a12.179 12.179 0 0 1-3.082 3.853c-1.293 1.061-2.776 1.881-4.45 2.461-1.657.58-3.422.87-5.294.87-3 0-5.676-.704-8.03-2.113-2.353-1.408-4.209-3.347-5.568-5.816s-2.038-5.287-2.038-8.452c-.017-3.414.77-6.455 2.361-9.123 1.591-2.668 3.812-4.756 6.662-6.264 2.867-1.525 6.198-2.279 9.993-2.262Zm.075 8.452c-1.674 0-3.165.397-4.475 1.193a8.802 8.802 0 0 0-3.082 3.206c-.746 1.343-1.11 2.843-1.094 4.5 0 1.674.365 3.182 1.094 4.524a8.734 8.734 0 0 0 3.033 3.182c1.292.779 2.767 1.168 4.424 1.168 1.243 0 2.395-.232 3.456-.696a8.502 8.502 0 0 0 2.759-1.914 9.173 9.173 0 0 0 1.864-2.859 8.848 8.848 0 0 0 .671-3.43c-.016-1.608-.397-3.083-1.143-4.425a8.738 8.738 0 0 0-3.082-3.231c-1.31-.812-2.785-1.218-4.425-1.218Zm46.136-8.452c2.618 0 5.137.439 7.557 1.317 2.436.879 4.607 2.279 6.513 4.201 1.922 1.923 3.438 4.475 4.549 7.657 1.127 3.165 1.698 7.051 1.715 11.658 0 4.325-.489 8.187-1.467 11.584-.961 3.38-2.345 6.256-4.151 8.626-1.806 2.369-3.986 4.176-6.538 5.419-2.552 1.226-5.402 1.839-8.551 1.839-3.397 0-6.397-.655-8.998-1.964-2.602-1.326-4.698-3.124-6.289-5.394-1.575-2.287-2.528-4.856-2.859-7.706h10.614c.415 1.856 1.285 3.298 2.61 4.325 1.326 1.011 2.967 1.517 4.922 1.517 3.315 0 5.834-1.442 7.557-4.326 1.724-2.9 2.594-6.869 2.61-11.907h-.348a12.182 12.182 0 0 1-3.082 3.853c-1.293 1.061-2.776 1.881-4.45 2.461-1.657.58-3.422.87-5.295.87-2.999 0-5.675-.704-8.029-2.113-2.353-1.408-4.209-3.347-5.568-5.816s-2.038-5.287-2.038-8.452c-.017-3.414.77-6.455 2.361-9.123 1.591-2.668 3.812-4.756 6.662-6.264 2.867-1.525 6.198-2.279 9.993-2.262Zm.075 8.452c-1.674 0-3.166.397-4.475 1.193a8.803 8.803 0 0 0-3.082 3.206c-.746 1.343-1.11 2.843-1.094 4.5 0 1.674.365 3.182 1.094 4.524a8.729 8.729 0 0 0 3.033 3.182c1.292.779 2.767 1.168 4.424 1.168 1.243 0 2.395-.232 3.456-.696a8.508 8.508 0 0 0 2.759-1.914 9.174 9.174 0 0 0 1.864-2.859 8.839 8.839 0 0 0 .671-3.43c-.016-1.608-.397-3.083-1.143-4.425a8.735 8.735 0 0 0-3.083-3.231c-1.309-.812-2.784-1.218-4.424-1.218Zm-89.289 33.335v-31.818h2.039v31.818h-2.039Zm5.88-21.639c-.117-1.085-.606-1.931-1.467-2.536-.854-.604-1.964-.907-3.331-.907-.962 0-1.786.145-2.474.435-.688.29-1.214.684-1.578 1.181a2.871 2.871 0 0 0-.56 1.703c0 .53.12.99.36 1.379.25.39.585.721 1.008.995.422.265.89.488 1.404.671a15.36 15.36 0 0 0 1.554.46l2.386.596c.961.224 1.885.526 2.772.908a9.76 9.76 0 0 1 2.399 1.441 6.402 6.402 0 0 1 1.69 2.101c.414.82.621 1.781.621 2.883 0 1.492-.38 2.805-1.143 3.94-.762 1.127-1.864 2.01-3.306 2.648-1.434.629-3.17.944-5.208.944-1.98 0-3.7-.306-5.158-.919-1.45-.614-2.585-1.508-3.405-2.685-.813-1.177-1.252-2.61-1.318-4.301h4.537c.066.887.34 1.625.82 2.213.48.588 1.106 1.027 1.877 1.317.779.29 1.649.435 2.61.435 1.002 0 1.88-.149 2.635-.447.762-.307 1.359-.729 1.79-1.268.43-.547.65-1.185.658-1.914-.008-.663-.203-1.21-.584-1.641-.381-.439-.916-.803-1.603-1.093a15.372 15.372 0 0 0-2.387-.796l-2.896-.746c-2.096-.538-3.753-1.354-4.971-2.448-1.21-1.102-1.815-2.565-1.815-4.387 0-1.5.406-2.814 1.218-3.94.82-1.127 1.935-2.002 3.344-2.623 1.408-.63 3.003-.945 4.785-.945 1.806 0 3.389.315 4.748.945 1.367.621 2.44 1.487 3.219 2.598.779 1.102 1.18 2.369 1.205 3.803h-4.437Z"/>
          <path stroke="#D3D3D3" d="M22 451.5h350.837"/>
          <ellipse cx="34.875" cy="419.5" fill="#6C47FF" rx="11.797" ry="11.5"/>
          <path stroke="#fff" d="M0-.5h4.298" transform="scale(1.01267 .98716) rotate(45 -498.636 248.8)"/>
          <path stroke="#fff" d="M0-.5h10.028" transform="matrix(-.71607 .69803 -.71607 -.69803 40.517 416)"/>
          <path fill="#727272" d="M72.108 419.29h-2.125a2.642 2.642 0 0 0-.335-.926 2.5 2.5 0 0 0-.608-.694 2.548 2.548 0 0 0-.83-.426 3.25 3.25 0 0 0-.994-.147c-.633 0-1.193.159-1.682.477-.489.314-.871.776-1.148 1.386-.276.606-.414 1.347-.414 2.222 0 .89.138 1.64.414 2.25.28.606.663 1.064 1.148 1.375.489.307 1.047.46 1.676.46.349 0 .675-.045.978-.136a2.68 2.68 0 0 0 .823-.415 2.53 2.53 0 0 0 .972-1.58l2.125.012a4.578 4.578 0 0 1-.517 1.557 4.614 4.614 0 0 1-1.028 1.284 4.75 4.75 0 0 1-1.49.863 5.543 5.543 0 0 1-1.891.307c-1.023 0-1.936-.237-2.739-.71-.803-.474-1.435-1.157-1.898-2.051-.462-.894-.693-1.966-.693-3.216 0-1.254.233-2.326.7-3.216.465-.894 1.1-1.578 1.902-2.051.804-.474 1.713-.71 2.728-.71.647 0 1.25.09 1.807.272a4.636 4.636 0 0 1 1.488.801c.436.349.794.777 1.074 1.284.284.504.47 1.08.557 1.728Zm3.896 2.596V427h-2.057v-11.636h2.012v4.392h.102a2.52 2.52 0 0 1 .949-1.165c.432-.288.981-.432 1.648-.432.606 0 1.134.127 1.585.381.45.254.8.625 1.045 1.113.25.489.375 1.086.375 1.79V427h-2.056v-5.239c0-.587-.152-1.043-.455-1.369-.3-.33-.72-.494-1.261-.494-.364 0-.69.079-.978.238a1.677 1.677 0 0 0-.67.676c-.16.296-.239.654-.239 1.074Zm10.267 5.29a3.64 3.64 0 0 1-1.494-.295 2.443 2.443 0 0 1-1.046-.887c-.253-.39-.38-.871-.38-1.443 0-.492.09-.899.273-1.221.181-.322.43-.58.744-.773a3.776 3.776 0 0 1 1.062-.438 8.613 8.613 0 0 1 1.233-.221c.512-.053.927-.101 1.245-.142.318-.046.549-.114.693-.205.148-.095.221-.24.221-.437v-.034c0-.428-.127-.76-.38-.995-.254-.235-.62-.352-1.097-.352-.504 0-.903.11-1.199.329a1.64 1.64 0 0 0-.59.779l-1.921-.273c.151-.53.401-.973.75-1.329.348-.36.775-.629 1.278-.807a4.886 4.886 0 0 1 1.67-.273c.421 0 .84.049 1.257.148.416.098.797.261 1.141.488.345.224.622.529.83.915.212.387.318.87.318 1.449V427h-1.977v-1.199h-.068a2.5 2.5 0 0 1-.529.682 2.551 2.551 0 0 1-.846.506c-.337.125-.733.187-1.188.187Zm.534-1.511c.413 0 .771-.082 1.074-.245a1.8 1.8 0 0 0 .7-.659c.166-.272.25-.57.25-.892v-1.028a.978.978 0 0 1-.33.148 4.753 4.753 0 0 1-.512.119c-.19.034-.377.064-.562.091l-.483.068c-.307.042-.582.11-.824.205a1.366 1.366 0 0 0-.574.397c-.14.167-.21.383-.21.648 0 .379.138.665.415.858.276.193.628.29 1.056.29Zm8.2-3.779V427h-2.058v-8.727h1.966v1.483h.103c.2-.489.52-.877.96-1.165.443-.288.99-.432 1.642-.432.602 0 1.127.129 1.574.386.45.258.799.631 1.045 1.12.25.488.373 1.081.37 1.778V427H98.55v-5.239c0-.583-.152-1.039-.455-1.369-.3-.33-.714-.494-1.244-.494-.36 0-.68.079-.96.238a1.661 1.661 0 0 0-.654.676c-.155.296-.233.654-.233 1.074Zm9.749 0V427h-2.057v-8.727h1.966v1.483h.103c.2-.489.52-.877.96-1.165.443-.288.99-.432 1.642-.432.602 0 1.127.129 1.574.386a2.6 2.6 0 0 1 1.045 1.12c.25.488.373 1.081.37 1.778V427H108.3v-5.239c0-.583-.152-1.039-.455-1.369-.299-.33-.714-.494-1.244-.494-.36 0-.68.079-.96.238a1.659 1.659 0 0 0-.654.676c-.155.296-.233.654-.233 1.074Zm11.557 5.284c-.875 0-1.631-.181-2.267-.545a3.686 3.686 0 0 1-1.46-1.557c-.341-.674-.512-1.468-.512-2.38 0-.898.171-1.686.512-2.364a3.872 3.872 0 0 1 1.443-1.591c.617-.383 1.343-.574 2.176-.574a4.41 4.41 0 0 1 1.523.261c.481.171.905.436 1.273.796.371.36.662.818.875 1.375.212.553.318 1.212.318 1.977v.631h-7.154v-1.387h5.182a2.214 2.214 0 0 0-.256-1.051 1.858 1.858 0 0 0-.698-.733 1.968 1.968 0 0 0-1.034-.267c-.421 0-.79.103-1.108.307a2.11 2.11 0 0 0-.745.796 2.29 2.29 0 0 0-.267 1.074v1.21c0 .507.093.943.279 1.307.185.359.445.636.778.829.333.189.724.284 1.17.284.3 0 .571-.041.813-.125.242-.087.453-.214.631-.381.178-.166.312-.373.403-.619l1.921.216a3.003 3.003 0 0 1-.694 1.33 3.388 3.388 0 0 1-1.295.875c-.527.204-1.129.306-1.807.306Zm7.678-11.806V427h-2.057v-11.636h2.057Zm9.012 5.216-1.875.204a1.504 1.504 0 0 0-.278-.534 1.376 1.376 0 0 0-.523-.403c-.219-.103-.488-.154-.807-.154-.428 0-.787.093-1.079.279-.288.185-.43.426-.426.721a.754.754 0 0 0 .278.619c.193.16.512.29.955.393l1.488.318c.826.178 1.44.46 1.841.846.406.387.61.892.614 1.517a2.377 2.377 0 0 1-.483 1.455c-.314.417-.752.742-1.313.977-.56.235-1.204.352-1.931.352-1.069 0-1.928-.223-2.58-.67-.651-.451-1.04-1.078-1.165-1.881l2.006-.193c.091.394.284.691.58.892.295.201.679.301 1.153.301.489 0 .881-.1 1.176-.301.299-.201.449-.449.449-.744a.774.774 0 0 0-.29-.619c-.189-.163-.485-.288-.886-.375l-1.489-.313c-.837-.174-1.456-.468-1.858-.881-.401-.416-.6-.943-.596-1.579-.004-.538.142-1.004.437-1.398.299-.398.714-.704 1.244-.92.535-.22 1.15-.33 1.847-.33 1.023 0 1.828.218 2.415.653.591.436.956 1.025 1.096 1.768Z"/>
          <path fill="#333" d="M355.642 427h-2.25l4.097-11.636h2.602L364.193 427h-2.25l-3.108-9.25h-.091l-3.102 9.25Zm.074-4.562h6.136v1.693h-6.136v-1.693Zm11.976-7.074V427h-2.057v-11.636h2.057Zm4.172 0V427h-2.057v-11.636h2.057Z"/>
          <path stroke="#D3D3D3" d="M22 508.5h350.837"/>
          <ellipse cx="34.797" cy="480.5" fill="#6C47FF" rx="11.797" ry="11.5"/>
          <path stroke="#fff" d="M0-.5h4.298" transform="matrix(.71607 .69803 -.71607 .69803 30.18 481)"/>
          <path stroke="#fff" d="M0-.5h10.028" transform="matrix(-.71607 .69803 -.71607 -.69803 40.44 477)"/>
          <path fill="#727272" d="M64.256 474.364V486h-2.108v-11.636h2.108Zm4.248 6.522V486h-2.057v-8.727h1.966v1.483h.103c.2-.489.52-.877.96-1.165.443-.288.99-.432 1.642-.432.602 0 1.127.129 1.574.386.45.258.799.631 1.045 1.12.25.488.373 1.081.37 1.778V486H72.05v-5.239c0-.583-.152-1.039-.455-1.369-.3-.33-.714-.494-1.244-.494-.36 0-.68.079-.96.238a1.661 1.661 0 0 0-.654.676c-.155.296-.233.654-.233 1.074Zm12.051-3.613v1.591h-5.017v-1.591h5.017Zm-3.778-2.091h2.057v8.193c0 .277.041.489.125.636.087.144.2.243.34.296.14.053.296.079.467.079.128 0 .246-.009.352-.028.11-.019.193-.036.25-.051l.347 1.608a4.77 4.77 0 0 1-.472.125 3.85 3.85 0 0 1-.739.079 3.348 3.348 0 0 1-1.392-.233 2.166 2.166 0 0 1-.983-.806c-.238-.364-.356-.819-.352-1.364v-8.534Zm9.269 10.988c-.876 0-1.631-.181-2.268-.545a3.689 3.689 0 0 1-1.46-1.557c-.34-.674-.511-1.468-.511-2.38 0-.898.17-1.686.511-2.364a3.867 3.867 0 0 1 1.443-1.591c.618-.383 1.343-.574 2.177-.574a4.41 4.41 0 0 1 1.522.261c.481.171.906.436 1.273.796.371.36.663.818.875 1.375.212.553.318 1.212.318 1.977v.631h-7.153v-1.387h5.181a2.215 2.215 0 0 0-.255-1.051c-.167-.31-.4-.555-.699-.733a1.965 1.965 0 0 0-1.034-.267c-.42 0-.79.103-1.108.307a2.115 2.115 0 0 0-.744.796 2.285 2.285 0 0 0-.267 1.074v1.21c0 .507.092.943.278 1.307.186.359.445.636.778.829.334.189.724.284 1.17.284.3 0 .57-.041.813-.125.243-.087.453-.214.631-.381.178-.166.313-.373.404-.619l1.92.216a2.994 2.994 0 0 1-.693 1.33 3.387 3.387 0 0 1-1.296.875c-.526.204-1.129.306-1.806.306Zm9.416 3.285c-.739 0-1.374-.101-1.904-.302-.53-.197-.956-.462-1.278-.795a2.754 2.754 0 0 1-.67-1.108l1.852-.449c.083.171.204.339.363.506.16.17.373.31.642.42.273.114.616.171 1.029.171.583 0 1.066-.142 1.449-.426.382-.281.574-.743.574-1.387v-1.653h-.103c-.106.212-.261.43-.466.653-.2.224-.468.411-.8.563-.33.151-.745.227-1.245.227a3.58 3.58 0 0 1-1.824-.472c-.542-.318-.974-.791-1.296-1.42-.318-.633-.477-1.424-.477-2.375 0-.958.16-1.767.477-2.426.323-.663.756-1.165 1.302-1.506a3.342 3.342 0 0 1 1.823-.517c.512 0 .932.087 1.262.261.333.171.598.377.795.62.197.238.347.464.45.676h.113v-1.443h2.028v8.869c0 .746-.178 1.364-.534 1.852-.356.489-.843.854-1.46 1.097-.617.242-1.318.364-2.102.364Zm.017-5.194c.435 0 .806-.106 1.113-.318.307-.212.54-.517.7-.915.158-.397.238-.875.238-1.431 0-.55-.08-1.031-.239-1.444-.155-.412-.386-.733-.693-.96-.303-.231-.676-.346-1.12-.346-.458 0-.84.119-1.147.358-.307.238-.538.566-.693.983a3.977 3.977 0 0 0-.233 1.409c0 .534.078 1.001.233 1.403.159.398.392.708.699.932.31.22.69.329 1.142.329Zm6.187 1.739v-8.727h1.995v1.454h.09c.16-.504.432-.892.819-1.165.39-.276.835-.414 1.335-.414.113 0 .24.005.381.017.143.007.263.021.357.04v1.892a2.117 2.117 0 0 0-.414-.08 3.906 3.906 0 0 0-.54-.04c-.375 0-.712.082-1.011.245a1.78 1.78 0 0 0-.699.664 1.869 1.869 0 0 0-.256.983V486h-2.057Zm8.699.176a3.639 3.639 0 0 1-1.494-.295 2.443 2.443 0 0 1-1.046-.887c-.254-.39-.38-.871-.38-1.443 0-.492.091-.899.272-1.221.182-.322.43-.58.745-.773a3.767 3.767 0 0 1 1.062-.438 8.628 8.628 0 0 1 1.233-.221c.511-.053.926-.101 1.244-.142.319-.046.55-.114.694-.205.147-.095.221-.24.221-.437v-.034c0-.428-.127-.76-.38-.995-.254-.235-.62-.352-1.097-.352-.504 0-.903.11-1.199.329-.292.22-.489.48-.591.779l-1.92-.273c.151-.53.401-.973.75-1.329.348-.36.774-.629 1.278-.807a4.89 4.89 0 0 1 1.671-.273c.42 0 .839.049 1.255.148.417.098.798.261 1.142.488.345.224.621.529.83.915.212.387.318.87.318 1.449V486h-1.977v-1.199h-.068a2.51 2.51 0 0 1-.529.682 2.552 2.552 0 0 1-.846.506c-.338.125-.733.187-1.188.187Zm.534-1.511c.413 0 .771-.082 1.074-.245a1.8 1.8 0 0 0 .699-.659c.167-.272.25-.57.25-.892v-1.028a.98.98 0 0 1-.33.148 4.739 4.739 0 0 1-.511.119c-.189.034-.377.064-.563.091l-.482.068c-.307.042-.582.11-.824.205a1.36 1.36 0 0 0-.574.397c-.14.167-.21.383-.21.648 0 .379.138.665.414.858.277.193.629.29 1.057.29Zm10.5-7.392v1.591h-5.017v-1.591h5.017Zm-3.778-2.091h2.057v8.193c0 .277.041.489.125.636.087.144.2.243.34.296.141.053.296.079.466.079.129 0 .247-.009.353-.028.109-.019.193-.036.25-.051l.346 1.608c-.11.038-.267.079-.471.125a3.86 3.86 0 0 1-.739.079 3.348 3.348 0 0 1-1.392-.233 2.163 2.163 0 0 1-.983-.806c-.239-.364-.356-.819-.352-1.364v-8.534ZM123.119 486v-8.727h2.057V486h-2.057Zm1.034-9.966c-.325 0-.606-.108-.841-.324a1.046 1.046 0 0 1-.352-.79c0-.31.118-.573.352-.789.235-.22.516-.33.841-.33.33 0 .61.11.841.33.235.216.353.479.353.789 0 .307-.118.571-.353.79a1.186 1.186 0 0 1-.841.324Zm6.945 10.136c-.852 0-1.591-.187-2.216-.562a3.816 3.816 0 0 1-1.454-1.574c-.341-.674-.512-1.462-.512-2.364 0-.901.171-1.691.512-2.369a3.805 3.805 0 0 1 1.454-1.579c.625-.375 1.364-.563 2.216-.563.852 0 1.591.188 2.216.563a3.774 3.774 0 0 1 1.449 1.579c.344.678.517 1.468.517 2.369 0 .902-.173 1.69-.517 2.364a3.785 3.785 0 0 1-1.449 1.574c-.625.375-1.364.562-2.216.562Zm.011-1.647c.462 0 .849-.127 1.159-.381.311-.258.542-.602.694-1.034.155-.432.233-.913.233-1.443 0-.534-.078-1.017-.233-1.449-.152-.436-.383-.782-.694-1.04-.31-.257-.697-.386-1.159-.386-.473 0-.867.129-1.181.386-.311.258-.544.604-.699 1.04a4.345 4.345 0 0 0-.228 1.449c0 .53.076 1.011.228 1.443.155.432.388.776.699 1.034.314.254.708.381 1.181.381Zm7.973-3.637V486h-2.056v-8.727h1.965v1.483h.103c.201-.489.521-.877.96-1.165.443-.288.991-.432 1.642-.432.602 0 1.127.129 1.574.386a2.6 2.6 0 0 1 1.045 1.12c.25.488.373 1.081.37 1.778V486h-2.057v-5.239c0-.583-.152-1.039-.455-1.369-.299-.33-.714-.494-1.244-.494-.36 0-.68.079-.96.238a1.659 1.659 0 0 0-.654.676c-.155.296-.233.654-.233 1.074Zm14.591-1.306-1.875.204a1.52 1.52 0 0 0-.278-.534 1.376 1.376 0 0 0-.523-.403c-.22-.103-.488-.154-.807-.154-.428 0-.788.093-1.079.279-.288.185-.43.426-.426.721a.754.754 0 0 0 .278.619c.193.16.511.29.955.393l1.488.318c.826.178 1.44.46 1.841.846.405.387.61.892.614 1.517a2.377 2.377 0 0 1-.483 1.455c-.315.417-.752.742-1.313.977-.56.235-1.204.352-1.931.352-1.069 0-1.929-.223-2.58-.67-.652-.451-1.04-1.078-1.165-1.881l2.006-.193c.091.394.284.691.579.892.296.201.68.301 1.154.301.488 0 .881-.1 1.176-.301.299-.201.449-.449.449-.744a.774.774 0 0 0-.29-.619c-.189-.163-.485-.288-.886-.375l-1.489-.313c-.837-.174-1.456-.468-1.858-.881-.401-.416-.6-.943-.596-1.579-.004-.538.142-1.004.437-1.398.299-.398.714-.704 1.244-.92.534-.22 1.15-.33 1.847-.33 1.023 0 1.828.218 2.415.653.591.436.956 1.025 1.096 1.768Z"/>
          <path fill="#333" d="M355.642 486h-2.25l4.097-11.636h2.602L364.193 486h-2.25l-3.108-9.25h-.091l-3.102 9.25Zm.074-4.562h6.136v1.693h-6.136v-1.693Zm11.976-7.074V486h-2.057v-11.636h2.057Zm4.172 0V486h-2.057v-11.636h2.057Z"/>
          <ellipse cx="34.797" cy="537.5" fill="#6C47FF" rx="11.797" ry="11.5"/>
          <path stroke="#fff" d="M0-.5h4.298" transform="matrix(.71607 .69803 -.71607 .69803 30.18 538)"/>
          <path stroke="#fff" d="M0-.5h10.028" transform="matrix(-.71607 .69803 -.71607 -.69803 40.44 534)"/>
          <path fill="#727272" d="M68.472 534.562a1.554 1.554 0 0 0-.67-1.159c-.391-.276-.899-.414-1.524-.414-.439 0-.816.066-1.13.199-.315.132-.555.312-.722.539a1.315 1.315 0 0 0-.255.779c0 .242.054.452.164.63.114.178.267.33.46.455.194.121.408.223.642.307.235.083.472.153.71.21l1.092.273c.439.102.861.24 1.267.414.409.175.774.394 1.096.66.326.265.584.585.773.96.19.375.284.814.284 1.318 0 .682-.174 1.282-.523 1.801-.348.515-.852.919-1.511 1.21-.655.288-1.449.432-2.38.432-.906 0-1.692-.14-2.359-.42-.663-.281-1.181-.69-1.556-1.228-.372-.537-.572-1.193-.603-1.966h2.074c.03.406.155.743.375 1.012s.506.47.858.602a3.39 3.39 0 0 0 1.193.199c.459 0 .86-.068 1.205-.205.348-.14.621-.333.818-.579a1.4 1.4 0 0 0 .301-.875c-.004-.303-.093-.553-.267-.75-.174-.201-.419-.368-.733-.5a7.093 7.093 0 0 0-1.09-.364l-1.325-.341c-.958-.246-1.715-.619-2.272-1.119-.553-.504-.83-1.172-.83-2.006 0-.685.186-1.286.557-1.801.375-.515.884-.915 1.528-1.199.644-.288 1.373-.431 2.188-.431.826 0 1.55.143 2.17.431.625.284 1.116.68 1.472 1.188.356.504.54 1.083.551 1.738h-2.028Zm9.538 4.768v-5.057h2.057V543h-1.995v-1.551h-.09a2.63 2.63 0 0 1-.972 1.199c-.447.31-.998.466-1.654.466-.571 0-1.077-.127-1.516-.381a2.651 2.651 0 0 1-1.023-1.119c-.246-.493-.37-1.087-.37-1.784v-5.557h2.057v5.238c0 .553.152.993.455 1.319.303.325.7.488 1.193.488.303 0 .597-.074.88-.221.285-.148.518-.368.7-.659.185-.296.278-.665.278-1.108Zm4.172 6.943v-12h2.022v1.443h.12c.106-.212.255-.438.449-.676.193-.243.454-.449.784-.62.33-.174.75-.261 1.261-.261.674 0 1.282.172 1.824.517.546.341.977.847 1.296 1.517.322.667.483 1.485.483 2.455 0 .958-.158 1.772-.472 2.443-.314.67-.743 1.182-1.284 1.534a3.304 3.304 0 0 1-1.841.528c-.5 0-.915-.083-1.245-.25a2.518 2.518 0 0 1-.795-.602 3.913 3.913 0 0 1-.46-.676h-.085v4.648h-2.057Zm2.017-7.637c0 .565.08 1.059.239 1.483.162.425.395.756.698.995.307.234.678.352 1.114.352.454 0 .835-.121 1.142-.364.307-.246.538-.581.693-1.005.16-.428.239-.915.239-1.461a4.16 4.16 0 0 0-.233-1.443c-.155-.42-.386-.75-.693-.988-.307-.239-.69-.358-1.148-.358-.44 0-.813.115-1.12.346-.306.231-.54.555-.698.972-.156.416-.233.907-.233 1.471Zm7.983 7.637v-12h2.022v1.443h.12c.106-.212.255-.438.449-.676.193-.243.454-.449.784-.62.33-.174.75-.261 1.261-.261.674 0 1.282.172 1.824.517.546.341.977.847 1.296 1.517.321.667.482 1.485.482 2.455 0 .958-.157 1.772-.471 2.443-.314.67-.743 1.182-1.284 1.534a3.304 3.304 0 0 1-1.841.528c-.5 0-.915-.083-1.245-.25a2.518 2.518 0 0 1-.795-.602 3.913 3.913 0 0 1-.46-.676h-.085v4.648h-2.057Zm2.017-7.637c0 .565.08 1.059.239 1.483.162.425.395.756.698.995.307.234.678.352 1.114.352.454 0 .835-.121 1.142-.364.307-.246.538-.581.693-1.005.16-.428.239-.915.239-1.461a4.16 4.16 0 0 0-.233-1.443c-.155-.42-.386-.75-.693-.988-.307-.239-.69-.358-1.148-.358-.44 0-.813.115-1.12.346-.306.231-.54.555-.698.972-.156.416-.233.907-.233 1.471Zm11.79 4.534c-.853 0-1.591-.187-2.216-.562a3.825 3.825 0 0 1-1.455-1.574c-.341-.674-.511-1.462-.511-2.364 0-.901.17-1.691.511-2.369a3.814 3.814 0 0 1 1.455-1.579c.625-.375 1.363-.563 2.216-.563.852 0 1.591.188 2.216.563a3.766 3.766 0 0 1 1.448 1.579c.345.678.517 1.468.517 2.369 0 .902-.172 1.69-.517 2.364a3.776 3.776 0 0 1-1.448 1.574c-.625.375-1.364.562-2.216.562Zm.011-1.647c.462 0 .848-.127 1.159-.381.311-.258.542-.602.693-1.034.156-.432.233-.913.233-1.443 0-.534-.077-1.017-.233-1.449-.151-.436-.382-.782-.693-1.04-.311-.257-.697-.386-1.159-.386-.473 0-.867.129-1.182.386-.31.258-.543.604-.699 1.04a4.37 4.37 0 0 0-.227 1.449c0 .53.076 1.011.227 1.443.156.432.389.776.699 1.034.315.254.709.381 1.182.381Zm5.916 1.477v-8.727h1.995v1.454h.09c.16-.504.432-.892.819-1.165.39-.276.835-.414 1.335-.414.113 0 .24.005.381.017.143.007.263.021.357.04v1.892a2.117 2.117 0 0 0-.414-.08 3.906 3.906 0 0 0-.54-.04c-.375 0-.712.082-1.011.245a1.78 1.78 0 0 0-.699.664 1.869 1.869 0 0 0-.256.983V543h-2.057Zm11.171-8.727v1.591h-5.017v-1.591h5.017Zm-3.779-2.091h2.057v8.193c0 .277.042.489.125.636a.676.676 0 0 0 .341.296c.14.053.295.079.466.079.129 0 .246-.009.352-.028.11-.019.193-.036.25-.051l.347 1.608c-.11.038-.267.079-.472.125a3.857 3.857 0 0 1-.738.079 3.35 3.35 0 0 1-1.393-.233 2.166 2.166 0 0 1-.982-.806c-.239-.364-.357-.819-.353-1.364v-8.534Z"/>
          <path fill="#333" d="M309.737 535.562c-.053-.496-.276-.882-.67-1.159-.39-.276-.898-.414-1.523-.414-.439 0-.816.066-1.131.199-.314.132-.555.312-.721.539a1.315 1.315 0 0 0-.256.779c0 .242.055.452.165.63.113.178.267.33.46.455.193.121.407.223.642.307.235.083.472.153.71.21l1.091.273c.44.102.862.24 1.267.414a4.47 4.47 0 0 1 1.097.66c.326.265.583.585.773.96.189.375.284.814.284 1.318 0 .682-.175 1.282-.523 1.801-.348.515-.852.919-1.511 1.21-.656.288-1.449.432-2.381.432-.905 0-1.691-.14-2.358-.42-.663-.281-1.182-.69-1.557-1.228-.371-.537-.572-1.193-.602-1.966h2.074c.03.406.155.743.375 1.012.219.269.505.47.858.602a3.39 3.39 0 0 0 1.193.199c.458 0 .86-.068 1.204-.205.349-.14.622-.333.819-.579.197-.25.297-.542.301-.875-.004-.303-.093-.553-.267-.75-.175-.201-.419-.368-.733-.5a7.098 7.098 0 0 0-1.091-.364l-1.324-.341c-.958-.246-1.716-.619-2.273-1.119-.553-.504-.829-1.172-.829-2.006 0-.685.185-1.286.557-1.801.375-.515.884-.915 1.528-1.199.644-.288 1.373-.431 2.187-.431.826 0 1.55.143 2.171.431.625.284 1.115.68 1.471 1.188a3.03 3.03 0 0 1 .552 1.738h-2.029Zm8.334-.289v1.591h-5.017v-1.591h5.017Zm-3.778-2.091h2.056v8.193c0 .277.042.489.125.636a.68.68 0 0 0 .341.296c.14.053.296.079.466.079.129 0 .246-.009.353-.028.109-.019.193-.036.25-.051l.346 1.608c-.11.038-.267.079-.471.125a3.86 3.86 0 0 1-.739.079 3.348 3.348 0 0 1-1.392-.233 2.163 2.163 0 0 1-.983-.806c-.239-.364-.356-.819-.352-1.364v-8.534Zm8.01 10.994a3.643 3.643 0 0 1-1.495-.295 2.44 2.44 0 0 1-1.045-.887c-.254-.39-.381-.871-.381-1.443 0-.492.091-.899.273-1.221.182-.322.43-.58.744-.773a3.785 3.785 0 0 1 1.063-.438 8.579 8.579 0 0 1 1.233-.221c.511-.053.926-.101 1.244-.142.318-.046.549-.114.693-.205.148-.095.222-.24.222-.437v-.034c0-.428-.127-.76-.381-.995s-.619-.352-1.097-.352c-.503 0-.903.11-1.198.329-.292.22-.489.48-.591.779l-1.921-.273c.152-.53.402-.973.75-1.329.349-.36.775-.629 1.279-.807a4.88 4.88 0 0 1 1.67-.273c.421 0 .839.049 1.256.148.416.098.797.261 1.142.488.344.224.621.529.829.915.212.387.319.87.319 1.449V544h-1.978v-1.199h-.068c-.125.243-.301.47-.528.682a2.557 2.557 0 0 1-.847.506c-.337.125-.733.187-1.187.187Zm.534-1.511c.413 0 .77-.082 1.074-.245.303-.166.535-.386.698-.659.167-.272.25-.57.25-.892v-1.028a.973.973 0 0 1-.329.148 4.76 4.76 0 0 1-.512.119c-.189.034-.376.064-.562.091l-.483.068a3.6 3.6 0 0 0-.824.205 1.367 1.367 0 0 0-.574.397c-.14.167-.21.383-.21.648 0 .379.138.665.415.858.276.193.629.29 1.057.29Zm8.199-3.779V544h-2.057v-8.727h1.966v1.483h.102c.201-.489.521-.877.96-1.165.443-.288.991-.432 1.642-.432.602 0 1.127.129 1.574.386a2.6 2.6 0 0 1 1.045 1.12c.25.488.374 1.081.37 1.778V544h-2.057v-5.239c0-.583-.152-1.039-.455-1.369-.299-.33-.714-.494-1.244-.494-.36 0-.68.079-.96.238a1.665 1.665 0 0 0-.654.676c-.155.296-.232.654-.232 1.074Zm10.931 5.267a3.307 3.307 0 0 1-1.841-.528c-.541-.352-.969-.864-1.284-1.534-.314-.671-.471-1.485-.471-2.443 0-.97.159-1.788.477-2.455.322-.67.756-1.176 1.301-1.517a3.344 3.344 0 0 1 1.824-.517c.511 0 .932.087 1.261.261.33.171.591.377.784.62.194.238.343.464.449.676h.086v-4.352h2.062V544h-2.023v-1.375h-.125a3.513 3.513 0 0 1-.46.676 2.526 2.526 0 0 1-.795.602c-.33.167-.745.25-1.245.25Zm.574-1.687c.436 0 .807-.118 1.114-.352.307-.239.54-.57.699-.995.159-.424.238-.918.238-1.483 0-.564-.079-1.055-.238-1.471-.156-.417-.387-.741-.693-.972-.304-.231-.677-.346-1.12-.346-.458 0-.841.119-1.148.358-.306.238-.537.568-.693.988a4.16 4.16 0 0 0-.233 1.443c0 .546.078 1.033.233 1.461.159.424.392.759.699 1.005.311.243.691.364 1.142.364Zm8.777 1.71a3.639 3.639 0 0 1-1.494-.295 2.443 2.443 0 0 1-1.046-.887c-.253-.39-.38-.871-.38-1.443 0-.492.091-.899.272-1.221.182-.322.43-.58.745-.773a3.767 3.767 0 0 1 1.062-.438 8.628 8.628 0 0 1 1.233-.221 51.91 51.91 0 0 0 1.245-.142c.318-.046.549-.114.693-.205.147-.095.221-.24.221-.437v-.034c0-.428-.127-.76-.38-.995-.254-.235-.62-.352-1.097-.352-.504 0-.903.11-1.199.329-.291.22-.488.48-.591.779l-1.92-.273c.151-.53.401-.973.75-1.329.348-.36.774-.629 1.278-.807a4.89 4.89 0 0 1 1.671-.273c.42 0 .839.049 1.255.148.417.098.798.261 1.142.488.345.224.622.529.83.915.212.387.318.87.318 1.449V544h-1.977v-1.199h-.068a2.49 2.49 0 0 1-1.375 1.188c-.337.125-.733.187-1.188.187Zm.534-1.511c.413 0 .771-.082 1.074-.245a1.8 1.8 0 0 0 .699-.659c.167-.272.25-.57.25-.892v-1.028a.97.97 0 0 1-.33.148 4.739 4.739 0 0 1-.511.119 17.23 17.23 0 0 1-.562.091l-.483.068c-.307.042-.582.11-.824.205a1.36 1.36 0 0 0-.574.397c-.14.167-.21.383-.21.648 0 .379.138.665.414.858.277.193.629.29 1.057.29Zm6.142 1.335v-8.727h1.995v1.454h.091c.159-.504.431-.892.818-1.165.39-.276.835-.414 1.335-.414.114 0 .24.005.381.017.144.007.263.021.358.04v1.892a2.147 2.147 0 0 0-.415-.08 3.906 3.906 0 0 0-.54-.04c-.375 0-.712.082-1.011.245a1.78 1.78 0 0 0-.699.664 1.869 1.869 0 0 0-.256.983V544h-2.057Zm9.223.153a3.307 3.307 0 0 1-1.841-.528c-.541-.352-.969-.864-1.284-1.534-.314-.671-.471-1.485-.471-2.443 0-.97.159-1.788.477-2.455.322-.67.756-1.176 1.301-1.517a3.344 3.344 0 0 1 1.824-.517c.511 0 .932.087 1.261.261.33.171.591.377.784.62.194.238.343.464.449.676h.086v-4.352h2.062V544h-2.023v-1.375h-.125a3.513 3.513 0 0 1-.46.676 2.526 2.526 0 0 1-.795.602c-.33.167-.745.25-1.245.25Zm.574-1.687c.436 0 .807-.118 1.114-.352.307-.239.54-.57.699-.995.159-.424.238-.918.238-1.483 0-.564-.079-1.055-.238-1.471-.156-.417-.387-.741-.693-.972-.304-.231-.677-.346-1.12-.346-.458 0-.841.119-1.148.358-.306.238-.537.568-.693.988a4.16 4.16 0 0 0-.233 1.443c0 .546.078 1.033.233 1.461.159.424.392.759.699 1.005.311.243.691.364 1.142.364Z"/>
          <path stroke="#D3D3D3" d="M22 390.5h350.837M22 327.5h351"/>
          <ellipse cx="34.875" cy="356.5" fill="#6C47FF" rx="11.797" ry="11.5"/>
          <path stroke="#fff" d="M0-.5h4.298" transform="scale(1.01267 .98716) rotate(45 -421.6 216.89)"/>
          <path stroke="#fff" d="M0-.5h10.028" transform="matrix(-.71607 .69803 -.71607 -.69803 40.517 353)"/>
          <path fill="#727272" d="M63.642 362h-2.25l4.097-11.636h2.602L72.193 362h-2.25l-3.108-9.25h-.09L63.641 362Zm.074-4.562h6.136v1.693h-6.136v-1.693Zm11.976-7.074V362h-2.057v-11.636h2.057ZM81.776 362v-8.727h1.966v1.483h.102c.182-.5.483-.89.903-1.171.42-.284.922-.426 1.506-.426.59 0 1.089.144 1.494.432.41.284.697.672.864 1.165h.09a2.38 2.38 0 0 1 .978-1.159c.462-.292 1.01-.438 1.642-.438.803 0 1.458.254 1.966.761.507.508.761 1.249.761 2.222V362h-2.062v-5.54c0-.541-.144-.937-.432-1.187a1.54 1.54 0 0 0-1.057-.381c-.496 0-.884.155-1.165.466-.276.307-.414.706-.414 1.199V362H86.9v-5.625c0-.451-.137-.811-.41-1.08-.269-.268-.62-.403-1.056-.403-.296 0-.565.076-.807.227a1.586 1.586 0 0 0-.58.631 1.97 1.97 0 0 0-.216.943V362h-2.056Zm18.223.17c-.875 0-1.631-.181-2.267-.545a3.69 3.69 0 0 1-1.46-1.557c-.342-.674-.512-1.468-.512-2.38 0-.898.17-1.686.511-2.364a3.868 3.868 0 0 1 1.444-1.591c.617-.383 1.342-.574 2.176-.574.538 0 1.045.087 1.522.261.481.171.906.436 1.273.796.371.36.663.818.875 1.375.212.553.318 1.212.318 1.977v.631h-7.153v-1.387h5.182a2.214 2.214 0 0 0-.256-1.051c-.167-.31-.4-.555-.699-.733a1.963 1.963 0 0 0-1.034-.267c-.42 0-.79.103-1.108.307a2.114 2.114 0 0 0-.744.796 2.284 2.284 0 0 0-.267 1.074v1.21c0 .507.093.943.278 1.307.186.359.445.636.778.829.334.189.724.284 1.171.284.299 0 .57-.041.812-.125.243-.087.453-.214.631-.381.178-.166.313-.373.404-.619l1.92.216a2.991 2.991 0 0 1-.693 1.33 3.385 3.385 0 0 1-1.296.875c-.526.204-1.128.306-1.806.306Zm12.518-6.59-1.875.204a1.52 1.52 0 0 0-.278-.534 1.376 1.376 0 0 0-.523-.403c-.22-.103-.489-.154-.807-.154-.428 0-.788.093-1.079.279-.288.185-.43.426-.427.721a.755.755 0 0 0 .279.619c.193.16.511.29.954.393l1.489.318c.826.178 1.439.46 1.841.846.405.387.61.892.614 1.517a2.377 2.377 0 0 1-.483 1.455c-.315.417-.752.742-1.313.977-.561.235-1.204.352-1.932.352-1.068 0-1.928-.223-2.579-.67-.652-.451-1.04-1.078-1.165-1.881l2.006-.193c.091.394.284.691.579.892.296.201.68.301 1.154.301.488 0 .88-.1 1.176-.301.299-.201.449-.449.449-.744a.774.774 0 0 0-.29-.619c-.19-.163-.485-.288-.887-.375l-1.488-.313c-.837-.174-1.457-.468-1.858-.881-.402-.416-.601-.943-.597-1.579-.004-.538.142-1.004.438-1.398.299-.398.714-.704 1.244-.92.534-.22 1.15-.33 1.847-.33 1.022 0 1.827.218 2.414.653.591.436.957 1.025 1.097 1.768Zm8.781 0-1.875.204a1.52 1.52 0 0 0-.278-.534 1.376 1.376 0 0 0-.523-.403c-.22-.103-.488-.154-.807-.154-.428 0-.788.093-1.079.279-.288.185-.43.426-.426.721a.754.754 0 0 0 .278.619c.193.16.511.29.955.393l1.488.318c.826.178 1.44.46 1.841.846.405.387.61.892.614 1.517a2.377 2.377 0 0 1-.483 1.455c-.315.417-.752.742-1.313.977-.56.235-1.204.352-1.931.352-1.069 0-1.929-.223-2.58-.67-.652-.451-1.04-1.078-1.165-1.881l2.006-.193c.091.394.284.691.579.892.296.201.68.301 1.154.301.488 0 .881-.1 1.176-.301.299-.201.449-.449.449-.744a.774.774 0 0 0-.29-.619c-.189-.163-.485-.288-.886-.375l-1.489-.313c-.837-.174-1.456-.468-1.858-.881-.401-.416-.6-.943-.596-1.579-.004-.538.142-1.004.437-1.398.299-.398.714-.704 1.244-.92.534-.22 1.15-.33 1.847-.33 1.023 0 1.828.218 2.415.653.591.436.956 1.025 1.096 1.768Zm4.395 6.596a3.639 3.639 0 0 1-1.494-.295 2.443 2.443 0 0 1-1.046-.887c-.253-.39-.38-.871-.38-1.443 0-.492.091-.899.272-1.221.182-.322.43-.58.745-.773a3.767 3.767 0 0 1 1.062-.438 8.628 8.628 0 0 1 1.233-.221 51.91 51.91 0 0 0 1.245-.142c.318-.046.549-.114.693-.205.147-.095.221-.24.221-.437v-.034c0-.428-.127-.76-.38-.995-.254-.235-.62-.352-1.097-.352-.504 0-.903.11-1.199.329-.291.22-.488.48-.591.779l-1.92-.273c.151-.53.401-.973.75-1.329.348-.36.774-.629 1.278-.807a4.89 4.89 0 0 1 1.671-.273c.42 0 .839.049 1.255.148.417.098.798.261 1.142.488.345.224.622.529.83.915.212.387.318.87.318 1.449V362h-1.977v-1.199h-.068a2.49 2.49 0 0 1-1.375 1.188c-.337.125-.733.187-1.188.187Zm.534-1.511c.413 0 .771-.082 1.074-.245a1.8 1.8 0 0 0 .699-.659c.167-.272.25-.57.25-.892v-1.028a.97.97 0 0 1-.33.148 4.739 4.739 0 0 1-.511.119 17.23 17.23 0 0 1-.562.091l-.483.068c-.307.042-.582.11-.824.205a1.36 1.36 0 0 0-.574.397c-.14.167-.21.383-.21.648 0 .379.138.665.414.858.277.193.629.29 1.057.29Zm9.938 4.79c-.739 0-1.373-.101-1.904-.302-.53-.197-.956-.462-1.278-.795a2.766 2.766 0 0 1-.671-1.108l1.853-.449c.083.171.204.339.363.506.16.17.374.31.642.42.273.114.616.171 1.029.171.583 0 1.066-.142 1.449-.426.382-.281.574-.743.574-1.387v-1.653h-.103c-.106.212-.261.43-.466.653a2.37 2.37 0 0 1-.801.563c-.329.151-.744.227-1.244.227-.67 0-1.278-.157-1.824-.472-.542-.318-.973-.791-1.295-1.42-.319-.633-.478-1.424-.478-2.375 0-.958.159-1.767.478-2.426.322-.663.755-1.165 1.301-1.506a3.34 3.34 0 0 1 1.824-.517c.511 0 .931.087 1.261.261.333.171.598.377.795.62.197.238.347.464.449.676h.114v-1.443h2.028v8.869c0 .746-.178 1.364-.534 1.852-.356.489-.843.854-1.46 1.097-.617.242-1.318.364-2.102.364Zm.017-5.194c.435 0 .807-.106 1.113-.318.307-.212.54-.517.699-.915.159-.397.239-.875.239-1.431 0-.55-.08-1.031-.239-1.444-.155-.412-.386-.733-.693-.96-.303-.231-.676-.346-1.119-.346-.459 0-.841.119-1.148.358-.307.238-.538.566-.693.983a3.984 3.984 0 0 0-.233 1.409c0 .534.078 1.001.233 1.403.159.398.392.708.699.932.31.22.691.329 1.142.329Zm10.051 1.909c-.875 0-1.631-.181-2.267-.545a3.686 3.686 0 0 1-1.46-1.557c-.341-.674-.512-1.468-.512-2.38 0-.898.171-1.686.512-2.364a3.858 3.858 0 0 1 1.443-1.591c.617-.383 1.343-.574 2.176-.574.538 0 1.045.087 1.523.261.481.171.905.436 1.272.796.372.36.663.818.875 1.375.213.553.319 1.212.319 1.977v.631h-7.154v-1.387h5.182a2.214 2.214 0 0 0-.256-1.051 1.858 1.858 0 0 0-.698-.733 1.97 1.97 0 0 0-1.035-.267c-.42 0-.789.103-1.108.307a2.114 2.114 0 0 0-.744.796 2.29 2.29 0 0 0-.267 1.074v1.21c0 .507.093.943.278 1.307.186.359.446.636.779.829.333.189.723.284 1.17.284.3 0 .57-.041.813-.125.242-.087.453-.214.631-.381.178-.166.312-.373.403-.619l1.92.216a2.991 2.991 0 0 1-.693 1.33 3.388 3.388 0 0 1-1.295.875c-.527.204-1.129.306-1.807.306Zm12.518-6.59-1.875.204a1.504 1.504 0 0 0-.278-.534 1.376 1.376 0 0 0-.523-.403c-.219-.103-.488-.154-.807-.154-.428 0-.787.093-1.079.279-.288.185-.43.426-.426.721a.754.754 0 0 0 .278.619c.193.16.512.29.955.393l1.488.318c.826.178 1.44.46 1.841.846.406.387.61.892.614 1.517a2.377 2.377 0 0 1-.483 1.455c-.314.417-.752.742-1.313.977-.56.235-1.204.352-1.931.352-1.069 0-1.928-.223-2.58-.67-.651-.451-1.04-1.078-1.165-1.881l2.006-.193c.091.394.284.691.58.892.295.201.679.301 1.153.301.489 0 .881-.1 1.176-.301.299-.201.449-.449.449-.744a.774.774 0 0 0-.29-.619c-.189-.163-.485-.288-.886-.375l-1.489-.313c-.837-.174-1.456-.468-1.858-.881-.401-.416-.6-.943-.596-1.579-.004-.538.142-1.004.437-1.398.299-.398.714-.704 1.244-.92.535-.22 1.15-.33 1.847-.33 1.023 0 1.828.218 2.415.653.591.436.956 1.025 1.096 1.768Z"/>
          <path fill="#333" d="M280.08 362.159c-.758 0-1.436-.142-2.035-.426a3.637 3.637 0 0 1-1.426-1.182 3.134 3.134 0 0 1-.557-1.716h2.046c.038.477.244.868.619 1.171.375.299.826.449 1.353.449.412 0 .78-.095 1.102-.285.322-.189.576-.452.761-.789.186-.337.277-.722.273-1.154a2.328 2.328 0 0 0-.278-1.17 2.083 2.083 0 0 0-.779-.801 2.17 2.17 0 0 0-1.136-.296 2.714 2.714 0 0 0-1.029.193 2.11 2.11 0 0 0-.801.523l-1.903-.312.608-6h6.75v1.761h-5.006l-.335 3.085h.068c.216-.254.521-.464.915-.63a3.219 3.219 0 0 1 1.295-.256c.705 0 1.334.167 1.887.5.553.329.988.784 1.306 1.364.319.579.478 1.242.478 1.988 0 .769-.178 1.455-.534 2.057a3.789 3.789 0 0 1-1.472 1.415c-.625.341-1.348.511-2.17.511Zm10.38.063c-.935 0-1.738-.237-2.409-.711-.667-.477-1.18-1.164-1.54-2.062-.356-.902-.534-1.987-.534-3.256.004-1.269.184-2.348.54-3.238.36-.894.873-1.576 1.54-2.046.67-.47 1.471-.704 2.403-.704.932 0 1.733.234 2.404.704.67.47 1.183 1.152 1.539 2.046.36.893.54 1.973.54 3.238 0 1.273-.18 2.36-.54 3.262-.356.897-.869 1.583-1.539 2.056-.667.474-1.468.711-2.404.711Zm0-1.779c.728 0 1.301-.358 1.722-1.074.424-.719.636-1.778.636-3.176 0-.924-.096-1.701-.29-2.329-.193-.629-.465-1.103-.818-1.421a1.79 1.79 0 0 0-1.25-.483c-.723 0-1.295.36-1.716 1.08-.42.716-.632 1.767-.636 3.153-.004.928.089 1.709.278 2.341.194.633.466 1.11.819 1.432.352.318.77.477 1.255.477Zm10.672 1.779c-.936 0-1.739-.237-2.409-.711-.667-.477-1.18-1.164-1.54-2.062-.356-.902-.534-1.987-.534-3.256.004-1.269.184-2.348.54-3.238.36-.894.873-1.576 1.54-2.046.67-.47 1.471-.704 2.403-.704.932 0 1.733.234 2.404.704.67.47 1.183 1.152 1.539 2.046.36.893.54 1.973.54 3.238 0 1.273-.18 2.36-.54 3.262-.356.897-.869 1.583-1.539 2.056-.667.474-1.468.711-2.404.711Zm0-1.779c.727 0 1.301-.358 1.722-1.074.424-.719.636-1.778.636-3.176 0-.924-.097-1.701-.29-2.329-.193-.629-.466-1.103-.818-1.421a1.79 1.79 0 0 0-1.25-.483c-.723 0-1.295.36-1.716 1.08-.42.716-.632 1.767-.636 3.153-.004.928.089 1.709.278 2.341.193.633.466 1.11.818 1.432.353.318.771.477 1.256.477Zm10.672 1.779c-.936 0-1.739-.237-2.409-.711-.667-.477-1.18-1.164-1.54-2.062-.356-.902-.534-1.987-.534-3.256.004-1.269.184-2.348.54-3.238.36-.894.873-1.576 1.54-2.046.67-.47 1.471-.704 2.403-.704.932 0 1.733.234 2.403.704.671.47 1.184 1.152 1.54 2.046.36.893.54 1.973.54 3.238 0 1.273-.18 2.36-.54 3.262-.356.897-.869 1.583-1.54 2.056-.666.474-1.467.711-2.403.711Zm0-1.779c.727 0 1.301-.358 1.722-1.074.424-.719.636-1.778.636-3.176 0-.924-.097-1.701-.29-2.329-.193-.629-.466-1.103-.818-1.421a1.79 1.79 0 0 0-1.25-.483c-.724 0-1.295.36-1.716 1.08-.42.716-.633 1.767-.636 3.153-.004.928.089 1.709.278 2.341.193.633.466 1.11.818 1.432.353.318.771.477 1.256.477Zm11.143-10.625-3.75 13.932h-1.801l3.75-13.932h1.801ZM324.26 362v-8.727h1.966v1.483h.102c.182-.5.483-.89.904-1.171.42-.284.922-.426 1.505-.426.591 0 1.089.144 1.495.432.409.284.697.672.863 1.165h.091c.193-.485.519-.872.977-1.159.462-.292 1.01-.438 1.642-.438.803 0 1.459.254 1.966.761.508.508.762 1.249.762 2.222V362h-2.063v-5.54c0-.541-.144-.937-.432-1.187a1.54 1.54 0 0 0-1.056-.381c-.497 0-.885.155-1.165.466-.277.307-.415.706-.415 1.199V362h-2.017v-5.625c0-.451-.136-.811-.409-1.08-.269-.268-.621-.403-1.057-.403a1.5 1.5 0 0 0-.807.227 1.589 1.589 0 0 0-.579.631 1.968 1.968 0 0 0-.216.943V362h-2.057Zm18.166.17c-.852 0-1.591-.187-2.216-.562a3.816 3.816 0 0 1-1.454-1.574c-.341-.674-.512-1.462-.512-2.364 0-.901.171-1.691.512-2.369a3.805 3.805 0 0 1 1.454-1.579c.625-.375 1.364-.563 2.216-.563.852 0 1.591.188 2.216.563a3.774 3.774 0 0 1 1.449 1.579c.345.678.517 1.468.517 2.369 0 .902-.172 1.69-.517 2.364a3.785 3.785 0 0 1-1.449 1.574c-.625.375-1.364.562-2.216.562Zm.012-1.647c.462 0 .848-.127 1.159-.381.31-.258.541-.602.693-1.034.155-.432.233-.913.233-1.443 0-.534-.078-1.017-.233-1.449-.152-.436-.383-.782-.693-1.04-.311-.257-.697-.386-1.159-.386-.474 0-.868.129-1.182.386-.311.258-.544.604-.699 1.04a4.345 4.345 0 0 0-.227 1.449c0 .53.075 1.011.227 1.443.155.432.388.776.699 1.034.314.254.708.381 1.182.381Zm7.973-3.637V362h-2.057v-8.727h1.966v1.483h.102c.201-.489.521-.877.96-1.165.443-.288.991-.432 1.642-.432.602 0 1.127.129 1.574.386a2.6 2.6 0 0 1 1.045 1.12c.25.488.374 1.081.37 1.778V362h-2.057v-5.239c0-.583-.152-1.039-.455-1.369-.299-.33-.714-.494-1.244-.494-.36 0-.68.079-.96.238a1.665 1.665 0 0 0-.654.676c-.155.296-.232.654-.232 1.074Zm12.051-3.613v1.591h-5.017v-1.591h5.017Zm-3.779-2.091h2.057v8.193c0 .277.042.489.125.636a.676.676 0 0 0 .341.296c.14.053.295.079.466.079.129 0 .246-.009.352-.028.11-.019.193-.036.25-.051l.347 1.608c-.11.038-.267.079-.472.125a3.857 3.857 0 0 1-.738.079 3.35 3.35 0 0 1-1.393-.233 2.166 2.166 0 0 1-.982-.806c-.239-.364-.357-.819-.353-1.364v-8.534Zm7.743 5.704V362h-2.057v-11.636h2.012v4.392h.102c.205-.493.521-.881.949-1.165.432-.288.981-.432 1.648-.432.606 0 1.134.127 1.585.381.451.254.799.625 1.045 1.113.25.489.375 1.086.375 1.79V362h-2.057v-5.239c0-.587-.151-1.043-.454-1.369-.299-.33-.72-.494-1.262-.494-.363 0-.689.079-.977.238a1.677 1.677 0 0 0-.67.676c-.159.296-.239.654-.239 1.074Z"/>
          <rect width="351" height="49" x="22" y="258" fill="#6C47FF" rx="5"/>
          <path fill="#fff" d="M181.648 279.457a1.553 1.553 0 0 0-.703-1.172c-.412-.281-.93-.421-1.555-.421-.448 0-.835.071-1.161.213a1.79 1.79 0 0 0-.762.575 1.357 1.357 0 0 0-.266.826c0 .259.06.483.181.671.124.188.286.346.484.474.203.125.42.229.65.315.231.081.453.149.666.202l1.066.277c.348.085.704.201 1.07.346.366.146.705.337 1.018.575.312.238.564.533.756.885.195.351.293.772.293 1.262 0 .618-.16 1.167-.479 1.646-.317.479-.776.858-1.38 1.135-.6.277-1.326.415-2.179.415-.816 0-1.523-.13-2.12-.389-.596-.259-1.063-.627-1.401-1.102-.337-.48-.523-1.048-.559-1.705h1.651c.032.394.16.723.384.986.227.259.517.452.868.58.355.124.744.187 1.167.187.465 0 .879-.073 1.241-.219.366-.149.653-.355.863-.618.209-.266.314-.577.314-.932 0-.323-.092-.588-.277-.794a2.048 2.048 0 0 0-.74-.511 7.227 7.227 0 0 0-1.05-.357l-1.289-.351c-.873-.238-1.566-.588-2.077-1.05-.508-.461-.762-1.072-.762-1.832 0-.629.17-1.177.511-1.646.341-.469.803-.833 1.385-1.092.583-.263 1.24-.394 1.971-.394.739 0 1.39.129 1.955.389.568.259 1.016.616 1.342 1.07.327.451.498.97.512 1.556h-1.588Zm7.102 8.208c-.806 0-1.5-.172-2.082-.517a3.506 3.506 0 0 1-1.343-1.464c-.312-.633-.469-1.373-.469-2.222 0-.838.157-1.576.469-2.216a3.639 3.639 0 0 1 1.321-1.496c.568-.359 1.232-.538 1.992-.538.462 0 .909.076 1.343.229.433.152.822.392 1.166.719.345.327.616.751.815 1.273.199.518.299 1.149.299 1.891v.564h-6.504v-1.193h4.943c0-.419-.085-.79-.256-1.113a1.925 1.925 0 0 0-.719-.772c-.305-.189-.664-.283-1.076-.283-.447 0-.838.11-1.172.331-.33.216-.586.5-.767.852a2.466 2.466 0 0 0-.266 1.134v.933c0 .547.096 1.012.287 1.395.196.384.467.677.815.879.348.199.755.298 1.22.298.302 0 .577-.042.826-.127a1.79 1.79 0 0 0 .644-.395 1.7 1.7 0 0 0 .416-.644l1.507.272c-.12.443-.337.832-.65 1.166-.308.33-.697.588-1.166.772-.465.182-.996.272-1.593.272Zm6.87-11.074V287.5h-1.592v-10.909h1.592Zm5.669 11.074c-.806 0-1.5-.172-2.082-.517a3.506 3.506 0 0 1-1.343-1.464c-.312-.633-.468-1.373-.468-2.222 0-.838.156-1.576.468-2.216a3.639 3.639 0 0 1 1.321-1.496c.568-.359 1.233-.538 1.992-.538.462 0 .91.076 1.343.229.433.152.822.392 1.166.719.345.327.616.751.815 1.273.199.518.299 1.149.299 1.891v.564h-6.504v-1.193h4.943c0-.419-.085-.79-.256-1.113a1.925 1.925 0 0 0-.719-.772c-.305-.189-.664-.283-1.076-.283-.447 0-.838.11-1.172.331-.33.216-.586.5-.767.852a2.466 2.466 0 0 0-.266 1.134v.933c0 .547.096 1.012.288 1.395.195.384.466.677.814.879.349.199.755.298 1.22.298.302 0 .577-.042.826-.127.249-.089.463-.221.644-.395a1.7 1.7 0 0 0 .416-.644l1.507.272a2.73 2.73 0 0 1-.649 1.166c-.309.33-.698.588-1.167.772-.465.182-.996.272-1.593.272Zm8.724 0c-.792 0-1.474-.179-2.045-.538a3.566 3.566 0 0 1-1.311-1.497c-.305-.635-.458-1.363-.458-2.184 0-.831.156-1.564.469-2.2a3.583 3.583 0 0 1 1.321-1.496c.568-.359 1.238-.538 2.008-.538.622 0 1.176.115 1.662.346.487.227.879.547 1.177.959.302.412.481.893.538 1.443h-1.55a1.855 1.855 0 0 0-.586-.991c-.302-.277-.706-.415-1.214-.415-.444 0-.833.117-1.167.352-.33.23-.587.561-.772.99-.185.426-.277.931-.277 1.513 0 .597.09 1.112.272 1.545.181.433.436.769.767 1.007.333.238.726.356 1.177.356.302 0 .575-.055.82-.165.249-.113.456-.275.623-.484.171-.21.29-.462.357-.757h1.55a3.019 3.019 0 0 1-.516 1.417 2.972 2.972 0 0 1-1.156.98c-.48.238-1.043.357-1.689.357Zm8.884-8.347v1.279h-4.469v-1.279h4.469Zm-3.271-1.96h1.593v7.74c0 .309.046.541.138.697a.73.73 0 0 0 .357.315c.149.053.311.08.485.08.128 0 .24-.009.336-.027l.223-.043.288 1.316a3.163 3.163 0 0 1-1.033.171c-.42.007-.81-.068-1.172-.224a2 2 0 0 1-.879-.725c-.224-.326-.336-.736-.336-1.23v-8.07Z"/>
        </svg>
