<svg width="57" height="57" viewBox="0 0 57 57" fill="none" xmlns="http://www.w3.org/2000/svg">
<g clip-path="url(#clip0_288_235)">
<rect width="57" height="57" rx="15" fill="#6C47FF"/>
<path d="M12 25.9477C12.0291 25.824 12.0567 25.7004 12.0858 25.5752C12.2444 24.8652 12.5849 24.257 13.1 23.7434C14.2872 22.5605 15.4687 21.3747 16.6545 20.1918C17.1856 19.6622 17.6555 19.6622 18.188 20.1933C20.065 22.0673 21.939 23.9428 23.8145 25.8197C24.3528 26.3595 24.3514 26.8338 23.8101 27.3765C22.8163 28.3717 21.827 29.3727 20.8216 30.3563C20.6077 30.5658 20.599 30.7113 20.7692 30.9543C22.4832 33.3958 24.558 35.472 26.9936 37.1933C27.2642 37.3839 27.4286 37.3912 27.6687 37.1438C28.6348 36.1501 29.6213 35.1781 30.602 34.2004C31.1636 33.6388 31.6292 33.6344 32.1821 34.1873C34.043 36.0468 35.9039 37.9077 37.7619 39.7686C38.3236 40.3302 38.3236 40.7856 37.7648 41.3458C36.7856 42.3265 35.7875 43.2882 34.8316 44.2892C34.0619 45.0953 33.25 45.7995 32.1064 45.9887H31.2043C31.133 45.9683 31.0632 45.9406 30.9904 45.9276C29.2605 45.6191 27.6018 45.0851 26.01 44.3445C22.4046 42.6626 19.3942 40.2182 16.8902 37.1453C14.91 34.7154 13.4099 32.0223 12.5442 28.9974C12.3303 28.248 12.1804 27.4813 12.0015 26.7232C12.0015 26.4657 12.0015 26.2082 12.0015 25.9506L12 25.9477ZM17.3951 21.7545C17.4038 21.7515 17.3791 21.753 17.3645 21.7661C16.2704 22.8588 15.166 23.9398 14.0923 25.0514C13.6761 25.4821 13.5496 26.0379 13.6485 26.6374C13.9628 28.5259 14.5797 30.3141 15.4512 32.0135C17.283 35.5899 19.8831 38.5042 23.1466 40.8293C25.559 42.5491 28.1998 43.764 31.1287 44.3198C31.942 44.474 32.5982 44.2543 33.1715 43.6709C34.1187 42.7048 35.0819 41.7547 36.0378 40.7973C36.112 40.7231 36.1818 40.6445 36.2255 40.5979C34.5959 38.9669 32.9838 37.3533 31.3135 35.6816C31.2465 35.7718 31.1767 35.8954 31.0792 35.9944C30.2775 36.8019 29.4758 37.6109 28.6654 38.4096C27.9495 39.1153 27.062 39.1881 26.2399 38.6206C23.5336 36.7539 21.245 34.4666 19.3782 31.7604C18.8006 30.9223 18.8806 30.0391 19.6037 29.3116C20.4287 28.4823 21.2581 27.6559 22.0845 26.828C22.1572 26.7552 22.2242 26.6752 22.2722 26.6228C20.6382 24.9918 19.0232 23.3782 17.3965 21.7545H17.3951Z" fill="white"/>
<path d="M44.9976 26.6243C44.9583 31.0111 43.3549 34.6616 40.0521 37.541C39.8775 37.6938 39.6782 37.8422 39.4629 37.9164C39.1137 38.0386 38.7325 37.8495 38.5608 37.5308C38.3833 37.202 38.4604 36.8135 38.7528 36.5356C39.2664 36.0482 39.8208 35.5957 40.282 35.0646C42.5343 32.4704 43.5921 29.4499 43.3229 26.0146C42.8821 20.4057 38.926 15.8909 33.4174 14.852C28.8953 13.9994 25.0309 15.3598 21.8765 18.7179C21.7877 18.8125 21.7077 18.9129 21.616 19.0045C21.2872 19.3319 20.81 19.3552 20.4855 19.0642C20.1625 18.7732 20.129 18.2916 20.4273 17.9351C21.2028 17.0068 22.0889 16.1964 23.0827 15.5097C25.5983 13.7739 28.389 12.9329 31.4444 13.0042C37.7183 13.1526 43.1789 17.6034 44.5975 23.7158C44.6994 24.1537 44.7896 24.5975 44.8478 25.0427C44.9176 25.5738 44.9496 26.1107 44.9947 26.6243H44.9976Z" fill="white"/>
<path d="M28.4866 29.3355C28.6001 29.3355 28.7151 29.3355 28.8286 29.3355C29.7947 29.3355 30.7609 29.3297 31.7271 29.3443C32.1447 29.3501 32.4343 29.6135 32.4997 29.986C32.5667 30.3643 32.3935 30.7135 32.0516 30.8576C31.9366 30.9056 31.8028 30.9332 31.6776 30.9332C30.1309 30.9376 28.5856 30.9463 27.0388 30.9318C26.3243 30.9245 25.8733 30.2784 26.1774 29.6367C26.3971 29.1726 26.7172 28.7302 27.0839 28.3694C27.7256 27.7379 28.4459 27.1878 29.1152 26.584C29.5605 26.1824 29.981 25.7517 30.3971 25.3195C30.6299 25.0794 30.7289 24.7782 30.7056 24.4348C30.6867 24.1569 30.71 23.876 30.694 23.5981C30.6547 22.8968 30.0857 22.354 29.3888 22.3409C28.6859 22.3278 28.101 22.84 28.0268 23.5385C28.0093 23.6985 28.0137 23.8615 27.9933 24.0201C27.9366 24.4304 27.6005 24.7229 27.1988 24.7185C26.7958 24.7142 26.4669 24.4144 26.4175 24.0041C26.2181 22.3715 27.4739 20.8902 29.1778 20.7491C30.7638 20.6166 32.2276 21.9131 32.3004 23.5137C32.3062 23.6534 32.2946 23.7946 32.3106 23.9328C32.4779 25.2598 31.8813 26.2609 30.9413 27.1034C30.2065 27.7626 29.4499 28.3985 28.7049 29.046C28.6248 29.1158 28.5477 29.1886 28.4691 29.2599C28.4735 29.2861 28.4793 29.3108 28.4837 29.337L28.4866 29.3355Z" fill="white"/>
<path d="M34.8942 26.5825H37.5177C37.5177 26.0194 37.5076 25.465 37.5207 24.9121C37.5338 24.298 38.0998 23.9168 38.6367 24.1511C38.9525 24.2893 39.1213 24.5454 39.1227 24.8859C39.1285 26.6364 39.1314 28.3868 39.1227 30.1373C39.1198 30.6044 38.7677 30.9347 38.3239 30.9347C37.8684 30.9347 37.5279 30.5956 37.5207 30.1067C37.5105 29.4854 37.5177 28.8641 37.5177 28.2006C37.3824 28.2006 37.2689 28.2006 37.1554 28.2006C36.2969 28.2006 35.437 28.2049 34.5785 28.2006C33.5585 28.1933 32.9211 27.2955 33.266 26.3351C33.864 24.6705 34.4766 23.0117 35.0878 21.3515C35.2755 20.8422 35.7018 20.6225 36.1471 20.7854C36.6069 20.9542 36.7829 21.3966 36.5894 21.9277C36.0714 23.3479 35.549 24.7666 35.0295 26.1853C34.9859 26.3046 34.9481 26.4268 34.8942 26.584V26.5825Z" fill="white"/>
</g>
<defs>
<clipPath id="clip0_288_235">
<rect width="57" height="57" fill="white"/>
</clipPath>
</defs>
</svg>
