<svg width="560" height="417" viewBox="0 0 560 417" fill="none" xmlns="http://www.w3.org/2000/svg">
<g clip-path="url(#clip0_104_2180)">
<rect width="560" height="417" rx="31" fill="#120B36"/>
<path d="M280 133C238.036 133 204 167.038 204 209.038C204 251.039 238.02 285.077 280 285.077C321.979 285.077 356 251.039 356 209.038C356 167.038 321.979 133 280 133ZM331.084 258.834H280C251.785 258.834 228.916 235.954 228.916 207.724C228.916 179.494 251.785 156.614 280 156.614C308.215 156.614 331.084 179.494 331.084 207.724C331.084 222.901 324.47 236.519 313.975 245.873L331.084 258.834Z" fill="white"/>
<path d="M250.134 179.174H279.984C296.467 179.174 309.834 192.547 309.834 209.039C309.834 225.53 296.467 238.904 279.984 238.904C263.501 238.904 250.134 225.53 250.134 209.039C250.134 200.174 253.999 192.211 260.125 186.739L250.134 179.158V179.174Z" fill="white"/>
</g>
<defs>
<clipPath id="clip0_104_2180">
<rect width="560" height="417" fill="white"/>
</clipPath>
</defs>
</svg>
