<svg width="121" height="150" viewBox="0 0 121 150" fill="none" xmlns="http://www.w3.org/2000/svg">
<g clip-path="url(#clip0_98_1104)">
<path d="M23.116 146L19.9 134.8H21.468L24.028 144.016L26.748 134.8H28.252L30.972 144.016L33.532 134.8H35.1L31.884 146H30.156L27.5 137.056L24.844 146H23.116ZM40.2275 137.792C41.1662 137.792 41.9182 138.091 42.4835 138.688C43.0488 139.275 43.3315 140.075 43.3315 141.088V146H41.9395V141.168C41.9395 140.517 41.7635 140.016 41.4115 139.664C41.0595 139.301 40.5742 139.12 39.9555 139.12C39.2622 139.12 38.7022 139.339 38.2755 139.776C37.8488 140.203 37.6355 140.864 37.6355 141.76V146H36.2435V134.8H37.6355V139.152C38.2008 138.245 39.0648 137.792 40.2275 137.792ZM51.8988 138H53.2908V146H51.8988V144.624C51.2054 145.68 50.1974 146.208 48.8748 146.208C47.7548 146.208 46.8001 145.803 46.0108 144.992C45.2214 144.171 44.8268 143.173 44.8268 142C44.8268 140.827 45.2214 139.835 46.0108 139.024C46.8001 138.203 47.7548 137.792 48.8748 137.792C50.1974 137.792 51.2054 138.32 51.8988 139.376V138ZM49.0508 144.864C49.8614 144.864 50.5388 144.592 51.0828 144.048C51.6268 143.493 51.8988 142.811 51.8988 142C51.8988 141.189 51.6268 140.512 51.0828 139.968C50.5388 139.413 49.8614 139.136 49.0508 139.136C48.2508 139.136 47.5788 139.413 47.0348 139.968C46.4908 140.512 46.2188 141.189 46.2188 142C46.2188 142.811 46.4908 143.493 47.0348 144.048C47.5788 144.592 48.2508 144.864 49.0508 144.864ZM59.7518 139.344H57.6238V143.68C57.6238 144.075 57.6984 144.357 57.8478 144.528C58.0078 144.688 58.2478 144.773 58.5677 144.784C58.8877 144.784 59.2824 144.773 59.7518 144.752V146C58.5358 146.16 57.6451 146.064 57.0798 145.712C56.5144 145.349 56.2318 144.672 56.2318 143.68V139.344H54.6478V138H56.2318V136.176L57.6238 135.76V138H59.7518V139.344ZM62.2091 140.16C62.2091 140.469 62.3638 140.72 62.6731 140.912C62.9825 141.093 63.3558 141.243 63.7931 141.36C64.2305 141.467 64.6678 141.595 65.1051 141.744C65.5425 141.883 65.9158 142.128 66.2251 142.48C66.5345 142.821 66.6891 143.264 66.6891 143.808C66.6891 144.533 66.4065 145.115 65.8411 145.552C65.2865 145.989 64.5718 146.208 63.6971 146.208C62.9185 146.208 62.2518 146.037 61.6971 145.696C61.1425 145.355 60.7478 144.901 60.5131 144.336L61.7131 143.648C61.8411 144.032 62.0811 144.336 62.4331 144.56C62.7851 144.784 63.2065 144.896 63.6971 144.896C64.1558 144.896 64.5345 144.811 64.8331 144.64C65.1318 144.459 65.2811 144.181 65.2811 143.808C65.2811 143.499 65.1265 143.253 64.8171 143.072C64.5078 142.88 64.1345 142.731 63.6971 142.624C63.2598 142.507 62.8225 142.373 62.3851 142.224C61.9478 142.075 61.5745 141.829 61.2651 141.488C60.9558 141.147 60.8011 140.709 60.8011 140.176C60.8011 139.483 61.0678 138.912 61.6011 138.464C62.1451 138.016 62.8225 137.792 63.6331 137.792C64.2838 137.792 64.8598 137.941 65.3611 138.24C65.8731 138.528 66.2571 138.933 66.5131 139.456L65.3451 140.112C65.0571 139.429 64.4865 139.088 63.6331 139.088C63.2385 139.088 62.9025 139.184 62.6251 139.376C62.3478 139.557 62.2091 139.819 62.2091 140.16ZM75.8573 146L74.9453 143.488H69.9053L68.9933 146H67.4093L71.5853 134.8H73.2653L77.4413 146H75.8573ZM70.4173 142.096H74.4333L72.4173 136.576L70.4173 142.096ZM83.0345 137.792C84.1545 137.792 85.1092 138.203 85.8985 139.024C86.6878 139.835 87.0825 140.827 87.0825 142C87.0825 143.173 86.6878 144.171 85.8985 144.992C85.1092 145.803 84.1545 146.208 83.0345 146.208C81.7118 146.208 80.7038 145.68 80.0105 144.624V149.2H78.6185V138H80.0105V139.376C80.7038 138.32 81.7118 137.792 83.0345 137.792ZM82.8585 144.864C83.6585 144.864 84.3305 144.592 84.8745 144.048C85.4185 143.493 85.6905 142.811 85.6905 142C85.6905 141.189 85.4185 140.512 84.8745 139.968C84.3305 139.413 83.6585 139.136 82.8585 139.136C82.0478 139.136 81.3705 139.413 80.8265 139.968C80.2825 140.512 80.0105 141.189 80.0105 142C80.0105 142.811 80.2825 143.493 80.8265 144.048C81.3705 144.592 82.0478 144.864 82.8585 144.864ZM93.1595 137.792C94.2795 137.792 95.2342 138.203 96.0235 139.024C96.8128 139.835 97.2075 140.827 97.2075 142C97.2075 143.173 96.8128 144.171 96.0235 144.992C95.2342 145.803 94.2795 146.208 93.1595 146.208C91.8368 146.208 90.8288 145.68 90.1355 144.624V149.2H88.7435V138H90.1355V139.376C90.8288 138.32 91.8368 137.792 93.1595 137.792ZM92.9835 144.864C93.7835 144.864 94.4555 144.592 94.9995 144.048C95.5435 143.493 95.8155 142.811 95.8155 142C95.8155 141.189 95.5435 140.512 94.9995 139.968C94.4555 139.413 93.7835 139.136 92.9835 139.136C92.1728 139.136 91.4955 139.413 90.9515 139.968C90.4075 140.512 90.1355 141.189 90.1355 142C90.1355 142.811 90.4075 143.493 90.9515 144.048C91.4955 144.592 92.1728 144.864 92.9835 144.864Z" fill="#B6B6B6"/>
<rect width="121" height="121" rx="26" fill="#120B36"/>
<path fill-rule="evenodd" clip-rule="evenodd" d="M91.9213 59.4264C91.5279 43.1396 78.0736 30 61.5507 30C45.1853 30 31.8883 42.8249 31.1802 58.8756C31.1802 59.3477 31.1802 59.7411 31.1802 60.2132C31.1802 65.9569 32.7538 71.2284 35.5076 75.7919L30 92L46.8376 86.6498C51.165 89.0102 56.2005 90.4264 61.5507 90.4264C78.3883 90.4264 92 76.8934 92 60.2132C91.9213 59.9772 91.9213 59.6624 91.9213 59.4264ZM61.5507 85.5482C56.3579 85.5482 51.5584 83.9746 47.467 81.3782L37.632 84.5254L40.8579 75.0838C37.7893 70.9137 35.9797 65.7208 35.9797 60.2132C35.9797 59.3477 36.0584 58.5609 36.137 57.7741C37.3959 44.9492 48.3325 34.8782 61.5507 34.8782C75.0051 34.8782 86.0203 45.1853 87.0432 58.2462C87.1218 58.8756 87.1218 59.5838 87.1218 60.2132C87.1218 74.2183 75.6345 85.5482 61.5507 85.5482Z" fill="white"/>
<path fill-rule="evenodd" clip-rule="evenodd" d="M75.4771 66.2716C74.6903 65.8782 71.071 64.0685 70.3629 63.8325C69.6548 63.5964 69.1827 63.4391 68.7106 64.2259C68.2386 64.934 66.7436 66.665 66.3502 67.1371C65.8781 67.6091 65.4847 67.6878 64.6979 67.2944C63.9898 66.901 61.5508 66.1929 58.7183 63.5964C56.5152 61.6294 55.0203 59.1904 54.5482 58.4822C54.1548 57.7741 54.4695 57.3807 54.8629 56.9873C55.1776 56.6726 55.5711 56.1218 55.9645 55.7284C56.0431 55.5711 56.1218 55.4924 56.2005 55.335C56.3578 55.099 56.5152 54.7843 56.6726 54.4695C56.9086 53.9975 56.8299 53.5254 56.5939 53.2107C56.4365 52.8173 54.9416 49.198 54.3122 47.703C53.6827 46.2081 53.0533 46.4442 52.6599 46.4442C52.2665 46.4442 51.7157 46.3655 51.2436 46.3655C50.7716 46.3655 49.9061 46.5228 49.2766 47.3096C48.5685 48.0178 46.6802 49.8274 46.6802 53.5254C46.6802 54.3909 46.8375 55.2563 47.0736 56.0431C47.8604 58.6396 49.434 60.764 49.7487 61.1574C50.1421 61.6294 54.9416 69.3401 62.4949 72.33C70.0482 75.2411 70.0482 74.297 71.4644 74.1396C72.802 74.0609 75.8705 72.33 76.5 70.599C77.1294 68.868 77.1294 67.3731 76.9721 67.0584C76.736 66.8223 76.1853 66.665 75.4771 66.2716Z" fill="white"/>
</g>
<defs>
<clipPath id="clip0_98_1104">
<rect width="121" height="150" fill="white"/>
</clipPath>
</defs>
</svg>
