<svg width="57" height="57" viewBox="0 0 57 57" fill="none" xmlns="http://www.w3.org/2000/svg">
<g clip-path="url(#clip0_288_231)">
<rect width="57" height="57" rx="15" fill="#6C47FF"/>
<path d="M15.0025 21.4921C15.2674 20.4679 16.0759 20.002 16.9522 19.62C18.1082 19.1171 19.3333 18.8904 20.5793 18.7721C22.7275 18.5675 24.8559 18.6661 26.9437 19.249C27.7361 19.4696 28.4965 19.7703 29.1497 20.2929C29.6711 20.7107 29.9422 21.2308 29.9397 21.9197C29.9286 26.2025 29.9311 30.4865 29.9397 34.7692C29.9397 35.1045 29.8276 35.3436 29.5885 35.5543C29.0869 35.9992 28.4818 36.2519 27.8643 36.4737C26.7452 36.8767 25.5843 37.0998 24.4036 37.2218C22.497 37.419 20.5965 37.3635 18.7232 36.9556C17.9197 36.7806 17.1408 36.4836 16.3643 36.2063C15.8073 36.0078 15.3525 35.6443 15 35.1636V21.4921H15.0025ZM15.9342 31.5797C15.9342 32.6162 15.9391 33.6083 15.9293 34.6004C15.9268 34.7865 15.9736 34.9307 16.1339 35.0083C16.6305 35.2511 17.1161 35.5309 17.6362 35.7047C19.0893 36.189 20.599 36.3591 22.126 36.3862C23.9414 36.4183 25.7272 36.2235 27.4514 35.6381C27.9358 35.473 28.3856 35.2006 28.8379 34.9541C28.923 34.9073 28.9945 34.7532 28.9969 34.6472C29.0092 33.6724 29.0043 32.6975 29.0031 31.7239C29.0031 31.6844 28.9932 31.6437 28.9846 31.5895C26.9165 32.6334 24.708 32.891 22.4662 32.891C20.2243 32.891 18.017 32.6322 15.9354 31.5784L15.9342 31.5797ZM29.0031 27.2131C26.9634 28.4221 24.7376 28.6896 22.4773 28.6908C20.2083 28.6908 17.9751 28.4246 15.9342 27.2131C15.9342 28.1621 15.9576 29.0803 15.9231 29.996C15.9083 30.3719 16.0513 30.5974 16.3569 30.7219C17.0372 30.9967 17.7126 31.3024 18.4188 31.4897C20.0592 31.9247 21.7415 32.0172 23.4312 31.9346C24.7992 31.8681 26.1524 31.6807 27.449 31.2247C27.9247 31.0583 28.3684 30.7971 28.8145 30.5567C28.9045 30.5087 28.9932 30.3595 28.9945 30.256C29.008 29.2553 29.0031 28.2533 29.0031 27.2119V27.2131ZM22.4723 23.7881C22.6905 23.7881 22.9099 23.7967 23.128 23.7869C24.6353 23.7203 26.1241 23.5379 27.5291 22.9562C27.9506 22.7824 28.3523 22.5261 28.7073 22.2377C29.1165 21.9049 29.1177 21.5056 28.7122 21.1692C28.3671 20.8832 27.9715 20.6367 27.5611 20.458C26.5875 20.0341 25.551 19.8406 24.496 19.7247C22.2271 19.477 19.9853 19.5682 17.8063 20.2991C17.2825 20.4753 16.7723 20.7563 16.3249 21.0829C15.7826 21.4785 15.8171 21.8975 16.3286 22.3449C16.3766 22.3868 16.4235 22.4337 16.4789 22.462C16.9337 22.6875 17.3737 22.9562 17.8494 23.1214C19.3444 23.6415 20.8997 23.7906 22.4723 23.7894V23.7881ZM15.9342 23.2532C15.9342 23.9582 15.9613 24.641 15.9256 25.32C15.8972 25.8414 16.1178 26.1852 16.5221 26.4625C17.1876 26.9198 17.9419 27.1613 18.7121 27.3437C20.5645 27.7825 22.4403 27.8638 24.3309 27.6654C25.4388 27.5496 26.5333 27.3536 27.5599 26.9087C27.9555 26.7374 28.3252 26.4921 28.6728 26.2345C28.8256 26.1211 28.9747 25.8956 28.9821 25.7144C29.0154 24.8998 28.9969 24.0839 28.9969 23.2816C28.5064 23.5071 28.0442 23.7622 27.5525 23.9397C25.9503 24.519 24.2803 24.726 22.5857 24.7198C20.281 24.7125 18.0232 24.461 15.9342 23.2508V23.2532Z" fill="white"/>
<path d="M43.0025 16.0237C42.9631 16.1026 42.9162 16.179 42.883 16.2615C42.3173 17.6702 41.754 19.0789 41.1908 20.4876C41.0072 20.9485 40.9308 21.0003 40.4464 21.0003C38.2526 21.0003 36.0589 21.0003 33.8651 21.0003C33.3894 21.0003 33.2563 20.9017 33.1848 20.4445C32.8829 18.5132 32.5895 16.5795 32.2876 14.6483C32.2408 14.3451 32.3468 14.1368 32.6117 14C34.872 14 37.1324 14 39.3927 14C39.5171 14.1578 39.6712 14.3007 39.7575 14.477C39.8672 14.7025 39.9312 14.9527 39.999 15.1967C40.0434 15.352 40.121 15.4087 40.2862 15.4062C40.9665 15.3976 41.6468 15.4112 42.3259 15.3976C42.6081 15.3914 42.8386 15.4543 43.0013 15.6946V16.0224L43.0025 16.0237ZM34.3593 20.0686C36.3436 20.0686 38.2748 20.071 40.2048 20.0599C40.2825 20.0599 40.3946 19.9441 40.4304 19.8578C40.8778 18.7634 41.3141 17.6653 41.7516 16.5672C41.7775 16.5031 41.7935 16.4353 41.8144 16.37C41.7787 16.3552 41.7627 16.3429 41.7454 16.3429C39.8326 16.3404 37.9199 16.3367 36.0071 16.3466C35.9283 16.3466 35.8124 16.4587 35.7767 16.545C35.4932 17.2241 35.2245 17.9106 34.9509 18.5946C34.7587 19.074 34.5676 19.5534 34.3606 20.0686H34.3593ZM33.8664 18.7462C33.9415 18.5785 33.9847 18.4898 34.0217 18.3998C34.3532 17.5729 34.6835 16.7447 35.015 15.9177C35.2036 15.4457 35.2615 15.405 35.7582 15.405C36.7602 15.405 37.7621 15.405 38.7641 15.405C38.8602 15.405 38.9564 15.3964 39.0846 15.3914C39.0254 15.2189 38.9773 15.0784 38.933 14.9465H33.2834C33.4757 16.1987 33.6655 17.4336 33.8664 18.7474V18.7462Z" fill="white"/>
<path d="M33.5421 42C33.3314 41.8915 33.2266 41.7215 33.1896 41.4848C32.8926 39.5326 32.5857 37.5804 32.2899 35.6282C32.2271 35.2166 32.4206 35.0021 32.8359 35.0009C34.9496 34.9985 37.0644 35.0009 39.1781 34.9972C39.4764 34.9972 39.6563 35.1266 39.7426 35.4089C39.8214 35.6701 39.9237 35.924 39.9977 36.1865C40.0457 36.3578 40.1345 36.4084 40.3083 36.4059C41.0009 36.3961 41.6935 36.4084 42.3862 36.3985C42.6696 36.3948 42.8841 36.4786 43.0036 36.7485V37.0221C42.9642 37.101 42.9173 37.1774 42.8841 37.26C42.3159 38.6773 41.7539 40.0971 41.1747 41.5107C41.1007 41.6919 40.9368 41.8373 40.8148 42H33.5409H33.5421ZM41.8365 37.3574C41.7601 37.3475 41.7243 37.3389 41.6886 37.3389C39.8029 37.3389 37.9173 37.3401 36.0317 37.3339C35.8665 37.3339 35.8172 37.4141 35.7667 37.5435C35.4228 38.4148 35.074 39.2837 34.7253 40.1538C34.6082 40.4471 34.4899 40.7404 34.374 41.0325C34.411 41.051 34.4258 41.0658 34.4406 41.0658C36.3632 41.0683 38.2846 41.0707 40.2072 41.0633C40.2774 41.0633 40.381 40.9783 40.413 40.908C40.551 40.6012 40.6681 40.2857 40.7926 39.9726C41.1365 39.1124 41.4791 38.2521 41.8365 37.3586V37.3574ZM39.061 36.4034C38.9994 36.0888 38.8273 35.9314 38.5446 35.9314C36.8956 35.9314 35.2466 35.9314 33.5988 35.9314H33.2808C33.4756 37.1959 33.6654 38.4296 33.8552 39.6645C33.9353 39.5992 33.9636 39.5339 33.9907 39.4685C34.3469 38.5824 34.708 37.6988 35.0543 36.8089C35.1665 36.523 35.3476 36.3887 35.6533 36.401C35.8986 36.4108 36.145 36.4022 36.3915 36.4022C37.274 36.4022 38.1564 36.4022 39.061 36.4022V36.4034Z" fill="white"/>
<path d="M43.0025 26.3048C42.8016 26.778 42.5946 27.25 42.4023 27.727C41.9857 28.7549 41.5778 29.7864 41.1649 30.8155C41.0109 31.2 40.9061 31.2703 40.4883 31.2703C38.2748 31.2703 36.0613 31.2703 33.8479 31.2703C33.3993 31.2703 33.2563 31.1594 33.1873 30.7194C32.8853 28.7869 32.5871 26.8532 32.2925 24.9195C32.2272 24.4869 32.4084 24.2737 32.8397 24.2725C34.9534 24.27 37.0658 24.2725 39.1794 24.2688C39.4765 24.2688 39.6576 24.3945 39.7427 24.6792C39.8203 24.9404 39.9214 25.1943 39.9978 25.4568C40.0421 25.6109 40.1173 25.67 40.2849 25.6676C40.9677 25.6577 41.6517 25.6725 42.3345 25.659C42.6217 25.654 42.8484 25.728 43.005 25.9769V26.3048H43.0025ZM41.8181 26.619C41.7442 26.6104 41.6924 26.5981 41.6419 26.5981C39.7759 26.5981 37.9088 26.5981 36.0429 26.5932C35.8826 26.5932 35.8259 26.6634 35.7729 26.7965C35.3342 27.9032 34.8893 29.0075 34.4481 30.113C34.4222 30.1771 34.4099 30.2461 34.3877 30.3238C34.4542 30.3287 34.4986 30.3361 34.5442 30.3361C36.4101 30.3361 38.2773 30.3349 40.1432 30.3398C40.3096 30.3398 40.3798 30.2782 40.4378 30.1303C40.8704 29.0309 41.3128 27.9353 41.7503 26.8372C41.7762 26.7731 41.791 26.7053 41.8181 26.6166V26.619ZM33.8676 29.0186C33.944 28.8399 33.9896 28.7425 34.029 28.6427C34.363 27.8071 34.6958 26.9715 35.0298 26.1371C35.1888 25.7391 35.2985 25.6639 35.7237 25.6639C36.7343 25.6639 37.7436 25.6639 38.7542 25.6639C38.8528 25.6639 38.9502 25.6639 39.0525 25.6639C39.0048 25.3591 38.8454 25.2066 38.5743 25.2066C36.9179 25.2066 35.2615 25.2066 33.6051 25.2066H33.2822C33.4769 26.4711 33.6655 27.7048 33.8676 29.0198V29.0186Z" fill="white"/>
<path d="M22.0164 15.8462V14.9527H22.9148V15.8462H22.0164Z" fill="white"/>
<path d="M24.787 14.9539V15.8462H23.8811V14.9539H24.787Z" fill="white"/>
<path d="M25.7456 15.8462V14.9539H26.6441V15.8462H25.7456Z" fill="white"/>
<path d="M28.5225 14.9502V15.8462H27.6179V14.9502H28.5225Z" fill="white"/>
<path d="M30.3897 14.949V15.8511H29.4924V14.949H30.3897Z" fill="white"/>
<path d="M22.0164 16.8075H22.9148V17.7134H22.0164V16.8075Z" fill="white"/>
<path d="M22.9221 38.2928V39.1888H22.0261V38.2928H22.9221Z" fill="white"/>
<path d="M22.9221 40.1575V41.0547H22.0249V40.1575H22.9221Z" fill="white"/>
<path d="M23.8833 40.1439H24.7744V41.0498H23.8833V40.1439Z" fill="white"/>
<path d="M25.7495 40.1538H26.6504V41.0485H25.7495V40.1538Z" fill="white"/>
<path d="M27.6179 40.1513H28.5114V41.0498H27.6179V40.1513Z" fill="white"/>
<path d="M29.4949 40.1488H30.3884V41.0547H29.4949V40.1488Z" fill="white"/>
</g>
<defs>
<clipPath id="clip0_288_231">
<rect width="57" height="57" fill="white"/>
</clipPath>
</defs>
</svg>
