<svg width="121" height="150" viewBox="0 0 121 150" fill="none" xmlns="http://www.w3.org/2000/svg">
<g clip-path="url(#clip0_98_1105)">
<path d="M54.68 134.8V146H53.208V137.248L49.544 143.344H49.352L45.688 137.264V146H44.2V134.8H45.88L49.448 140.72L53 134.8H54.68ZM63.683 144.992C62.8617 145.803 61.8643 146.208 60.691 146.208C59.5177 146.208 58.5203 145.803 57.699 144.992C56.8883 144.181 56.483 143.184 56.483 142C56.483 140.816 56.8883 139.819 57.699 139.008C58.5203 138.197 59.5177 137.792 60.691 137.792C61.8643 137.792 62.8617 138.197 63.683 139.008C64.5043 139.819 64.915 140.816 64.915 142C64.915 143.184 64.5043 144.181 63.683 144.992ZM60.691 144.848C61.491 144.848 62.163 144.576 62.707 144.032C63.251 143.488 63.523 142.811 63.523 142C63.523 141.189 63.251 140.512 62.707 139.968C62.163 139.424 61.491 139.152 60.691 139.152C59.9017 139.152 59.235 139.424 58.691 139.968C58.147 140.512 57.875 141.189 57.875 142C57.875 142.811 58.147 143.488 58.691 144.032C59.235 144.576 59.9017 144.848 60.691 144.848ZM67.948 139.344C68.4067 138.352 69.2387 137.856 70.444 137.856V139.312C69.7613 139.28 69.1747 139.461 68.684 139.856C68.1933 140.251 67.948 140.885 67.948 141.76V146H66.556V138H67.948V139.344ZM72.3445 142.64C72.4832 143.355 72.8085 143.909 73.3205 144.304C73.8432 144.699 74.4832 144.896 75.2405 144.896C76.2965 144.896 77.0645 144.507 77.5445 143.728L78.7285 144.4C77.9498 145.605 76.7765 146.208 75.2085 146.208C73.9392 146.208 72.9045 145.813 72.1045 145.024C71.3152 144.224 70.9205 143.216 70.9205 142C70.9205 140.795 71.3098 139.792 72.0885 138.992C72.8672 138.192 73.8752 137.792 75.1125 137.792C76.2858 137.792 77.2405 138.208 77.9765 139.04C78.7232 139.861 79.0965 140.853 79.0965 142.016C79.0965 142.219 79.0805 142.427 79.0485 142.64H72.3445ZM75.1125 139.104C74.3658 139.104 73.7472 139.317 73.2565 139.744C72.7658 140.16 72.4618 140.72 72.3445 141.424H77.6885C77.5712 140.667 77.2725 140.091 76.7925 139.696C76.3125 139.301 75.7525 139.104 75.1125 139.104Z" fill="#B6B6B6"/>
<rect width="121" height="121" rx="26" fill="#120B36"/>
<path fill-rule="evenodd" clip-rule="evenodd" d="M66 38C66 37.4477 65.5523 37 65 37H59C58.4477 37 58 37.4477 58 38V54C58 54.5523 57.5523 55 57 55H41C40.4477 55 40 55.4477 40 56V62C40 62.5523 40.4477 63 41 63H57C57.5523 63 58 63.4477 58 64V79C58 79.5523 58.4477 80 59 80H65C65.5523 80 66 79.5523 66 79V64C66 63.4477 66.4477 63 67 63H82C82.5523 63 83 62.5523 83 62V56C83 55.4477 82.5523 55 82 55H67C66.4477 55 66 54.5523 66 54V38Z" fill="white"/>
</g>
<defs>
<clipPath id="clip0_98_1105">
<rect width="121" height="150" fill="white"/>
</clipPath>
</defs>
</svg>
