<svg width="57" height="57" viewBox="0 0 57 57" fill="none" xmlns="http://www.w3.org/2000/svg">
<g clip-path="url(#clip0_288_233)">
<rect width="57" height="57" rx="15" fill="#6C47FF"/>
<path d="M42.41 32.7098C40.639 37.4722 37.4132 40.5583 32.5127 41.7305C27.1032 43.0246 21.273 40.7574 18.081 35.7991V38.9318H16V31.687H23.2384V33.7358H19.3398C19.396 33.8627 19.4265 33.9494 19.4715 34.0281C21.4753 37.5124 24.4635 39.55 28.4664 39.9273C33.5323 40.4042 38.0651 37.6328 40.0593 32.9619C40.138 32.7773 40.2279 32.7002 40.4383 32.705C41.0661 32.7195 41.6939 32.7098 42.41 32.7098Z" fill="white"/>
<path d="M16.6116 24.3812C18.3698 19.6317 21.5891 16.5488 26.472 15.3686C31.9409 14.0471 37.7422 16.3368 40.9487 21.3048V18.1496H43.02V25.4024H35.7736V23.3568H39.7027C39.6144 23.1866 39.5582 23.0662 39.4907 22.9522C37.4708 19.5241 34.4955 17.5379 30.5295 17.1541C25.5648 16.674 20.9003 19.5032 18.9767 24.0954C18.8804 24.325 18.7648 24.3957 18.5239 24.3877C17.9186 24.37 17.3116 24.3812 16.6132 24.3812H16.6116Z" fill="white"/>
</g>
<defs>
<clipPath id="clip0_288_233">
<rect width="57" height="57" fill="white"/>
</clipPath>
</defs>
</svg>
