<svg width="57" height="57" viewBox="0 0 57 57" fill="none" xmlns="http://www.w3.org/2000/svg">
<g id="Vectors-Wrapper_15" clip-path="url(#clip0_1_185)">
<g id="Clip path group">
<mask id="mask0_1_185" style="mask-type:luminance" maskUnits="userSpaceOnUse" x="0" y="0" width="57" height="57">
<g id="clip0_288_235">
<path id="Vector" d="M57 0H0V57H57V0Z" fill="white"/>
</g>
</mask>
<g mask="url(#mask0_1_185)">
<g id="Group">
<path id="Vector_2" d="M42 0H15C6.71573 0 0 6.71573 0 15V42C0 50.2843 6.71573 57 15 57H42C50.2843 57 57 50.2843 57 42V15C57 6.71573 50.2843 0 42 0Z" fill="#6C47FF"/>
<path id="Vector_3" d="M16 21.1529C16.0291 21.0292 16.0567 20.9056 16.0858 20.7804C16.2444 20.0704 16.5849 19.4622 17.1 18.9486C18.2872 17.7657 19.4687 16.5799 20.6545 15.397C21.1856 14.8674 21.6555 14.8674 22.188 15.3985C24.065 17.2725 25.939 19.148 27.8145 21.0249C28.3528 21.5647 28.3514 22.039 27.8101 22.5817C26.8163 23.5769 25.827 24.5779 24.8216 25.5615C24.6077 25.771 24.599 25.9165 24.7692 26.1595C26.4832 28.601 28.558 30.6772 30.9936 32.3985C31.2642 32.5891 31.4286 32.5964 31.6687 32.349C32.6348 31.3553 33.6213 30.3833 34.602 29.4056C35.1636 28.844 35.6292 28.8396 36.1821 29.3925C38.043 31.252 39.9039 33.1129 41.7619 34.9738C42.3236 35.5354 42.3236 35.9908 41.7648 36.551C40.7856 37.5317 39.7875 38.4934 38.8316 39.4944C38.0619 40.3005 37.25 41.0047 36.1064 41.1939H35.2043C35.133 41.1735 35.0632 41.1458 34.9904 41.1328C33.2605 40.8243 31.6018 40.2903 30.01 39.5497C26.4046 37.8678 23.3942 35.4234 20.8902 32.3505C18.91 29.9206 17.4099 27.2275 16.5442 24.2026C16.3303 23.4532 16.1804 22.6865 16.0015 21.9284C16.0015 21.6709 16.0015 21.4134 16.0015 21.1558L16 21.1529ZM21.3951 16.9597C21.4038 16.9567 21.3791 16.9582 21.3645 16.9713C20.2704 18.064 19.166 19.145 18.0923 20.2566C17.6761 20.6873 17.5496 21.2431 17.6485 21.8426C17.9628 23.7311 18.5797 25.5193 19.4512 27.2187C21.283 30.7951 23.8831 33.7094 27.1466 36.0345C29.559 37.7543 32.1998 38.9692 35.1287 39.525C35.942 39.6792 36.5982 39.4595 37.1715 38.8761C38.1187 37.91 39.0819 36.9599 40.0378 36.0025C40.112 35.9283 40.1818 35.8497 40.2255 35.8031C38.5959 34.1721 36.9838 32.5585 35.3135 30.8868C35.2465 30.977 35.1767 31.1006 35.0792 31.1996C34.2775 32.0071 33.4758 32.8161 32.6654 33.6148C31.9495 34.3205 31.062 34.3933 30.2399 33.8258C27.5336 31.9591 25.245 29.6718 23.3782 26.9656C22.8006 26.1275 22.8806 25.2443 23.6037 24.5168C24.4287 23.6875 25.2581 22.8611 26.0845 22.0332C26.1572 21.9604 26.2242 21.8804 26.2722 21.828C24.6382 20.197 23.0232 18.5834 21.3965 16.9597H21.3951Z" fill="white"/>
</g>
</g>
</g>
</g>
<defs>
<clipPath id="clip0_1_185">
<rect width="57" height="57" fill="white"/>
</clipPath>
</defs>
</svg>
