<svg width="57" height="57" viewBox="0 0 57 57" fill="none" xmlns="http://www.w3.org/2000/svg">
<g clip-path="url(#clip0_288_234)">
<rect width="57" height="57" rx="15" fill="#6C47FF"/>
<path d="M29.5227 31.7278C26.7875 31.7278 24.0541 31.7278 21.319 31.7278C20.6531 31.7278 20.4739 31.5451 20.4739 30.8724C20.4739 29.3973 20.4739 27.9239 20.4739 26.4488C20.4739 25.8837 20.6805 25.6805 21.2524 25.6788C26.7841 25.6788 32.3175 25.6788 37.8492 25.6788C38.4144 25.6788 38.6175 25.8871 38.6192 26.4573C38.6209 27.9563 38.6209 29.4571 38.6192 30.9561C38.6192 31.5195 38.4109 31.7261 37.839 31.7261C35.0663 31.7261 32.2936 31.7261 29.5209 31.7261L29.5227 31.7278Z" fill="white"/>
<path d="M29.5468 16C32.2939 16 35.0409 16 37.788 16C38.4317 16 38.6195 16.1878 38.6195 16.8315C38.6195 18.3066 38.6195 19.78 38.6195 21.2551C38.6195 21.8476 38.418 22.049 37.8256 22.049C32.3058 22.049 26.7861 22.049 21.2663 22.049C20.6739 22.049 20.4741 21.8476 20.4724 21.2551C20.4724 19.768 20.4724 18.281 20.4724 16.7939C20.4724 16.2015 20.6722 16.0017 21.2663 16C24.0253 16 26.7861 16 29.5451 16H29.5468ZM37.3834 20.8232V17.2395H21.7034V20.8232H37.3834Z" fill="white"/>
<path d="M29.5466 41.4066C26.7995 41.4066 24.0524 41.4066 21.3053 41.4066C20.6617 41.4066 20.4739 41.2188 20.4739 40.5751C20.4739 39.1 20.4739 37.6266 20.4739 36.1515C20.4739 35.559 20.6736 35.3576 21.2678 35.3576C26.7875 35.3576 32.3073 35.3576 37.8271 35.3576C38.4195 35.3576 38.6209 35.5573 38.6209 36.1515C38.6209 37.6385 38.6209 39.1256 38.6209 40.6127C38.6209 41.2051 38.4195 41.4066 37.8271 41.4066C35.068 41.4066 32.3073 41.4066 29.5483 41.4066H29.5466ZM21.6997 40.1705H37.3797V36.5868H21.6997V40.1705Z" fill="white"/>
<path d="M17.8379 38.9873C14.9764 39.1085 13.1359 37.3551 12.4189 35.6307C10.9472 32.0949 13.5337 28.1493 17.365 28.0998C17.7184 28.0946 18.0701 28.0981 18.4235 28.0998C18.9733 28.0998 19.255 28.3012 19.2601 28.6956C19.2652 29.0917 18.9767 29.2898 18.4389 29.3137C17.7491 29.3444 17.0406 29.3154 16.3781 29.4707C14.372 29.9385 13.0096 31.9242 13.2298 33.949C13.462 36.0763 15.1847 37.7034 17.2847 37.7717C17.7133 37.7854 18.1418 37.7717 18.5703 37.7802C18.9886 37.7871 19.2533 38.0176 19.2601 38.371C19.2686 38.7381 18.9955 38.9788 18.5567 38.9873C18.3177 38.9924 18.0786 38.9873 17.8379 38.9873Z" fill="white"/>
<path d="M41.2331 29.3085C40.9941 29.3085 40.7551 29.3137 40.5143 29.3085C40.0978 29.2983 39.8348 29.0644 39.8314 28.7093C39.828 28.3524 40.0909 28.1151 40.5041 28.0998C41.1204 28.0776 41.7436 28.1066 42.3497 28.0212C44.3558 27.7378 45.8736 25.9298 45.8753 23.8724C45.8787 21.8151 44.3626 19.9968 42.3634 19.71C41.7812 19.6263 41.1836 19.6485 40.5929 19.6332C40.1114 19.6195 39.8365 19.4112 39.8314 19.0356C39.8246 18.6566 40.1029 18.4073 40.5741 18.4261C41.3509 18.4585 42.1482 18.4278 42.9012 18.5883C45.4553 19.1295 47.207 21.5198 47.0807 24.1798C46.9578 26.722 44.9653 28.8988 42.4368 29.2419C42.039 29.2966 41.6343 29.3051 41.2331 29.3341C41.2331 29.3256 41.2331 29.3171 41.2314 29.3085H41.2331Z" fill="white"/>
<path d="M17.0305 18.4193C16.9759 18.1273 16.8547 17.8695 16.9008 17.6441C16.9861 17.2207 17.5 17.0671 17.8313 17.3624C18.282 17.7637 18.7054 18.199 19.1152 18.6429C19.3559 18.9041 19.3183 19.2063 19.0486 19.488C18.6815 19.8705 18.3059 20.2427 17.9269 20.6115C17.6383 20.8915 17.3037 20.9171 17.0493 20.6951C16.7813 20.4629 16.7778 20.1351 17.0391 19.7902C17.0664 19.7544 17.0937 19.7202 17.1654 19.6298C16.713 19.6298 16.3271 19.6298 15.9413 19.6298C14.8708 19.6298 13.7986 19.6315 12.7281 19.6298C12.2808 19.6298 12.011 19.3959 12.0093 19.0305C12.0059 18.6617 12.2757 18.4244 12.7196 18.4227C14.0547 18.4193 15.3915 18.4227 16.7266 18.4227C16.8496 18.4227 16.9708 18.4227 17.0305 18.4227V18.4193Z" fill="white"/>
<path d="M44.9893 38.9873C44.5113 38.9873 44.0998 38.9873 43.6901 38.9873C42.6435 38.9873 41.5986 38.9907 40.552 38.9873C40.1047 38.9873 39.835 38.7534 39.8333 38.3863C39.8316 38.0176 40.0996 37.7802 40.5452 37.7802C41.8803 37.7768 43.2172 37.7802 44.5523 37.7802C44.6752 37.7802 44.7981 37.7802 44.9791 37.7802C44.9193 37.6966 44.8955 37.6607 44.8681 37.6249C44.6086 37.2698 44.6189 36.9556 44.8972 36.7217C45.1635 36.4998 45.4725 36.5271 45.773 36.819C46.1435 37.1793 46.5106 37.5429 46.8674 37.9151C47.1764 38.2395 47.1679 38.5417 46.8469 38.8746C46.4884 39.2451 46.1213 39.6105 45.7508 39.9707C45.4623 40.2507 45.1276 40.2746 44.8733 40.0544C44.6069 39.8222 44.6018 39.4944 44.863 39.1495C44.8903 39.1137 44.9176 39.0795 44.9893 38.989V38.9873Z" fill="white"/>
</g>
<defs>
<clipPath id="clip0_288_234">
<rect width="57" height="57" fill="white"/>
</clipPath>
</defs>
</svg>
