<svg width="121" height="150" viewBox="0 0 121 150" fill="none" xmlns="http://www.w3.org/2000/svg">
<g clip-path="url(#clip0_98_1103)">
<path d="M38.68 134.8V146H37.208V137.248L33.544 143.344H33.352L29.688 137.264V146H28.2V134.8H29.88L33.448 140.72L37 134.8H38.68ZM41.907 142.64C42.0457 143.355 42.371 143.909 42.883 144.304C43.4057 144.699 44.0457 144.896 44.803 144.896C45.859 144.896 46.627 144.507 47.107 143.728L48.291 144.4C47.5123 145.605 46.339 146.208 44.771 146.208C43.5017 146.208 42.467 145.813 41.667 145.024C40.8777 144.224 40.483 143.216 40.483 142C40.483 140.795 40.8723 139.792 41.651 138.992C42.4297 138.192 43.4377 137.792 44.675 137.792C45.8483 137.792 46.803 138.208 47.539 139.04C48.2857 139.861 48.659 140.853 48.659 142.016C48.659 142.219 48.643 142.427 48.611 142.64H41.907ZM44.675 139.104C43.9283 139.104 43.3097 139.317 42.819 139.744C42.3283 140.16 42.0243 140.72 41.907 141.424H47.251C47.1337 140.667 46.835 140.091 46.355 139.696C45.875 139.301 45.315 139.104 44.675 139.104ZM51.1466 140.16C51.1466 140.469 51.3013 140.72 51.6106 140.912C51.92 141.093 52.2933 141.243 52.7306 141.36C53.168 141.467 53.6053 141.595 54.0426 141.744C54.48 141.883 54.8533 142.128 55.1626 142.48C55.472 142.821 55.6266 143.264 55.6266 143.808C55.6266 144.533 55.344 145.115 54.7786 145.552C54.224 145.989 53.5093 146.208 52.6346 146.208C51.856 146.208 51.1893 146.037 50.6346 145.696C50.08 145.355 49.6853 144.901 49.4506 144.336L50.6506 143.648C50.7786 144.032 51.0186 144.336 51.3706 144.56C51.7226 144.784 52.144 144.896 52.6346 144.896C53.0933 144.896 53.472 144.811 53.7706 144.64C54.0693 144.459 54.2186 144.181 54.2186 143.808C54.2186 143.499 54.064 143.253 53.7546 143.072C53.4453 142.88 53.072 142.731 52.6346 142.624C52.1973 142.507 51.76 142.373 51.3226 142.224C50.8853 142.075 50.512 141.829 50.2026 141.488C49.8933 141.147 49.7386 140.709 49.7386 140.176C49.7386 139.483 50.0053 138.912 50.5386 138.464C51.0826 138.016 51.76 137.792 52.5706 137.792C53.2213 137.792 53.7973 137.941 54.2986 138.24C54.8106 138.528 55.1946 138.933 55.4506 139.456L54.2826 140.112C53.9946 139.429 53.424 139.088 52.5706 139.088C52.176 139.088 51.84 139.184 51.5626 139.376C51.2853 139.557 51.1466 139.819 51.1466 140.16ZM57.9748 140.16C57.9748 140.469 58.1294 140.72 58.4388 140.912C58.7481 141.093 59.1214 141.243 59.5588 141.36C59.9961 141.467 60.4334 141.595 60.8708 141.744C61.3081 141.883 61.6814 142.128 61.9908 142.48C62.3001 142.821 62.4548 143.264 62.4548 143.808C62.4548 144.533 62.1721 145.115 61.6068 145.552C61.0521 145.989 60.3374 146.208 59.4628 146.208C58.6841 146.208 58.0174 146.037 57.4628 145.696C56.9081 145.355 56.5134 144.901 56.2788 144.336L57.4788 143.648C57.6068 144.032 57.8468 144.336 58.1988 144.56C58.5508 144.784 58.9721 144.896 59.4628 144.896C59.9214 144.896 60.3001 144.811 60.5988 144.64C60.8974 144.459 61.0468 144.181 61.0468 143.808C61.0468 143.499 60.8921 143.253 60.5828 143.072C60.2734 142.88 59.9001 142.731 59.4628 142.624C59.0254 142.507 58.5881 142.373 58.1508 142.224C57.7134 142.075 57.3401 141.829 57.0308 141.488C56.7214 141.147 56.5668 140.709 56.5668 140.176C56.5668 139.483 56.8334 138.912 57.3668 138.464C57.9108 138.016 58.5881 137.792 59.3988 137.792C60.0494 137.792 60.6254 137.941 61.1268 138.24C61.6388 138.528 62.0228 138.933 62.2788 139.456L61.1108 140.112C60.8228 139.429 60.2521 139.088 59.3988 139.088C59.0041 139.088 58.6681 139.184 58.3908 139.376C58.1134 139.557 57.9748 139.819 57.9748 140.16ZM64.8601 142.64C64.9988 143.355 65.3241 143.909 65.8361 144.304C66.3588 144.699 66.9988 144.896 67.7561 144.896C68.8121 144.896 69.5801 144.507 70.0601 143.728L71.2441 144.4C70.4655 145.605 69.2921 146.208 67.7241 146.208C66.4548 146.208 65.4201 145.813 64.6201 145.024C63.8308 144.224 63.4361 143.216 63.4361 142C63.4361 140.795 63.8255 139.792 64.6041 138.992C65.3828 138.192 66.3908 137.792 67.6281 137.792C68.8015 137.792 69.7561 138.208 70.4921 139.04C71.2388 139.861 71.6121 140.853 71.6121 142.016C71.6121 142.219 71.5961 142.427 71.5641 142.64H64.8601ZM67.6281 139.104C66.8815 139.104 66.2628 139.317 65.7721 139.744C65.2815 140.16 64.9775 140.72 64.8601 141.424H70.2041C70.0868 140.667 69.7881 140.091 69.3081 139.696C68.8281 139.301 68.2681 139.104 67.6281 139.104ZM77.1963 137.792C78.1349 137.792 78.8869 138.091 79.4523 138.688C80.0176 139.275 80.3003 140.075 80.3003 141.088V146H78.9083V141.168C78.9083 140.517 78.7323 140.016 78.3803 139.664C78.0283 139.301 77.5429 139.12 76.9243 139.12C76.2309 139.12 75.6709 139.339 75.2443 139.776C74.8176 140.203 74.6043 140.864 74.6043 141.76V146H73.2122V138H74.6043V139.152C75.1696 138.245 76.0336 137.792 77.1963 137.792ZM88.8835 138H90.2595V145.664C90.2595 146.848 89.8595 147.765 89.0595 148.416C88.2595 149.077 87.2995 149.408 86.1795 149.408C85.2835 149.408 84.5102 149.237 83.8595 148.896C83.2088 148.565 82.7182 148.085 82.3875 147.456L83.6035 146.768C84.0408 147.664 84.9102 148.112 86.2115 148.112C87.0435 148.112 87.6942 147.893 88.1635 147.456C88.6435 147.019 88.8835 146.421 88.8835 145.664V144.528C88.1795 145.595 87.1768 146.128 85.8755 146.128C84.7342 146.128 83.7688 145.723 82.9795 144.912C82.1902 144.101 81.7955 143.115 81.7955 141.952C81.7955 140.789 82.1902 139.808 82.9795 139.008C83.7688 138.197 84.7342 137.792 85.8755 137.792C87.1875 137.792 88.1902 138.32 88.8835 139.376V138ZM84.0035 143.984C84.5475 144.528 85.2248 144.8 86.0355 144.8C86.8462 144.8 87.5235 144.528 88.0675 143.984C88.6115 143.44 88.8835 142.763 88.8835 141.952C88.8835 141.152 88.6115 140.48 88.0675 139.936C87.5235 139.392 86.8462 139.12 86.0355 139.12C85.2248 139.12 84.5475 139.392 84.0035 139.936C83.4595 140.48 83.1875 141.152 83.1875 141.952C83.1875 142.763 83.4595 143.44 84.0035 143.984ZM93.3445 142.64C93.4832 143.355 93.8085 143.909 94.3205 144.304C94.8432 144.699 95.4832 144.896 96.2405 144.896C97.2965 144.896 98.0645 144.507 98.5445 143.728L99.7285 144.4C98.9498 145.605 97.7765 146.208 96.2085 146.208C94.9392 146.208 93.9045 145.813 93.1045 145.024C92.3152 144.224 91.9205 143.216 91.9205 142C91.9205 140.795 92.3098 139.792 93.0885 138.992C93.8672 138.192 94.8752 137.792 96.1125 137.792C97.2858 137.792 98.2405 138.208 98.9765 139.04C99.7232 139.861 100.097 140.853 100.097 142.016C100.097 142.219 100.081 142.427 100.049 142.64H93.3445ZM96.1125 139.104C95.3658 139.104 94.7472 139.317 94.2565 139.744C93.7658 140.16 93.4618 140.72 93.3445 141.424H98.6885C98.5712 140.667 98.2725 140.091 97.7925 139.696C97.3125 139.301 96.7525 139.104 96.1125 139.104ZM103.089 139.344C103.547 138.352 104.379 137.856 105.585 137.856V139.312C104.902 139.28 104.315 139.461 103.825 139.856C103.334 140.251 103.089 140.885 103.089 141.76V146H101.697V138H103.089V139.344Z" fill="#B6B6B6"/>
<rect width="121" height="121" rx="26" fill="#120B36"/>
<path d="M69.589 54.6065L61 45.2602L55.1872 39L23 74.5333L52.411 64.3936L61 73.7398L66.8128 80L99 44.4667L69.589 54.6065Z" fill="white"/>
</g>
<defs>
<clipPath id="clip0_98_1103">
<rect width="121" height="150" fill="white"/>
</clipPath>
</defs>
</svg>
