<svg width="121" height="158" viewBox="0 0 121 158" fill="none" xmlns="http://www.w3.org/2000/svg">
<g clip-path="url(#clip0_292_616)">
<rect width="121" height="121" rx="26" fill="#120B36"/>
<g clip-path="url(#clip1_292_616)">
<path d="M74.3377 28H45.6612C35.9228 28 28 35.9232 28 45.6616V74.338C28 84.0768 35.9228 91.9996 45.6612 91.9996H74.3377C84.0768 91.9996 91.9996 84.0764 91.9996 74.338V45.6616C92 35.9232 84.0768 28 74.3377 28ZM86.3216 74.338C86.3216 80.9458 80.9458 86.3213 74.338 86.3213H45.6612C39.0539 86.3216 33.6784 80.9458 33.6784 74.338V45.6616C33.6784 39.0542 39.0539 33.6784 45.6612 33.6784H74.3377C80.9454 33.6784 86.3213 39.0542 86.3213 45.6616V74.338H86.3216Z" fill="white"/>
<path d="M59.9998 43.5095C50.9065 43.5095 43.5087 50.9073 43.5087 60.0006C43.5087 69.0935 50.9065 76.4909 59.9998 76.4909C69.0931 76.4909 76.4909 69.0935 76.4909 60.0006C76.4909 50.9073 69.0931 43.5095 59.9998 43.5095ZM59.9998 70.8122C54.0379 70.8122 49.1871 65.9621 49.1871 60.0002C49.1871 54.038 54.0375 49.1875 59.9998 49.1875C65.9621 49.1875 70.8125 54.038 70.8125 60.0002C70.8125 65.9621 65.9617 70.8122 59.9998 70.8122Z" fill="white"/>
<path d="M77.1825 38.6946C76.0885 38.6946 75.0137 39.1375 74.2411 39.9135C73.4647 40.6858 73.0184 41.7609 73.0184 42.8587C73.0184 43.9531 73.4651 45.0278 74.2411 45.8039C75.0134 46.5761 76.0885 47.0228 77.1825 47.0228C78.2803 47.0228 79.3516 46.5761 80.1277 45.8039C80.9037 45.0278 81.3466 43.9527 81.3466 42.8587C81.3466 41.7609 80.9037 40.6858 80.1277 39.9135C79.3554 39.1375 78.2803 38.6946 77.1825 38.6946Z" fill="white"/>
</g>
<path d="M24.2 142.8H25.688V154H24.2V142.8ZM31.9306 145.792C32.8693 145.792 33.6213 146.091 34.1866 146.688C34.752 147.275 35.0346 148.075 35.0346 149.088V154H33.6426V149.168C33.6426 148.517 33.4666 148.016 33.1146 147.664C32.7626 147.301 32.2773 147.12 31.6586 147.12C30.9653 147.12 30.4053 147.339 29.9786 147.776C29.552 148.203 29.3386 148.864 29.3386 149.76V154H27.9466V146H29.3386V147.152C29.904 146.245 30.768 145.792 31.9306 145.792ZM38.1779 148.16C38.1779 148.469 38.3325 148.72 38.6419 148.912C38.9512 149.093 39.3245 149.243 39.7619 149.36C40.1992 149.467 40.6365 149.595 41.0739 149.744C41.5112 149.883 41.8845 150.128 42.1939 150.48C42.5032 150.821 42.6579 151.264 42.6579 151.808C42.6579 152.533 42.3752 153.115 41.8099 153.552C41.2552 153.989 40.5405 154.208 39.6659 154.208C38.8872 154.208 38.2205 154.037 37.6659 153.696C37.1112 153.355 36.7165 152.901 36.4819 152.336L37.6819 151.648C37.8099 152.032 38.0499 152.336 38.4019 152.56C38.7539 152.784 39.1752 152.896 39.6659 152.896C40.1245 152.896 40.5032 152.811 40.8019 152.64C41.1005 152.459 41.2499 152.181 41.2499 151.808C41.2499 151.499 41.0952 151.253 40.7859 151.072C40.4765 150.88 40.1032 150.731 39.6659 150.624C39.2285 150.507 38.7912 150.373 38.3539 150.224C37.9165 150.075 37.5432 149.829 37.2339 149.488C36.9245 149.147 36.7699 148.709 36.7699 148.176C36.7699 147.483 37.0365 146.912 37.5699 146.464C38.1139 146.016 38.7912 145.792 39.6019 145.792C40.2525 145.792 40.8285 145.941 41.3299 146.24C41.8419 146.528 42.2259 146.933 42.4819 147.456L41.3139 148.112C41.0259 147.429 40.4552 147.088 39.6019 147.088C39.2072 147.088 38.8712 147.184 38.5939 147.376C38.3165 147.557 38.1779 147.819 38.1779 148.16ZM48.3455 147.344H46.2175V151.68C46.2175 152.075 46.2922 152.357 46.4415 152.528C46.6015 152.688 46.8415 152.773 47.1615 152.784C47.4815 152.784 47.8762 152.773 48.3455 152.752V154C47.1295 154.16 46.2388 154.064 45.6735 153.712C45.1082 153.349 44.8255 152.672 44.8255 151.68V147.344H43.2415V146H44.8255V144.176L46.2175 143.76V146H48.3455V147.344ZM56.2113 146H57.6033V154H56.2113V152.624C55.5179 153.68 54.5099 154.208 53.1873 154.208C52.0673 154.208 51.1126 153.803 50.3233 152.992C49.5339 152.171 49.1393 151.173 49.1393 150C49.1393 148.827 49.5339 147.835 50.3233 147.024C51.1126 146.203 52.0673 145.792 53.1873 145.792C54.5099 145.792 55.5179 146.32 56.2113 147.376V146ZM53.3633 152.864C54.1739 152.864 54.8513 152.592 55.3953 152.048C55.9393 151.493 56.2113 150.811 56.2113 150C56.2113 149.189 55.9393 148.512 55.3953 147.968C54.8513 147.413 54.1739 147.136 53.3633 147.136C52.5633 147.136 51.8913 147.413 51.3473 147.968C50.8033 148.512 50.5312 149.189 50.5312 150C50.5312 150.811 50.8033 151.493 51.3473 152.048C51.8913 152.592 52.5633 152.864 53.3633 152.864ZM66.3523 146H67.7283V153.664C67.7283 154.848 67.3283 155.765 66.5283 156.416C65.7283 157.077 64.7683 157.408 63.6483 157.408C62.7523 157.408 61.9789 157.237 61.3283 156.896C60.6776 156.565 60.1869 156.085 59.8563 155.456L61.0723 154.768C61.5096 155.664 62.3789 156.112 63.6803 156.112C64.5123 156.112 65.1629 155.893 65.6323 155.456C66.1123 155.019 66.3523 154.421 66.3523 153.664V152.528C65.6483 153.595 64.6456 154.128 63.3443 154.128C62.2029 154.128 61.2376 153.723 60.4483 152.912C59.6589 152.101 59.2643 151.115 59.2643 149.952C59.2643 148.789 59.6589 147.808 60.4483 147.008C61.2376 146.197 62.2029 145.792 63.3443 145.792C64.6563 145.792 65.6589 146.32 66.3523 147.376V146ZM61.4723 151.984C62.0163 152.528 62.6936 152.8 63.5043 152.8C64.3149 152.8 64.9923 152.528 65.5363 151.984C66.0803 151.44 66.3523 150.763 66.3523 149.952C66.3523 149.152 66.0803 148.48 65.5363 147.936C64.9923 147.392 64.3149 147.12 63.5043 147.12C62.6936 147.12 62.0163 147.392 61.4723 147.936C60.9283 148.48 60.6562 149.152 60.6562 149.952C60.6562 150.763 60.9283 151.44 61.4723 151.984ZM71.2293 147.344C71.6879 146.352 72.5199 145.856 73.7253 145.856V147.312C73.0426 147.28 72.4559 147.461 71.9653 147.856C71.4746 148.251 71.2293 148.885 71.2293 149.76V154H69.8372V146H71.2293V147.344ZM81.2738 146H82.6658V154H81.2738V152.624C80.5804 153.68 79.5724 154.208 78.2498 154.208C77.1298 154.208 76.1751 153.803 75.3858 152.992C74.5964 152.171 74.2018 151.173 74.2018 150C74.2018 148.827 74.5964 147.835 75.3858 147.024C76.1751 146.203 77.1298 145.792 78.2498 145.792C79.5724 145.792 80.5804 146.32 81.2738 147.376V146ZM78.4258 152.864C79.2364 152.864 79.9138 152.592 80.4578 152.048C81.0018 151.493 81.2738 150.811 81.2738 150C81.2738 149.189 81.0018 148.512 80.4578 147.968C79.9138 147.413 79.2364 147.136 78.4258 147.136C77.6258 147.136 76.9538 147.413 76.4098 147.968C75.8658 148.512 75.5938 149.189 75.5938 150C75.5938 150.811 75.8658 151.493 76.4098 152.048C76.9538 152.592 77.6258 152.864 78.4258 152.864ZM93.4148 145.792C94.3108 145.792 95.0361 146.085 95.5908 146.672C96.1454 147.248 96.4228 148.032 96.4228 149.024V154H95.0308V149.072C95.0308 148.453 94.8708 147.973 94.5508 147.632C94.2308 147.291 93.8041 147.12 93.2708 147.12C92.6734 147.12 92.1934 147.323 91.8308 147.728C91.4788 148.123 91.3028 148.731 91.3028 149.552V154H89.9108V149.072C89.9108 148.453 89.7561 147.973 89.4468 147.632C89.1481 147.291 88.7374 147.12 88.2148 147.12C87.6281 147.12 87.1374 147.323 86.7428 147.728C86.3588 148.133 86.1668 148.741 86.1668 149.552V154H84.7747V146H86.1668V147.072C86.7108 146.219 87.5054 145.792 88.5508 145.792C89.6281 145.792 90.4121 146.245 90.9028 147.152C91.4574 146.245 92.2948 145.792 93.4148 145.792Z" fill="#B6B6B6"/>
</g>
<defs>
<clipPath id="clip0_292_616">
<rect width="121" height="158" fill="white"/>
</clipPath>
<clipPath id="clip1_292_616">
<rect width="64" height="64" fill="white" transform="translate(28 28)"/>
</clipPath>
</defs>
</svg>
