<svg width="57" height="57" viewBox="0 0 57 57" fill="none" xmlns="http://www.w3.org/2000/svg">
<g id="Vectors-Wrapper_11" clip-path="url(#clip0_1_169)">
<g id="Clip path group">
<mask id="mask0_1_169" style="mask-type:luminance" maskUnits="userSpaceOnUse" x="0" y="0" width="57" height="57">
<g id="clip0_288_231">
<path id="Vector" d="M57 0H0V57H57V0Z" fill="white"/>
</g>
</mask>
<g mask="url(#mask0_1_169)">
<g id="Group">
<path id="Vector_2" d="M42 0H15C6.71573 0 0 6.71573 0 15V42C0 50.2843 6.71573 57 15 57H42C50.2843 57 57 50.2843 57 42V15C57 6.71573 50.2843 0 42 0Z" fill="#6C47FF"/>
</g>
</g>
</g>
<g id="Group_2">
<path id="01 align center" d="M38 19H29.236L25.236 17H20C19.2044 17 18.4413 17.3161 17.8787 17.8787C17.3161 18.4413 17 19.2044 17 20V39H41V22C41 21.2044 40.6839 20.4413 40.1213 19.8787C39.5587 19.3161 38.7956 19 38 19ZM20 19H24.764L28.764 21H38C38.2652 21 38.5196 21.1054 38.7071 21.2929C38.8946 21.4804 39 21.7348 39 22V22.881L19 22.994V20C19 19.7348 19.1054 19.4804 19.2929 19.2929C19.4804 19.1054 19.7348 19 20 19ZM19 37V24.994L39 24.881V37H19Z" fill="white"/>
</g>
</g>
<defs>
<clipPath id="clip0_1_169">
<rect width="57" height="57" fill="white"/>
</clipPath>
</defs>
</svg>
