<svg width="121" height="150" viewBox="0 0 121 150" fill="none" xmlns="http://www.w3.org/2000/svg">
<g clip-path="url(#clip0_98_1102)">
<path d="M35.368 134.8V136.208H32.056V146H30.584V136.208H27.288V134.8H35.368ZM36.2195 142.64C36.3582 143.355 36.6835 143.909 37.1955 144.304C37.7182 144.699 38.3582 144.896 39.1155 144.896C40.1715 144.896 40.9395 144.507 41.4195 143.728L42.6035 144.4C41.8248 145.605 40.6515 146.208 39.0835 146.208C37.8142 146.208 36.7795 145.813 35.9795 145.024C35.1902 144.224 34.7955 143.216 34.7955 142C34.7955 140.795 35.1848 139.792 35.9635 138.992C36.7422 138.192 37.7502 137.792 38.9875 137.792C40.1608 137.792 41.1155 138.208 41.8515 139.04C42.5982 139.861 42.9715 140.853 42.9715 142.016C42.9715 142.219 42.9555 142.427 42.9235 142.64H36.2195ZM38.9875 139.104C38.2408 139.104 37.6222 139.317 37.1315 139.744C36.6408 140.16 36.3368 140.72 36.2195 141.424H41.5635C41.4462 140.667 41.1475 140.091 40.6675 139.696C40.1875 139.301 39.6275 139.104 38.9875 139.104ZM44.5716 146V134.32H45.9636V146H44.5716ZM49.0633 142.64C49.2019 143.355 49.5273 143.909 50.0393 144.304C50.5619 144.699 51.2019 144.896 51.9593 144.896C53.0153 144.896 53.7833 144.507 54.2633 143.728L55.4473 144.4C54.6686 145.605 53.4953 146.208 51.9273 146.208C50.6579 146.208 49.6233 145.813 48.8233 145.024C48.0339 144.224 47.6393 143.216 47.6393 142C47.6393 140.795 48.0286 139.792 48.8073 138.992C49.5859 138.192 50.5939 137.792 51.8313 137.792C53.0046 137.792 53.9593 138.208 54.6953 139.04C55.4419 139.861 55.8153 140.853 55.8153 142.016C55.8153 142.219 55.7993 142.427 55.7673 142.64H49.0633ZM51.8313 139.104C51.0846 139.104 50.4659 139.317 49.9753 139.744C49.4846 140.16 49.1806 140.72 49.0633 141.424H54.4073C54.2899 140.667 53.9913 140.091 53.5113 139.696C53.0313 139.301 52.4713 139.104 51.8313 139.104ZM64.0398 138H65.4158V145.664C65.4158 146.848 65.0158 147.765 64.2158 148.416C63.4158 149.077 62.4558 149.408 61.3358 149.408C60.4398 149.408 59.6664 149.237 59.0158 148.896C58.3651 148.565 57.8744 148.085 57.5438 147.456L58.7598 146.768C59.1971 147.664 60.0664 148.112 61.3678 148.112C62.1998 148.112 62.8504 147.893 63.3198 147.456C63.7998 147.019 64.0398 146.421 64.0398 145.664V144.528C63.3358 145.595 62.3331 146.128 61.0318 146.128C59.8904 146.128 58.9251 145.723 58.1358 144.912C57.3464 144.101 56.9518 143.115 56.9518 141.952C56.9518 140.789 57.3464 139.808 58.1358 139.008C58.9251 138.197 59.8904 137.792 61.0318 137.792C62.3438 137.792 63.3464 138.32 64.0398 139.376V138ZM59.1598 143.984C59.7038 144.528 60.3811 144.8 61.1918 144.8C62.0024 144.8 62.6798 144.528 63.2238 143.984C63.7678 143.44 64.0398 142.763 64.0398 141.952C64.0398 141.152 63.7678 140.48 63.2238 139.936C62.6798 139.392 62.0024 139.12 61.1918 139.12C60.3811 139.12 59.7038 139.392 59.1598 139.936C58.6158 140.48 58.3438 141.152 58.3438 141.952C58.3438 142.763 58.6158 143.44 59.1598 143.984ZM68.9168 139.344C69.3754 138.352 70.2074 137.856 71.4128 137.856V139.312C70.7301 139.28 70.1434 139.461 69.6528 139.856C69.1621 140.251 68.9168 140.885 68.9168 141.76V146H67.5247V138H68.9168V139.344ZM78.9613 138H80.3533V146H78.9613V144.624C78.2679 145.68 77.2599 146.208 75.9373 146.208C74.8173 146.208 73.8626 145.803 73.0733 144.992C72.2839 144.171 71.8893 143.173 71.8893 142C71.8893 140.827 72.2839 139.835 73.0733 139.024C73.8626 138.203 74.8173 137.792 75.9373 137.792C77.2599 137.792 78.2679 138.32 78.9613 139.376V138ZM76.1133 144.864C76.9239 144.864 77.6013 144.592 78.1453 144.048C78.6893 143.493 78.9613 142.811 78.9613 142C78.9613 141.189 78.6893 140.512 78.1453 139.968C77.6013 139.413 76.9239 139.136 76.1133 139.136C75.3133 139.136 74.6413 139.413 74.0973 139.968C73.5533 140.512 73.2812 141.189 73.2812 142C73.2812 142.811 73.5533 143.493 74.0973 144.048C74.6413 144.592 75.3133 144.864 76.1133 144.864ZM91.1023 137.792C91.9983 137.792 92.7236 138.085 93.2783 138.672C93.8329 139.248 94.1103 140.032 94.1103 141.024V146H92.7183V141.072C92.7183 140.453 92.5583 139.973 92.2383 139.632C91.9183 139.291 91.4916 139.12 90.9583 139.12C90.3609 139.12 89.8809 139.323 89.5183 139.728C89.1663 140.123 88.9903 140.731 88.9903 141.552V146H87.5983V141.072C87.5983 140.453 87.4436 139.973 87.1343 139.632C86.8356 139.291 86.4249 139.12 85.9023 139.12C85.3156 139.12 84.8249 139.323 84.4303 139.728C84.0463 140.133 83.8543 140.741 83.8543 141.552V146H82.4622V138H83.8543V139.072C84.3983 138.219 85.1929 137.792 86.2383 137.792C87.3156 137.792 88.0996 138.245 88.5903 139.152C89.1449 138.245 89.9823 137.792 91.1023 137.792Z" fill="#B6B6B6"/>
<rect width="121" height="121" rx="26" fill="#120B36"/>
<path d="M52.1921 82.3896L53.1138 68.4659L78.3938 45.6875C79.5129 44.6671 78.1633 44.1734 76.6821 45.0621L45.4771 64.7792L31.9813 60.5C29.0846 59.6771 29.0517 57.6692 32.6396 56.2209L85.2075 35.9442C87.6104 34.858 89.9146 36.5367 88.9929 40.2234L80.0396 82.3896C79.4142 85.385 77.6038 86.1092 75.1021 84.7267L61.4746 74.6542L54.9242 81.0071C54.1671 81.7642 53.5417 82.3896 52.1921 82.3896Z" fill="white"/>
</g>
<defs>
<clipPath id="clip0_98_1102">
<rect width="121" height="150" fill="white"/>
</clipPath>
</defs>
</svg>
