<svg width="386" height="43" viewBox="0 0 386 43" fill="none" xmlns="http://www.w3.org/2000/svg">
<g clip-path="url(#clip0_288_229)">
<path d="M7.16 30.04H18.32V34H3.02V8.8H18.14V12.76H7.16V19.312H17.24V23.236H7.16V30.04ZM41.5138 15.532C43.5538 15.532 45.1978 16.192 46.4458 17.512C47.6938 18.832 48.3178 20.608 48.3178 22.84V34H44.4298V23.092C44.4298 21.844 44.1178 20.884 43.4938 20.212C42.8698 19.516 42.0178 19.168 40.9378 19.168C39.7378 19.168 38.7778 19.564 38.0578 20.356C37.3618 21.148 37.0138 22.336 37.0138 23.92V34H33.1258V23.092C33.1258 21.844 32.8258 20.884 32.2258 20.212C31.6498 19.516 30.8218 19.168 29.7418 19.168C28.5658 19.168 27.6058 19.576 26.8618 20.392C26.1178 21.184 25.7458 22.36 25.7458 23.92V34H21.8578V16H25.7458V18.16C26.8978 16.408 28.6138 15.532 30.8938 15.532C33.1978 15.532 34.9018 16.48 36.0058 18.376C37.2058 16.48 39.0418 15.532 41.5138 15.532ZM62.6669 15.532C65.1389 15.532 67.2509 16.456 69.0029 18.304C70.7549 20.128 71.6309 22.36 71.6309 25C71.6309 27.664 70.7549 29.908 69.0029 31.732C67.2509 33.556 65.1389 34.468 62.6669 34.468C59.9309 34.468 57.8309 33.46 56.3669 31.444V41.2H52.4789V16H56.3669V18.592C57.8309 16.552 59.9309 15.532 62.6669 15.532ZM57.9869 29.14C59.0669 30.22 60.4229 30.76 62.0549 30.76C63.6869 30.76 65.0429 30.22 66.1229 29.14C67.2029 28.036 67.7429 26.656 67.7429 25C67.7429 23.344 67.2029 21.976 66.1229 20.896C65.0429 19.792 63.6869 19.24 62.0549 19.24C60.4229 19.24 59.0669 19.792 57.9869 20.896C56.9069 21.976 56.3669 23.344 56.3669 25C56.3669 26.656 56.9069 28.036 57.9869 29.14ZM83.6507 34.468C81.0107 34.468 78.7667 33.556 76.9187 31.732C75.0707 29.908 74.1467 27.664 74.1467 25C74.1467 22.336 75.0707 20.092 76.9187 18.268C78.7667 16.444 81.0107 15.532 83.6507 15.532C86.3147 15.532 88.5587 16.444 90.3827 18.268C92.2307 20.092 93.1547 22.336 93.1547 25C93.1547 27.664 92.2307 29.908 90.3827 31.732C88.5587 33.556 86.3147 34.468 83.6507 34.468ZM79.6547 29.068C80.7347 30.148 82.0667 30.688 83.6507 30.688C85.2347 30.688 86.5667 30.148 87.6467 29.068C88.7267 27.988 89.2667 26.632 89.2667 25C89.2667 23.368 88.7267 22.012 87.6467 20.932C86.5667 19.852 85.2347 19.312 83.6507 19.312C82.0667 19.312 80.7347 19.852 79.6547 20.932C78.5747 22.012 78.0347 23.368 78.0347 25C78.0347 26.632 78.5747 27.988 79.6547 29.068ZM116.703 16H120.807L115.155 34H111.339L107.595 21.868L103.815 34H99.9992L94.3472 16H98.4512L101.943 28.42L105.723 16H109.431L113.175 28.42L116.703 16ZM126.027 26.656C126.315 28.024 126.975 29.08 128.007 29.824C129.039 30.544 130.299 30.904 131.787 30.904C133.851 30.904 135.399 30.16 136.431 28.672L139.635 30.544C137.859 33.16 135.231 34.468 131.751 34.468C128.823 34.468 126.459 33.58 124.659 31.804C122.859 30.004 121.959 27.736 121.959 25C121.959 22.312 122.847 20.068 124.623 18.268C126.399 16.444 128.679 15.532 131.463 15.532C134.103 15.532 136.263 16.456 137.943 18.304C139.647 20.152 140.499 22.396 140.499 25.036C140.499 25.444 140.451 25.984 140.355 26.656H126.027ZM125.991 23.488H136.575C136.311 22.024 135.699 20.92 134.739 20.176C133.803 19.432 132.699 19.06 131.427 19.06C129.987 19.06 128.787 19.456 127.827 20.248C126.867 21.04 126.255 22.12 125.991 23.488ZM147.808 19.024C148.792 16.792 150.64 15.676 153.352 15.676V19.888C151.864 19.792 150.568 20.152 149.464 20.968C148.36 21.76 147.808 23.08 147.808 24.928V34H143.92V16H147.808V19.024ZM184.845 8.8L176.061 23.992V34H171.921V23.992L163.137 8.8H167.853L174.009 19.96L180.129 8.8H184.845ZM192.213 34.468C189.573 34.468 187.329 33.556 185.481 31.732C183.633 29.908 182.709 27.664 182.709 25C182.709 22.336 183.633 20.092 185.481 18.268C187.329 16.444 189.573 15.532 192.213 15.532C194.877 15.532 197.121 16.444 198.945 18.268C200.793 20.092 201.717 22.336 201.717 25C201.717 27.664 200.793 29.908 198.945 31.732C197.121 33.556 194.877 34.468 192.213 34.468ZM188.217 29.068C189.297 30.148 190.629 30.688 192.213 30.688C193.797 30.688 195.129 30.148 196.209 29.068C197.289 27.988 197.829 26.632 197.829 25C197.829 23.368 197.289 22.012 196.209 20.932C195.129 19.852 193.797 19.312 192.213 19.312C190.629 19.312 189.297 19.852 188.217 20.932C187.137 22.012 186.597 23.368 186.597 25C186.597 26.632 187.137 27.988 188.217 29.068ZM217.365 16H221.253V34H217.365V31.696C216.189 33.544 214.329 34.468 211.785 34.468C209.721 34.468 208.053 33.808 206.781 32.488C205.509 31.168 204.873 29.356 204.873 27.052V16H208.761V26.656C208.761 28 209.121 29.032 209.841 29.752C210.561 30.472 211.545 30.832 212.793 30.832C214.161 30.832 215.265 30.412 216.105 29.572C216.945 28.708 217.365 27.4 217.365 25.648V16ZM229.687 19.024C230.671 16.792 232.519 15.676 235.231 15.676V19.888C233.743 19.792 232.447 20.152 231.343 20.968C230.239 21.76 229.687 23.08 229.687 24.928V34H225.799V16H229.687V19.024ZM262.188 20.932C263.292 21.508 264.156 22.3 264.78 23.308C265.404 24.316 265.716 25.48 265.716 26.8C265.716 28.864 264.984 30.58 263.52 31.948C262.056 33.316 260.268 34 258.156 34H247.356V8.8H257.364C259.428 8.8 261.168 9.472 262.584 10.816C264.024 12.136 264.744 13.792 264.744 15.784C264.744 17.968 263.892 19.684 262.188 20.932ZM257.364 12.688H251.496V19.312H257.364C258.276 19.312 259.044 19 259.668 18.376C260.292 17.728 260.604 16.936 260.604 16C260.604 15.064 260.292 14.284 259.668 13.66C259.044 13.012 258.276 12.688 257.364 12.688ZM258.156 30.112C259.116 30.112 259.92 29.776 260.568 29.104C261.24 28.408 261.576 27.568 261.576 26.584C261.576 25.6 261.24 24.772 260.568 24.1C259.92 23.404 259.116 23.056 258.156 23.056H251.496V30.112H258.156ZM281.56 16H285.448V34H281.56V31.696C280.384 33.544 278.524 34.468 275.98 34.468C273.916 34.468 272.248 33.808 270.976 32.488C269.704 31.168 269.068 29.356 269.068 27.052V16H272.956V26.656C272.956 28 273.316 29.032 274.036 29.752C274.756 30.472 275.74 30.832 276.988 30.832C278.356 30.832 279.46 30.412 280.3 29.572C281.14 28.708 281.56 27.4 281.56 25.648V16ZM293.381 20.968C293.381 21.568 293.705 22.048 294.353 22.408C295.025 22.744 295.829 23.044 296.765 23.308C297.725 23.548 298.685 23.836 299.645 24.172C300.605 24.508 301.409 25.084 302.057 25.9C302.729 26.692 303.065 27.7 303.065 28.924C303.065 30.652 302.393 32.008 301.049 32.992C299.729 33.976 298.061 34.468 296.045 34.468C294.269 34.468 292.745 34.096 291.473 33.352C290.201 32.608 289.277 31.576 288.701 30.256L292.049 28.312C292.673 30.04 294.005 30.904 296.045 30.904C298.085 30.904 299.105 30.232 299.105 28.888C299.105 28.312 298.769 27.844 298.097 27.484C297.449 27.124 296.645 26.824 295.685 26.584C294.749 26.32 293.801 26.02 292.841 25.684C291.881 25.348 291.065 24.796 290.393 24.028C289.745 23.236 289.421 22.24 289.421 21.04C289.421 19.384 290.045 18.052 291.293 17.044C292.565 16.036 294.137 15.532 296.009 15.532C297.497 15.532 298.817 15.868 299.969 16.54C301.145 17.188 302.045 18.1 302.669 19.276L299.393 21.112C298.769 19.744 297.641 19.06 296.009 19.06C295.265 19.06 294.641 19.228 294.137 19.564C293.633 19.876 293.381 20.344 293.381 20.968ZM309.944 12.58C309.464 13.06 308.888 13.3 308.216 13.3C307.544 13.3 306.956 13.06 306.452 12.58C305.972 12.076 305.732 11.488 305.732 10.816C305.732 10.144 305.972 9.568 306.452 9.088C306.932 8.584 307.52 8.332 308.216 8.332C308.912 8.332 309.5 8.584 309.98 9.088C310.46 9.568 310.7 10.144 310.7 10.816C310.7 11.488 310.448 12.076 309.944 12.58ZM306.272 34V16H310.16V34H306.272ZM324.142 15.532C326.206 15.532 327.874 16.192 329.146 17.512C330.418 18.832 331.054 20.644 331.054 22.948V34H327.166V23.344C327.166 22 326.806 20.968 326.086 20.248C325.366 19.528 324.382 19.168 323.134 19.168C321.766 19.168 320.662 19.6 319.822 20.464C318.982 21.304 318.562 22.6 318.562 24.352V34H314.674V16H318.562V18.304C319.738 16.456 321.598 15.532 324.142 15.532ZM338.301 26.656C338.589 28.024 339.249 29.08 340.281 29.824C341.313 30.544 342.573 30.904 344.061 30.904C346.125 30.904 347.673 30.16 348.705 28.672L351.909 30.544C350.133 33.16 347.505 34.468 344.025 34.468C341.097 34.468 338.733 33.58 336.933 31.804C335.133 30.004 334.233 27.736 334.233 25C334.233 22.312 335.121 20.068 336.897 18.268C338.673 16.444 340.953 15.532 343.737 15.532C346.377 15.532 348.537 16.456 350.217 18.304C351.921 20.152 352.773 22.396 352.773 25.036C352.773 25.444 352.725 25.984 352.629 26.656H338.301ZM338.265 23.488H348.849C348.585 22.024 347.973 20.92 347.013 20.176C346.077 19.432 344.973 19.06 343.701 19.06C342.261 19.06 341.061 19.456 340.101 20.248C339.141 21.04 338.529 22.12 338.265 23.488ZM358.983 20.968C358.983 21.568 359.307 22.048 359.955 22.408C360.627 22.744 361.431 23.044 362.367 23.308C363.327 23.548 364.287 23.836 365.247 24.172C366.207 24.508 367.011 25.084 367.659 25.9C368.331 26.692 368.667 27.7 368.667 28.924C368.667 30.652 367.995 32.008 366.651 32.992C365.331 33.976 363.663 34.468 361.647 34.468C359.871 34.468 358.347 34.096 357.075 33.352C355.803 32.608 354.879 31.576 354.303 30.256L357.651 28.312C358.275 30.04 359.607 30.904 361.647 30.904C363.687 30.904 364.707 30.232 364.707 28.888C364.707 28.312 364.371 27.844 363.699 27.484C363.051 27.124 362.247 26.824 361.287 26.584C360.351 26.32 359.403 26.02 358.443 25.684C357.483 25.348 356.667 24.796 355.995 24.028C355.347 23.236 355.023 22.24 355.023 21.04C355.023 19.384 355.647 18.052 356.895 17.044C358.167 16.036 359.739 15.532 361.611 15.532C363.099 15.532 364.419 15.868 365.571 16.54C366.747 17.188 367.647 18.1 368.271 19.276L364.995 21.112C364.371 19.744 363.243 19.06 361.611 19.06C360.867 19.06 360.243 19.228 359.739 19.564C359.235 19.876 358.983 20.344 358.983 20.968ZM374.487 20.968C374.487 21.568 374.811 22.048 375.459 22.408C376.131 22.744 376.935 23.044 377.871 23.308C378.831 23.548 379.791 23.836 380.751 24.172C381.711 24.508 382.515 25.084 383.163 25.9C383.835 26.692 384.171 27.7 384.171 28.924C384.171 30.652 383.499 32.008 382.155 32.992C380.835 33.976 379.167 34.468 377.151 34.468C375.375 34.468 373.851 34.096 372.579 33.352C371.307 32.608 370.383 31.576 369.807 30.256L373.155 28.312C373.779 30.04 375.111 30.904 377.151 30.904C379.191 30.904 380.211 30.232 380.211 28.888C380.211 28.312 379.875 27.844 379.203 27.484C378.555 27.124 377.751 26.824 376.791 26.584C375.855 26.32 374.907 26.02 373.947 25.684C372.987 25.348 372.171 24.796 371.499 24.028C370.851 23.236 370.527 22.24 370.527 21.04C370.527 19.384 371.151 18.052 372.399 17.044C373.671 16.036 375.243 15.532 377.115 15.532C378.603 15.532 379.923 15.868 381.075 16.54C382.251 17.188 383.151 18.1 383.775 19.276L380.499 21.112C379.875 19.744 378.747 19.06 377.115 19.06C376.371 19.06 375.747 19.228 375.243 19.564C374.739 19.876 374.487 20.344 374.487 20.968Z" fill="#0A0328"/>
</g>
<defs>
<clipPath id="clip0_288_229">
<rect width="385" height="43" fill="white" transform="translate(0.5)"/>
</clipPath>
</defs>
</svg>
