<svg width="57" height="57" viewBox="0 0 57 57" fill="none" xmlns="http://www.w3.org/2000/svg">
<g clip-path="url(#clip0_288_232)">
<rect width="57" height="57" rx="15" fill="#6C47FF"/>
<path d="M43 18.132V38.8628C42.9845 38.8852 42.9621 38.9059 42.9552 38.9318C42.6123 40.3843 41.6077 41.1856 40.1207 41.1856C32.3701 41.1856 24.6213 41.1856 16.8707 41.1856C15.1648 41.1856 14 40.0277 14 38.3321C14 31.7722 14 25.2106 14 18.6507C14 16.9845 15.1665 15.8145 16.8276 15.811C17.9701 15.8093 19.1125 15.811 20.2549 15.811C20.3548 15.811 20.4548 15.811 20.5702 15.811C20.5702 15.5095 20.5702 15.2476 20.5702 14.9839C20.5737 14.4067 20.9476 14 21.4749 14C21.9987 14 22.3778 14.4084 22.3812 14.9839C22.3829 15.2544 22.3812 15.5233 22.3812 15.7903H34.6153C34.6153 15.506 34.6136 15.2407 34.6153 14.977C34.6205 14.4015 34.9996 13.9966 35.5269 14C36.0507 14.0035 36.4229 14.4118 36.428 14.9908C36.4298 15.2596 36.428 15.5301 36.428 15.8127C36.5728 15.8127 36.6745 15.8127 36.7778 15.8127C37.9582 15.8127 39.1385 15.8041 40.3171 15.8162C41.4837 15.8282 42.4986 16.583 42.8604 17.6823C42.9104 17.8322 42.9518 17.9839 42.9966 18.1355L43 18.132ZM41.1873 22.6277H15.811V22.9568C15.811 28.0537 15.811 33.1507 15.811 38.2477C15.811 39.0558 16.1315 39.3729 16.9448 39.3729C24.6471 39.3729 32.3494 39.3729 40.0518 39.3729C40.8668 39.3729 41.1856 39.0575 41.1856 38.2477C41.1856 33.1507 41.1856 28.0537 41.1856 22.9568V22.6277H41.1873ZM34.6171 17.6427H22.3812C22.3812 17.9339 22.3847 18.2079 22.3812 18.4801C22.3743 19.0315 21.9884 19.4347 21.4749 19.4347C20.9614 19.4347 20.5771 19.0298 20.5702 18.4784C20.5668 18.1993 20.5702 17.9201 20.5702 17.6272C19.2314 17.6272 17.9304 17.6151 16.6312 17.6341C16.1694 17.641 15.8265 18.0476 15.8144 18.5249C15.8058 18.8747 15.8127 19.2228 15.8127 19.5726C15.8127 19.9741 15.8127 20.3773 15.8127 20.777H41.189C41.189 20.0533 41.189 19.3468 41.189 18.6404C41.189 17.9873 40.8254 17.6255 40.1741 17.6237C39.0127 17.6237 37.8531 17.6237 36.6917 17.6237C36.6107 17.6237 36.5297 17.6341 36.4315 17.641C36.4315 17.9425 36.4367 18.2251 36.4315 18.506C36.4212 19.0367 36.0317 19.4347 35.5286 19.4347C35.0254 19.4347 34.6326 19.0367 34.6222 18.5077C34.6171 18.2251 34.6222 17.9442 34.6222 17.6427H34.6171Z" fill="white"/>
<path d="M26.5011 34.3466C27.3093 33.2903 28.0933 32.2633 28.879 31.2381C30.2765 29.4098 31.6756 27.5816 33.0714 25.7499C33.3178 25.4277 33.6279 25.2658 34.0294 25.3502C34.6876 25.488 34.9478 26.2376 34.5291 26.7993C33.8967 27.6454 33.2506 28.4811 32.6096 29.322C30.8709 31.6034 29.134 33.8848 27.3937 36.1662C26.913 36.7968 26.346 36.8278 25.805 36.2523C24.7315 35.1099 23.6614 33.9675 22.5914 32.8233C22.1778 32.3805 22.1641 31.8377 22.5552 31.4672C22.9446 31.0985 23.4908 31.1364 23.9061 31.5775C24.7677 32.4908 25.6241 33.4075 26.5046 34.3483L26.5011 34.3466Z" fill="white"/>
</g>
<defs>
<clipPath id="clip0_288_232">
<rect width="57" height="57" fill="white"/>
</clipPath>
</defs>
</svg>
